<svg width="60" height="60" viewBox="0 0 60 60" fill="none" xmlns="http://www.w3.org/2000/svg">
<path d="M40.08 19.1119V29.0151C40.08 29.2473 39.9542 29.4612 39.7512 29.574L30.8005 34.5465C30.6075 34.6538 30.3726 34.6538 30.1795 34.5465L21.2289 29.574C21.0259 29.4612 20.9 29.2473 20.9 29.0151L20.9 19.1119C20.9 18.8797 21.0259 18.6658 21.2289 18.553L30.1795 13.5805C30.3726 13.4732 30.6075 13.4732 30.8005 13.5805L39.7512 18.553C39.9541 18.6658 40.08 18.8797 40.08 19.1119Z" stroke="black" stroke-width="1.5" stroke-linecap="round" stroke-linejoin="round"/>
<path d="M11.8639 41.74H12.6639V50.78H11.8639V41.74ZM10.3439 45.42H12.0839V46.1H10.3439V45.42ZM9.81391 41.94H10.5939V50.32H9.81391V41.94ZM5.43391 42.83H6.26391V48.05H5.43391V42.83ZM5.43391 47.72H6.01391C6.94391 47.72 7.98391 47.66 9.16391 47.43L9.25391 48.15C8.02391 48.39 6.98391 48.44 6.01391 48.44H5.43391V47.72ZM20.4463 48.3789C20.4463 48.6165 20.4007 48.8395 20.3096 49.0479C20.2217 49.2562 20.0996 49.4385 19.9434 49.5947C19.7871 49.751 19.6048 49.8747 19.3965 49.9658C19.1882 50.0537 18.9652 50.0977 18.7275 50.0977H18.4297C18.1921 50.0977 17.9674 50.0537 17.7559 49.9658C17.5475 49.8747 17.3652 49.751 17.209 49.5947C17.0527 49.4385 16.929 49.2562 16.8379 49.0479C16.75 48.8395 16.7061 48.6165 16.7061 48.3789V48.1982L17.3359 48.1006V48.3789C17.3359 48.5352 17.3652 48.6816 17.4238 48.8184C17.4824 48.9518 17.5622 49.0706 17.6631 49.1748C17.7673 49.2757 17.8861 49.3555 18.0195 49.4141C18.1562 49.4727 18.3027 49.502 18.459 49.502H18.6982C18.8545 49.502 18.9993 49.4727 19.1328 49.4141C19.2695 49.3555 19.3883 49.2757 19.4893 49.1748C19.5902 49.0706 19.6699 48.9518 19.7285 48.8184C19.7871 48.6816 19.8164 48.5352 19.8164 48.3789V47.7979C19.8164 47.6416 19.7871 47.4967 19.7285 47.3633C19.6699 47.2266 19.5902 47.1077 19.4893 47.0068C19.3883 46.9059 19.2695 46.8262 19.1328 46.7676C18.9993 46.709 18.8545 46.6797 18.6982 46.6797H18.2295V46.0791H18.6982C18.8545 46.0791 18.9993 46.0498 19.1328 45.9912C19.2695 45.9326 19.3883 45.8529 19.4893 45.752C19.5902 45.651 19.6699 45.5339 19.7285 45.4004C19.7871 45.2637 19.8164 45.1172 19.8164 44.9609V44.6191C19.8164 44.4629 19.7871 44.318 19.7285 44.1846C19.6699 44.0479 19.5902 43.929 19.4893 43.8281C19.3883 43.7272 19.2695 43.6475 19.1328 43.5889C18.9993 43.5303 18.8545 43.501 18.6982 43.501H18.459C18.3027 43.501 18.1562 43.5303 18.0195 43.5889C17.8861 43.6475 17.7673 43.7272 17.6631 43.8281C17.5622 43.929 17.4824 44.0479 17.4238 44.1846C17.3652 44.318 17.3359 44.4629 17.3359 44.6191V44.9023L16.7061 44.7998V44.6191C16.7061 44.3815 16.75 44.1585 16.8379 43.9502C16.929 43.7419 17.0527 43.5596 17.209 43.4033C17.3652 43.2471 17.5475 43.125 17.7559 43.0371C17.9674 42.946 18.1921 42.9004 18.4297 42.9004H18.7275C18.9652 42.9004 19.1882 42.946 19.3965 43.0371C19.6048 43.125 19.7871 43.2471 19.9434 43.4033C20.0996 43.5596 20.2217 43.7419 20.3096 43.9502C20.4007 44.1585 20.4463 44.3815 20.4463 44.6191V44.8584C20.4463 45.0244 20.4235 45.1839 20.3779 45.3369C20.3356 45.4867 20.2738 45.6266 20.1924 45.7568C20.1143 45.887 20.0199 46.0059 19.9092 46.1133C19.7985 46.2174 19.6748 46.307 19.5381 46.3818C19.6748 46.4535 19.7985 46.543 19.9092 46.6504C20.0199 46.7546 20.1143 46.8717 20.1924 47.002C20.2738 47.1322 20.3356 47.2738 20.3779 47.4268C20.4235 47.5765 20.4463 47.7344 20.4463 47.9004V48.3789ZM25.8955 48.2812C25.8955 48.5189 25.8499 48.7419 25.7588 48.9502C25.6709 49.1585 25.5488 49.3408 25.3926 49.4971C25.2363 49.6533 25.0524 49.777 24.8408 49.8682C24.6325 49.9561 24.4095 50 24.1719 50H21.9551V42.998H24.1719C24.4095 42.998 24.6325 43.0436 24.8408 43.1348C25.0524 43.2227 25.2363 43.3447 25.3926 43.501C25.5488 43.6572 25.6709 43.8411 25.7588 44.0527C25.8499 44.2611 25.8955 44.484 25.8955 44.7217V48.2812ZM25.2656 44.7217C25.2656 44.5654 25.2363 44.4206 25.1777 44.2871C25.1191 44.1504 25.0378 44.0316 24.9336 43.9307C24.8327 43.8265 24.7139 43.7451 24.5771 43.6865C24.4437 43.6279 24.2988 43.5986 24.1426 43.5986H22.585V49.3994H24.1426C24.2988 49.3994 24.4437 49.3701 24.5771 49.3115C24.7139 49.2529 24.8327 49.1732 24.9336 49.0723C25.0378 48.9714 25.1191 48.8542 25.1777 48.7207C25.2363 48.584 25.2656 48.4375 25.2656 48.2812V44.7217ZM29.3984 48.94H37.5884V49.63H29.3984V48.94ZM33.0584 46.6H33.8884V49.13H33.0584V46.6ZM30.3484 42.49H36.5884V46.75H30.3484V42.49ZM35.7884 43.16H31.1584V46.08H35.7884V43.16ZM45.4477 41.74H46.2477V46.55H45.4477V41.74ZM41.8977 43.74H44.1077V44.39H41.8977V43.74ZM43.7177 41.92H44.4977V46.46H43.7177V41.92ZM39.0277 45.43H39.5977C40.9577 45.43 41.8177 45.4 42.8777 45.2L42.9377 45.87C41.8577 46.08 40.9777 46.1 39.5977 46.1H39.0277V45.43ZM39.0277 42.26H42.4477V42.93H39.8477V45.86H39.0277V42.26ZM40.2477 46.95H46.2477V49.06H41.0877V50.4H40.2677V48.44H45.4277V47.6H40.2477V46.95ZM40.2677 50H46.5777V50.66H40.2677V50ZM54.3669 41.75H55.2069V47.3H54.3669V41.75ZM48.2569 46.07H48.9869C50.6269 46.07 51.8369 46.02 53.2869 45.78L53.3769 46.46C51.8869 46.71 50.6669 46.75 48.9869 46.75H48.2569V46.07ZM48.2369 42.31H52.3369V44.81H49.0669V46.45H48.2569V44.16H51.5269V42.99H48.2369V42.31ZM52.2269 47.5C54.1069 47.5 55.2669 48.09 55.2669 49.13C55.2669 50.17 54.1069 50.77 52.2269 50.77C50.3369 50.77 49.1969 50.17 49.1969 49.13C49.1969 48.09 50.3369 47.5 52.2269 47.5ZM52.2269 48.16C50.8469 48.16 50.0169 48.51 50.0169 49.13C50.0169 49.75 50.8469 50.11 52.2269 50.11C53.6069 50.11 54.4369 49.75 54.4369 49.13C54.4369 48.51 53.6069 48.16 52.2269 48.16Z" fill="black"/>
</svg>
