<svg width="60" height="60" viewBox="0 0 60 60" fill="none" xmlns="http://www.w3.org/2000/svg">
<path d="M15.8516 43.68H16.6516C16.6516 46.29 15.7516 48.69 12.5716 50.29L12.1016 49.65C14.8916 48.25 15.8516 46.24 15.8516 43.77V43.68ZM12.5916 43.68H16.3516V44.35H12.5916V43.68ZM15.8016 45.92V46.55L12.2716 46.88L12.1316 46.16L15.8016 45.92ZM18.7016 42.74H19.5316V51.78H18.7016V42.74ZM16.6316 46.36H19.1016V47.05H16.6316V46.36ZM23.3708 48.19H24.2008V51.85H23.3708V48.19ZM26.5808 48.19H27.4108V51.85H26.5808V48.19ZM21.2908 47.97H29.4908V48.65H21.2908V47.97ZM22.3308 43.23H28.4308V46.75H22.3308V43.23ZM27.6208 43.89H23.1508V46.09H27.6208V43.89ZM37.07 42.74H37.9V51.78H37.07V42.74ZM31.07 43.62H31.89V49.22H31.07V43.62ZM31.07 48.73H31.81C33.18 48.73 34.61 48.63 36.14 48.31L36.24 49.02C34.67 49.34 33.24 49.45 31.81 49.45H31.07V48.73ZM40.2692 48.92H40.9892C42.6792 48.92 43.8592 48.87 45.2492 48.64L45.3292 49.31C43.9092 49.56 42.7092 49.61 40.9892 49.61H40.2692V48.92ZM40.2692 43.56H44.6492V44.25H41.0892V49.16H40.2692V43.56ZM40.8892 46.09H44.3192V46.76H40.8892V46.09ZM46.2792 42.74H47.1092V51.78H46.2792V42.74Z" fill="black"/>
<rect width="24" height="24" transform="translate(17.5 13.5)" fill="white"/>
<path d="M38.5 28.5C38.5 29.0304 38.2893 29.5391 37.9142 29.9142C37.5391 30.2893 37.0304 30.5 36.5 30.5H24.5L20.5 34.5V18.5C20.5 17.9696 20.7107 17.4609 21.0858 17.0858C21.4609 16.7107 21.9696 16.5 22.5 16.5H36.5C37.0304 16.5 37.5391 16.7107 37.9142 17.0858C38.2893 17.4609 38.5 17.9696 38.5 18.5V28.5Z" fill="#E2FF40" stroke="black" stroke-width="1.5" stroke-linecap="round" stroke-linejoin="round"/>
</svg>
