<svg width="60" height="60" viewBox="0 0 60 60" fill="none" xmlns="http://www.w3.org/2000/svg">
<path d="M32.0811 48.6934V51.3008H25.8799V48.6934H32.0811ZM24.9424 48.2441V47.2676H28.3701V46.833C26.8467 46.7451 25.9971 46.3203 26.0068 45.5781C25.9971 44.7383 27.0811 44.3135 28.9951 44.3086C30.9189 44.3135 31.9785 44.7383 31.9834 45.5781C31.9785 46.3203 31.1484 46.7451 29.6201 46.833V47.2676H33.0479V48.2441H24.9424ZM25.333 44.084V43.1465H28.3701V42.4336H29.6201V43.1465H32.6279V44.084H25.333ZM27.1104 50.373H30.8604V49.6211H27.1104V50.373ZM27.335 45.5781C27.335 45.876 27.8721 46.0078 28.9951 46.0078C30.1279 46.0078 30.6455 45.876 30.6455 45.5781C30.6455 45.2656 30.1279 45.1533 28.9951 45.1484C27.8721 45.1533 27.335 45.2656 27.335 45.5781Z" fill="black"/>
<path d="M20.5 21.5L20.0395 20.908C19.8569 21.0501 19.75 21.2686 19.75 21.5H20.5ZM29.5 14.5L29.9605 13.908C29.6896 13.6973 29.3104 13.6973 29.0395 13.908L29.5 14.5ZM21.0858 33.9142L21.6161 33.3839L21.6161 33.3839L21.0858 33.9142ZM26.5 34.5V35.25C26.9142 35.25 27.25 34.9142 27.25 34.5H26.5ZM26.5 24.5V23.75C26.0858 23.75 25.75 24.0858 25.75 24.5H26.5ZM32.5 24.5H33.25C33.25 24.0858 32.9142 23.75 32.5 23.75V24.5ZM32.5 34.5H31.75C31.75 34.9142 32.0858 35.25 32.5 35.25V34.5ZM38.5 21.5H39.25C39.25 21.2686 39.1431 21.0501 38.9605 20.908L38.5 21.5ZM20.9605 22.092L29.9605 15.092L29.0395 13.908L20.0395 20.908L20.9605 22.092ZM21.25 32.5V21.5H19.75V32.5H21.25ZM21.6161 33.3839C21.3817 33.1495 21.25 32.8315 21.25 32.5H19.75C19.75 33.2293 20.0397 33.9288 20.5555 34.4445L21.6161 33.3839ZM22.5 33.75C22.1685 33.75 21.8505 33.6183 21.6161 33.3839L20.5555 34.4445C21.0712 34.9603 21.7707 35.25 22.5 35.25V33.75ZM26.5 33.75H22.5V35.25H26.5V33.75ZM27.25 34.5V24.5H25.75V34.5H27.25ZM26.5 25.25H32.5V23.75H26.5V25.25ZM31.75 24.5V34.5H33.25V24.5H31.75ZM36.5 33.75H32.5V35.25H36.5V33.75ZM37.3839 33.3839C37.1495 33.6183 36.8315 33.75 36.5 33.75V35.25C37.2293 35.25 37.9288 34.9603 38.4445 34.4445L37.3839 33.3839ZM37.75 32.5C37.75 32.8315 37.6183 33.1495 37.3839 33.3839L38.4445 34.4445C38.9603 33.9288 39.25 33.2293 39.25 32.5H37.75ZM37.75 21.5V32.5H39.25V21.5H37.75ZM29.0395 15.092L38.0395 22.092L38.9605 20.908L29.9605 13.908L29.0395 15.092Z" fill="black"/>
</svg>
