<svg width="60" height="60" viewBox="0 0 60 60" fill="none" xmlns="http://www.w3.org/2000/svg">
<path d="M34.6154 18.1538C34.6154 20.7241 32.5318 22.8077 29.9615 22.8077C27.3913 22.8077 25.3077 20.7241 25.3077 18.1538C25.3077 15.5836 27.3913 13.5 29.9615 13.5C32.5318 13.5 34.6154 15.5836 34.6154 18.1538Z" stroke="black" stroke-width="1.5"/>
<path d="M38.4231 33.8077C38.4231 32.6965 38.2042 31.5962 37.779 30.5696C37.3537 29.543 36.7305 28.6102 35.9448 27.8245C35.159 27.0388 34.2262 26.4155 33.1996 25.9903C32.173 25.565 31.0727 25.3462 29.9615 25.3462C28.8504 25.3462 27.75 25.565 26.7234 25.9903C25.6968 26.4155 24.7641 27.0388 23.9783 27.8245C23.1926 28.6102 22.5693 29.543 22.1441 30.5696C21.7189 31.5962 21.5 32.6965 21.5 33.8077H38.4231Z" stroke="black" stroke-width="1.5"/>
<path d="M28.483 49.6538V44.854L28.4391 45.1519L26.8131 49.6538H26.4811L24.8405 45.1519L24.8014 44.854V49.6538H24.1715V42.6519H24.4987L26.6227 48.3941L26.6422 48.6529L26.6617 48.3941L28.7809 42.6519H29.1129V49.6538H28.483ZM32.5553 46.3042V49.6538H31.9254V46.314L30.1139 42.6519H30.7926L32.233 45.562L33.6735 42.6519H34.3522L32.5553 46.3042Z" fill="black"/>
</svg>
