<svg width="60" height="60" viewBox="0 0 60 60" fill="none" xmlns="http://www.w3.org/2000/svg">
<path d="M2 41.51H8.64V42.16H2V41.51ZM2.04 43.88H8.6V44.52H2.04V43.88ZM3.37 41.76H4.2V44.3H3.37V41.76ZM6.45 41.76H7.27V44.3H6.45V41.76ZM1.24 45.27H9.41V45.94H1.24V45.27ZM2.23 46.73H8.37V48.71H3.07V49.8H2.25V48.12H7.55V47.35H2.23V46.73ZM2.25 49.55H8.64V50.18H2.25V49.55ZM10.7392 47.37H11.3392C12.4392 47.37 13.4592 47.33 14.6992 47.12L14.7692 47.8C13.4992 48.02 12.4792 48.06 11.3392 48.06H10.7392V47.37ZM10.7192 42.23H13.9492V45.38H11.5492V47.65H10.7392V44.71H13.1492V42.91H10.7192V42.23ZM17.3192 41.24H18.1192V50.28H17.3192V41.24ZM14.3792 44.48H15.8392V45.17H14.3792V44.48ZM15.4992 41.46H16.2692V49.81H15.4992V41.46ZM26.2084 41.23H27.0384V50.29H26.2084V41.23ZM22.2684 41.93C23.6084 41.93 24.5684 43.16 24.5684 45.08C24.5684 47.01 23.6084 48.24 22.2684 48.24C20.9384 48.24 19.9784 47.01 19.9784 45.08C19.9784 43.16 20.9384 41.93 22.2684 41.93ZM22.2684 42.68C21.3884 42.68 20.7684 43.62 20.7684 45.08C20.7684 46.55 21.3884 47.51 22.2684 47.51C23.1584 47.51 23.7684 46.55 23.7684 45.08C23.7684 43.62 23.1584 42.68 22.2684 42.68ZM32.4677 41.86H33.1877V42.55C33.1877 44.52 31.3577 46.05 29.5477 46.46L29.1777 45.77C30.7677 45.47 32.4677 44.09 32.4677 42.55V41.86ZM32.6177 41.86H33.3377V42.55C33.3377 44.1 35.0477 45.47 36.6277 45.77L36.2577 46.46C34.4577 46.05 32.6177 44.53 32.6177 42.55V41.86ZM28.8477 48.38H37.0377V49.06H28.8477V48.38ZM42.2416 41.8H42.9016V43.01C42.9016 44.36 42.1216 45.78 40.7916 46.37L40.3416 45.72C41.5316 45.2 42.2416 44.03 42.2416 43.01V41.8ZM42.3716 41.8H43.0316V43.01C43.0316 44.01 43.7116 45.03 44.8716 45.48L44.4216 46.11C43.1216 45.59 42.3716 44.34 42.3716 43.01V41.8ZM47.1716 41.25H47.9616V46.82H47.1716V41.25ZM45.7316 43.66H47.4416V44.34H45.7316V43.66ZM45.2316 41.42H46.0216V46.53H45.2316V41.42ZM44.9916 47.02C46.8516 47.02 48.0116 47.62 48.0116 48.65C48.0116 49.67 46.8516 50.26 44.9916 50.26C43.1216 50.26 41.9816 49.67 41.9816 48.65C41.9816 47.62 43.1216 47.02 44.9916 47.02ZM44.9916 47.67C43.6316 47.67 42.7916 48.03 42.7916 48.65C42.7916 49.26 43.6316 49.62 44.9916 49.62C46.3516 49.62 47.1816 49.26 47.1816 48.65C47.1816 48.03 46.3516 47.67 44.9916 47.67ZM51.8208 41.75H52.5108V42.68C52.5108 44.43 51.5208 45.86 49.9708 46.44L49.5408 45.76C50.9208 45.27 51.8208 44.06 51.8208 42.68V41.75ZM51.9708 41.75H52.6508V42.65C52.6508 43.93 53.5308 45.06 54.8508 45.52L54.4008 46.17C52.9408 45.62 51.9708 44.29 51.9708 42.65V41.75ZM56.1508 41.24H56.9808V46.59H56.1508V41.24ZM54.0108 46.85C55.8708 46.85 57.0208 47.48 57.0208 48.56C57.0208 49.64 55.8708 50.26 54.0108 50.26C52.1408 50.26 50.9908 49.64 50.9908 48.56C50.9908 47.48 52.1408 46.85 54.0108 46.85ZM54.0108 47.51C52.6508 47.51 51.8208 47.9 51.8208 48.56C51.8208 49.22 52.6508 49.61 54.0108 49.61C55.3708 49.61 56.2008 49.22 56.2008 48.56C56.2008 47.9 55.3708 47.51 54.0108 47.51ZM54.1908 43.15H56.3308V43.84H54.1908V43.15Z" fill="black"/>
<rect x="18.25" y="13.25" width="20.5" height="20.5" rx="5.25" fill="white" stroke="black" stroke-width="1.5"/>
<path fill-rule="evenodd" clip-rule="evenodd" d="M34.9169 23.5C34.9169 23.8666 34.6197 24.1638 34.2531 24.1638L29.164 24.1638L29.164 29.2528C29.164 29.6194 28.8668 29.9166 28.5002 29.9166C28.1336 29.9166 27.8364 29.6194 27.8364 29.2528L27.8364 24.1638L22.7473 24.1638C22.3807 24.1638 22.0835 23.8666 22.0835 23.5C22.0835 23.1334 22.3807 22.8362 22.7473 22.8362L27.8364 22.8362L27.8364 17.7471C27.8364 17.3805 28.1336 17.0833 28.5002 17.0833C28.8668 17.0833 29.164 17.3805 29.164 17.7471L29.164 22.8362L34.2531 22.8362C34.6197 22.8362 34.9169 23.1334 34.9169 23.5Z" fill="black"/>
</svg>
