<svg width="24" height="24" viewBox="0 0 24 24" fill="none" xmlns="http://www.w3.org/2000/svg">
<path d="M9.1901 15.994C9.25773 16.066 9.31025 16.1509 9.34457 16.2436C9.37889 16.3362 9.39433 16.4348 9.38996 16.5335C9.38559 16.6323 9.36151 16.7291 9.31914 16.8184C9.27676 16.9077 9.21695 16.9875 9.14323 17.0533L5.89948 20.0533C5.7579 20.1805 5.57417 20.2507 5.38385 20.2502C5.19643 20.2502 5.01583 20.1799 4.8776 20.0533L3.25573 18.5533C3.18062 18.4875 3.11942 18.4074 3.0757 18.3176C3.03198 18.2278 3.00663 18.1302 3.00114 18.0305C2.99564 17.9308 3.01011 17.831 3.0437 17.737C3.07729 17.6429 3.12933 17.5566 3.19675 17.4829C3.26417 17.4092 3.34562 17.3498 3.43632 17.308C3.52703 17.2662 3.62516 17.243 3.72496 17.2397C3.82476 17.2363 3.92423 17.253 4.01752 17.2886C4.11081 17.3242 4.19604 17.3781 4.26823 17.4471L5.38385 18.4783L8.13073 15.9471C8.20278 15.8795 8.28764 15.827 8.38031 15.7926C8.47298 15.7583 8.57157 15.7429 8.6703 15.7472C8.76902 15.7516 8.86587 15.7757 8.95514 15.8181C9.04441 15.8604 9.1243 15.9202 9.1901 15.994ZM12.012 6.75022H20.262C20.4609 6.75022 20.6517 6.6712 20.7923 6.53055C20.933 6.3899 21.012 6.19913 21.012 6.00022C21.012 5.80131 20.933 5.61054 20.7923 5.46989C20.6517 5.32924 20.4609 5.25022 20.262 5.25022H12.012C11.8131 5.25022 11.6223 5.32924 11.4816 5.46989C11.341 5.61054 11.262 5.80131 11.262 6.00022C11.262 6.19913 11.341 6.3899 11.4816 6.53055C11.6223 6.6712 11.8131 6.75022 12.012 6.75022ZM8.13073 9.9471L5.38385 12.4783L4.26823 11.4471C4.19604 11.3781 4.11081 11.3242 4.01752 11.2886C3.92423 11.253 3.82476 11.2363 3.72496 11.2397C3.62516 11.243 3.52703 11.2662 3.43632 11.308C3.34562 11.3498 3.26417 11.4092 3.19675 11.4829C3.12933 11.5566 3.07729 11.6429 3.0437 11.737C3.01011 11.831 2.99564 11.9308 3.00114 12.0305C3.00663 12.1302 3.03198 12.2278 3.0757 12.3176C3.11942 12.4074 3.18062 12.4875 3.25573 12.5533L4.8776 14.0533C5.01583 14.1799 5.19643 14.2502 5.38385 14.2502C5.57417 14.2507 5.7579 14.1805 5.89948 14.0533L9.14323 11.0533C9.21833 10.9875 9.27954 10.9074 9.32326 10.8176C9.36698 10.7278 9.39233 10.6302 9.39782 10.5305C9.40332 10.4308 9.38884 10.331 9.35525 10.237C9.32166 10.1429 9.26963 10.0566 9.20221 9.98289C9.13479 9.90923 9.05334 9.84977 8.96264 9.80801C8.87193 9.76624 8.7738 9.74301 8.674 9.73968C8.57419 9.73634 8.47473 9.75297 8.38144 9.78859C8.28815 9.82421 8.20291 9.8781 8.13073 9.9471ZM20.262 11.2502H12.012C11.8131 11.2502 11.6223 11.3292 11.4816 11.4699C11.341 11.6105 11.262 11.8013 11.262 12.0002C11.262 12.1991 11.341 12.3899 11.4816 12.5306C11.6223 12.6712 11.8131 12.7502 12.012 12.7502H20.262C20.4609 12.7502 20.6517 12.6712 20.7923 12.5306C20.933 12.3899 21.012 12.1991 21.012 12.0002C21.012 11.8013 20.933 11.6105 20.7923 11.4699C20.6517 11.3292 20.4609 11.2502 20.262 11.2502ZM20.262 17.2502H12.012C11.8131 17.2502 11.6223 17.3292 11.4816 17.4699C11.341 17.6105 11.262 17.8013 11.262 18.0002C11.262 18.1991 11.341 18.3899 11.4816 18.5306C11.6223 18.6712 11.8131 18.7502 12.012 18.7502H20.262C20.4609 18.7502 20.6517 18.6712 20.7923 18.5306C20.933 18.3899 21.012 18.1991 21.012 18.0002C21.012 17.8013 20.933 17.6105 20.7923 17.4699C20.6517 17.3292 20.4609 17.2502 20.262 17.2502ZM8.13073 3.9471L5.38385 6.47835L4.26823 5.4471C4.12074 5.31786 3.9285 5.25153 3.73269 5.26232C3.53689 5.27311 3.3531 5.36016 3.2207 5.50482C3.0883 5.64947 3.01783 5.84023 3.02437 6.03622C3.03092 6.23221 3.11397 6.41785 3.25573 6.55335L4.8776 8.05335C5.01583 8.17992 5.19643 8.25016 5.38385 8.25022C5.57417 8.25069 5.7579 8.18054 5.89948 8.05335L9.14323 5.05335C9.21833 4.98754 9.27954 4.90739 9.32326 4.81761C9.36698 4.72783 9.39233 4.63023 9.39782 4.53052C9.40332 4.43081 9.38884 4.33101 9.35525 4.23698C9.32166 4.14294 9.26963 4.05655 9.20221 3.98289C9.13479 3.90923 9.05334 3.84977 8.96264 3.808C8.87193 3.76624 8.7738 3.74301 8.674 3.73968C8.57419 3.73634 8.47473 3.75297 8.38144 3.78859C8.28815 3.82421 8.20291 3.8781 8.13073 3.9471Z" fill="white"/>
</svg>
