<svg width="163" height="168" viewBox="0 0 163 168" fill="none" xmlns="http://www.w3.org/2000/svg">
<path fill-rule="evenodd" clip-rule="evenodd" d="M130.151 48.7526L120.682 26.6588C120.439 26.0909 120.034 25.6069 119.519 25.2669C119.003 24.9269 118.399 24.7458 117.781 24.7461H108.312V18.4336C108.312 17.5965 107.98 16.7937 107.388 16.2018C106.796 15.6099 105.993 15.2773 105.156 15.2773H54.656V15.3083H35.7185C33.9926 15.3083 32.5935 16.7074 32.5935 18.4333C32.5935 20.1591 33.9926 21.5583 35.7185 21.5583H54.656V21.5899H102V61.2199C100.562 62.055 99.3031 63.1666 98.2966 64.4905C97.2901 65.8145 96.5556 67.3246 96.1356 68.9338H76.3017C75.5335 65.9585 73.7065 63.3655 71.1633 61.6409C68.62 59.9163 65.5351 59.1784 62.4867 59.5656C59.4384 59.9528 56.6359 61.4385 54.6045 63.7441C52.5732 66.0498 51.4525 69.0172 51.4525 72.09C51.4525 75.1629 52.5732 78.1302 54.6045 80.4359C56.6359 82.7416 59.4384 84.2272 62.4867 84.6144C65.5351 85.0016 68.62 84.2638 71.1633 82.5392C73.7065 80.8145 75.5335 78.2216 76.3017 75.2463H96.1356C96.8222 77.9551 98.3924 80.3577 100.598 82.0738C102.803 83.79 105.518 84.7218 108.312 84.7218C111.107 84.7218 113.822 83.79 116.027 82.0738C118.232 80.3577 119.803 77.9551 120.489 75.2463H127.25C128.087 75.2463 128.89 74.9138 129.482 74.3218C130.074 73.7299 130.406 72.9271 130.406 72.09V49.9962C130.406 49.5686 130.319 49.1455 130.151 48.7526ZM64.1248 78.4025C62.8763 78.4025 61.6559 78.0323 60.6178 77.3387C59.5797 76.6451 58.7706 75.6592 58.2928 74.5057C57.815 73.3523 57.69 72.083 57.9336 70.8585C58.1772 69.634 58.7784 68.5092 59.6612 67.6264C60.544 66.7436 61.6688 66.1424 62.8933 65.8988C64.1178 65.6552 65.3871 65.7802 66.5405 66.258C67.694 66.7358 68.6799 67.5449 69.3735 68.583C70.0671 69.6211 70.4373 70.8415 70.4373 72.09C70.4357 73.7637 69.7701 75.3684 68.5866 76.5518C67.4031 77.7353 65.7985 78.4009 64.1248 78.4025ZM108.312 31.0586H115.698L122.465 46.8399H108.312V31.0586ZM108.312 78.4025C107.064 78.4025 105.844 78.0323 104.805 77.3387C103.767 76.6451 102.958 75.6592 102.48 74.5057C102.003 73.3523 101.878 72.083 102.121 70.8585C102.365 69.634 102.966 68.5092 103.849 67.6264C104.732 66.7436 105.856 66.1424 107.081 65.8988C108.305 65.6552 109.575 65.7802 110.728 66.258C111.882 66.7358 112.868 67.5449 113.561 68.583C114.255 69.6211 114.625 70.8415 114.625 72.09C114.623 73.7637 113.958 75.3684 112.774 76.5518C111.591 77.7353 109.986 78.4009 108.312 78.4025ZM124.094 68.9338H120.489C119.794 66.2302 118.221 63.8338 116.018 62.1202C113.814 60.4066 111.104 59.4728 108.312 59.465V53.1525H124.094V68.9338Z" fill="#919BA5"/>
<path d="M43.8158 49.6449C43.8158 47.919 45.2149 46.5199 46.9408 46.5199H77.802C79.5279 46.5199 80.927 47.919 80.927 49.6449C80.927 51.3708 79.5279 52.7699 77.802 52.7699H46.9408C45.2149 52.7699 43.8158 51.3708 43.8158 49.6449Z" fill="#919BA5"/>
<path d="M35.7185 30.9138C33.9926 30.9138 32.5935 32.3129 32.5935 34.0388C32.5935 35.7646 33.9926 37.1638 35.7185 37.1638H69.3853C71.1112 37.1638 72.5103 35.7646 72.5103 34.0388C72.5103 32.3129 71.1112 30.9138 69.3853 30.9138H35.7185Z" fill="#919BA5"/>
<path d="M9.53593 111.436C5.33574 111.436 2.18828 113.562 2.18828 116.785C2.18828 119.729 4.66972 121.705 8.16093 122.103V125.443H0.619919V127.699H18.5164V125.443H10.8895V122.103C14.4021 121.716 16.8943 119.739 16.9051 116.785C16.8943 113.562 13.7361 111.436 9.53593 111.436ZM4.89531 116.785C4.89531 114.83 6.79668 113.616 9.53593 113.627C12.2859 113.616 14.1873 114.83 14.198 116.785C14.1873 118.848 12.2859 119.997 9.53593 120.008C6.79668 119.997 4.89531 118.848 4.89531 116.785ZM35.0061 114.379H24.135V110.662H21.4065V116.549H35.0061V114.379ZM19.1721 120.029H37.0686V117.859H19.1721V120.029ZM21.2131 123.316H32.1916V124.434H21.2561V129.762H35.5217V127.656H24.0061V126.41H34.9202V121.211H21.2131V123.316ZM45.5343 112.166H42.9562V125.336H50.7335V112.166H48.1984V116.57H45.5343V112.166ZM45.5343 123.145V118.719H48.1984V123.145H45.5343ZM52.3663 129.074H54.9659V120.115H56.7277V129.977H59.3487V110.426H56.7277V117.881H54.9659V110.705H52.3663V129.074ZM71.2193 117.344H68.5123V119.75H60.9712V121.941H78.8033V119.75H71.2193V117.344ZM61.8951 116.377L62.8619 118.504C66.1597 118.021 68.5875 116.613 69.8336 114.669C71.0689 116.624 73.4966 118.01 76.8052 118.504L77.858 116.377C73.4429 115.829 71.2515 113.681 71.2623 111.393V110.748H68.4693V111.393C68.4586 113.595 66.2134 115.829 61.8951 116.377ZM63.0123 126.518C63.0123 128.741 65.5796 129.987 69.8658 129.977C74.1197 129.987 76.6548 128.741 76.6763 126.518C76.6548 124.294 74.1197 123.026 69.8658 123.016C65.5796 123.026 63.0123 124.294 63.0123 126.518ZM65.8052 126.518C65.7945 125.54 67.1265 125.11 69.8658 125.1C72.5406 125.11 73.9156 125.54 73.9263 126.518C73.9156 127.474 72.5406 127.936 69.8658 127.936C67.1265 127.936 65.7945 127.474 65.8052 126.518ZM102.072 125.443H98.0971V120.599C99.5688 119.686 100.45 118.321 100.46 116.635C100.45 113.466 97.3237 111.382 93.0912 111.371C88.8373 111.382 85.7436 113.466 85.7436 116.635C85.7436 118.354 86.6567 119.739 88.1713 120.652V125.443H84.1752V127.699H102.072V125.443ZM88.4506 116.635C88.4506 114.669 90.2875 113.53 93.0912 113.541C95.852 113.53 97.7426 114.669 97.7534 116.635C97.7426 118.547 95.852 119.729 93.0912 119.729C90.2875 119.729 88.4506 118.547 88.4506 116.635ZM90.8784 125.443V121.651C91.5659 121.78 92.3071 121.855 93.0912 121.855C93.8754 121.855 94.6274 121.78 95.3256 121.641V125.443H90.8784ZM113.899 112.467H109.989V110.34H107.218V112.467H103.286V114.615H107.218C107.196 116.828 105.746 119.062 102.62 119.965L103.909 122.092C106.219 121.426 107.787 119.997 108.636 118.192C109.527 119.782 111.085 121.018 113.319 121.576L114.587 119.471C111.439 118.665 109.978 116.624 109.946 114.615H113.899V112.467ZM105.821 126.238C105.821 128.612 108.399 129.987 112.546 129.977C116.714 129.987 119.281 128.612 119.292 126.238C119.281 123.896 116.714 122.575 112.546 122.564C108.399 122.575 105.821 123.896 105.821 126.238ZM108.55 126.238C108.55 125.196 109.957 124.67 112.546 124.67C115.188 124.67 116.553 125.196 116.563 126.238C116.553 127.312 115.188 127.893 112.546 127.893C109.957 127.893 108.55 127.312 108.55 126.238ZM113.319 117.859H116.499V122.242H119.227V110.426H116.499V115.668H113.319V117.859ZM141.465 110.426H138.715V121.834H141.465V117.129H144.107V114.873H141.465V110.426ZM126.533 120.867H136.008V111.564H133.258V114.057H129.261V111.564H126.533V120.867ZM128.681 129.719H141.937V127.57H131.41V124.885H141.572V122.715H128.681V129.719ZM129.261 118.719V116.184H133.258V118.719H129.261ZM162.359 120.416H144.527V122.607H162.359V120.416ZM146.31 115.023C146.31 117.526 149.135 119.062 153.443 119.062C157.718 119.062 160.543 117.526 160.554 115.023C160.543 112.531 157.718 111.006 153.443 111.027C149.135 111.006 146.31 112.531 146.31 115.023ZM146.675 129.633H160.339V127.441H149.425V123.918H146.675V129.633ZM149.167 115.023C149.146 113.842 150.725 113.197 153.443 113.176C156.139 113.197 157.718 113.842 157.718 115.023C157.718 116.237 156.139 116.85 153.443 116.85C150.725 116.85 149.146 116.237 149.167 115.023ZM26.8472 150.182H9.01516V152.352H16.5347V153.598H11.0777V155.66H21.9702V156.67H11.0991V161.848H25.1929V159.785H13.7847V158.604H24.6773V153.598H19.2847V152.352H26.8472V150.182ZM11.2281 149.15H24.5913V142.984H11.2281V149.15ZM13.9136 147.045V145.111H21.8628V147.045H13.9136ZM45.7431 145.047H43.1005V142.447H40.3505V154.242H43.1005V151.449H45.7431V149.193H43.1005V147.324H45.7431V145.047ZM28.2763 145.756H34.5927V147.367H28.2978V153.383H29.9521C33.916 153.383 36.4297 153.286 39.2334 152.76L38.9326 150.568C36.4404 151.009 34.249 151.127 31.0263 151.148V149.43H37.2568V143.607H28.2763V145.756ZM29.9521 158.303C29.9521 160.612 32.5195 161.955 36.6552 161.955C40.7158 161.955 43.2832 160.612 43.2939 158.303C43.2832 155.95 40.7158 154.543 36.6552 154.543C32.5195 154.543 29.9521 155.95 29.9521 158.303ZM32.6591 158.303C32.6377 157.218 34.0449 156.659 36.6552 156.67C39.2334 156.659 40.5869 157.218 40.5869 158.303C40.5869 159.366 39.2334 159.914 36.6552 159.914C34.0449 159.914 32.6377 159.366 32.6591 158.303ZM62.5336 142.426H59.7621V162.02H62.5336V142.426ZM46.7426 150.762C46.7318 155.059 48.9125 157.744 51.9203 157.744C54.8637 157.744 57.0551 155.059 57.0551 150.762C57.0551 146.497 54.8637 143.801 51.9203 143.801C48.9125 143.801 46.7318 146.497 46.7426 150.762ZM49.3852 150.762C49.3744 147.861 50.3949 146.271 51.9203 146.271C53.4027 146.271 54.4018 147.861 54.4125 150.762C54.4018 153.673 53.4027 155.263 51.9203 155.252C50.3949 155.263 49.3744 153.673 49.3852 150.762ZM74.0716 153.855H71.5364V161.762H78.7122V160.247L79.8294 161.934C81.4192 161.321 82.4934 160.193 83.138 158.829C83.761 160.236 84.846 161.354 86.5325 161.934L87.9505 159.893C85.5013 159.098 84.5452 157.207 84.5559 155.209V153.705H81.8059V155.209C81.8059 156.981 80.8821 158.808 78.7122 159.796V153.855H76.177V155.811H74.0716V153.855ZM69.6243 147.754C69.6028 150.482 71.8157 152.395 74.8235 152.395C77.3157 152.395 79.3138 150.987 79.8401 148.871H83.1165V152.781H85.845V142.426H83.1165V146.615H79.8294C79.2923 144.542 77.305 143.167 74.8235 143.156C71.8157 143.167 69.6028 145.068 69.6243 147.754ZM72.2239 147.754C72.2132 146.314 73.2874 145.423 74.8235 145.412C76.3059 145.423 77.3694 146.314 77.3802 147.754C77.3694 149.236 76.3059 150.149 74.8235 150.16C73.2874 150.149 72.2132 149.236 72.2239 147.754ZM74.0716 159.678V157.83H76.177V159.678H74.0716ZM92.7312 154.156H90.0241V161.762H103.516V154.156H100.788V155.811H92.7312V154.156ZM87.9402 153.168H105.772V150.955H87.9402V153.168ZM88.821 147.947L89.8093 150.096C93.1394 149.666 95.5886 148.27 96.8562 146.379C98.113 148.27 100.562 149.666 103.925 150.096L104.891 147.947C100.519 147.453 98.2741 145.24 98.2741 143.285V142.619H95.4597V143.285C95.4382 145.294 93.1824 147.421 88.821 147.947ZM92.7312 159.613V157.895H100.788V159.613H92.7312ZM122.949 142.426H120.221V161.977H122.949V142.426ZM107.567 157.143H109.285C112.304 157.153 115.548 156.938 118.975 156.219L118.631 153.963C115.752 154.521 112.916 154.769 110.274 154.812V144.295H107.567V157.143ZM140.513 142.426H137.763V162.02H140.513V151.922H143.392V149.688H140.513V142.426ZM125.861 157.271H127.515C130.963 157.282 133.628 157.207 136.668 156.691L136.367 154.393C133.767 154.844 131.425 154.994 128.589 155.016V146.443H135.035V144.23H125.861V157.271ZM146.196 160.193C147.152 160.193 147.98 159.388 147.98 158.389C147.98 157.4 147.152 156.595 146.196 156.605C145.187 156.595 144.37 157.4 144.392 158.389C144.37 159.388 145.187 160.193 146.196 160.193Z" fill="#919BA5"/>
</svg>
