<svg width="18" height="18" viewBox="0 0 18 18" fill="none" xmlns="http://www.w3.org/2000/svg">
<path d="M9 4.425C9.20683 4.425 9.41164 4.46574 9.60273 4.54489C9.79381 4.62404 9.96744 4.74005 10.1137 4.88631C10.2599 5.03256 10.376 5.20619 10.4551 5.39727C10.5343 5.58836 10.575 5.79317 10.575 6C10.575 6.20683 10.5343 6.41164 10.4551 6.60273C10.376 6.79381 10.2599 6.96744 10.1137 7.11369C9.96744 7.25995 9.79381 7.37596 9.60273 7.45511C9.41164 7.53426 9.20683 7.575 9 7.575C8.58228 7.575 8.18168 7.40906 7.88631 7.11369C7.59094 6.81832 7.425 6.41772 7.425 6C7.425 5.58228 7.59094 5.18168 7.88631 4.88631C8.18168 4.59094 8.58228 4.425 9 4.425M9 11.175C11.2275 11.175 13.575 12.27 13.575 12.75V13.575H4.425V12.75C4.425 12.27 6.7725 11.175 9 11.175M9 3C7.3425 3 6 4.3425 6 6C6 7.6575 7.3425 9 9 9C10.6575 9 12 7.6575 12 6C12 4.3425 10.6575 3 9 3ZM9 9.75C6.9975 9.75 3 10.755 3 12.75V15H15V12.75C15 10.755 11.0025 9.75 9 9.75Z" fill="#262626"/>
</svg>
