<svg width="18" height="18" viewBox="0 0 18 18" fill="none" xmlns="http://www.w3.org/2000/svg">
<path d="M9.00001 6C9.79566 6 10.5587 6.31607 11.1213 6.87868C11.6839 7.44129 12 8.20435 12 9C12 9.79565 11.6839 10.5587 11.1213 11.1213C10.5587 11.6839 9.79566 12 9.00001 12C8.20436 12 7.4413 11.6839 6.87869 11.1213C6.31608 10.5587 6.00001 9.79565 6.00001 9C6.00001 8.20435 6.31608 7.44129 6.87869 6.87868C7.4413 6.31607 8.20436 6 9.00001 6ZM9.00001 7.5C8.60219 7.5 8.22066 7.65804 7.93935 7.93934C7.65805 8.22064 7.50001 8.60218 7.50001 9C7.50001 9.39782 7.65805 9.77936 7.93935 10.0607C8.22066 10.342 8.60219 10.5 9.00001 10.5C9.39784 10.5 9.77937 10.342 10.0607 10.0607C10.342 9.77936 10.5 9.39782 10.5 9C10.5 8.60218 10.342 8.22064 10.0607 7.93934C9.77937 7.65804 9.39784 7.5 9.00001 7.5ZM7.50001 16.5C7.31251 16.5 7.15501 16.365 7.12501 16.185L6.84751 14.1975C6.37501 14.01 5.97001 13.755 5.58001 13.455L3.71251 14.2125C3.54751 14.2725 3.34501 14.2125 3.25501 14.0475L1.75501 11.4525C1.70911 11.3752 1.69293 11.2839 1.70949 11.1955C1.72605 11.1072 1.77423 11.0279 1.84501 10.9725L3.42751 9.7275L3.37501 9L3.42751 8.25L1.84501 7.0275C1.77423 6.9721 1.72605 6.89282 1.70949 6.80447C1.69293 6.71613 1.70911 6.62478 1.75501 6.5475L3.25501 3.9525C3.34501 3.7875 3.54751 3.72 3.71251 3.7875L5.58001 4.5375C5.97001 4.245 6.37501 3.99 6.84751 3.8025L7.12501 1.815C7.15501 1.635 7.31251 1.5 7.50001 1.5H10.5C10.6875 1.5 10.845 1.635 10.875 1.815L11.1525 3.8025C11.625 3.99 12.03 4.245 12.42 4.5375L14.2875 3.7875C14.4525 3.72 14.655 3.7875 14.745 3.9525L16.245 6.5475C16.3425 6.7125 16.2975 6.915 16.155 7.0275L14.5725 8.25L14.625 9L14.5725 9.75L16.155 10.9725C16.2975 11.085 16.3425 11.2875 16.245 11.4525L14.745 14.0475C14.655 14.2125 14.4525 14.28 14.2875 14.2125L12.42 13.4625C12.03 13.755 11.625 14.01 11.1525 14.1975L10.875 16.185C10.845 16.365 10.6875 16.5 10.5 16.5H7.50001ZM8.43751 3L8.16001 4.9575C7.26001 5.145 6.46501 5.625 5.88751 6.2925L4.08001 5.5125L3.51751 6.4875L5.10001 7.65C4.80001 8.525 4.80001 9.475 5.10001 10.35L3.51001 11.52L4.07251 12.495L5.89501 11.715C6.47251 12.375 7.26001 12.855 8.15251 13.035L8.43001 15H9.57001L9.84751 13.0425C10.74 12.855 11.5275 12.375 12.105 11.715L13.9275 12.495L14.49 11.52L12.9 10.3575C13.2 9.48 13.2 8.5275 12.9 7.65L14.4825 6.4875L13.92 5.5125L12.1125 6.2925C11.5232 5.61024 10.7238 5.14326 9.84001 4.965L9.56251 3H8.43751Z" fill="#262626"/>
</svg>
