<svg width="37" height="36" viewBox="0 0 37 36" fill="none" xmlns="http://www.w3.org/2000/svg">
<g clip-path="url(#clip0_553_35170)">
<path fill-rule="evenodd" clip-rule="evenodd" d="M36.0142 17.5511L32.6055 9.59733C32.518 9.39289 32.3724 9.21866 32.1868 9.09624C32.0011 8.97383 31.7836 8.90864 31.5613 8.90876H28.1525V6.63625C28.1525 6.3349 28.0328 6.04589 27.8197 5.8328C27.6066 5.61971 27.3176 5.5 27.0163 5.5H8.83619V5.51113H8.07869H2.01868C1.39736 5.51113 0.893677 6.01481 0.893677 6.63613C0.893677 7.25745 1.39736 7.76113 2.01868 7.76113H8.07869H8.83619V7.77251H25.88V22.0393C25.3622 22.34 24.9091 22.7401 24.5468 23.2167C24.1844 23.6934 23.92 24.237 23.7688 24.8163H16.6286C16.3521 23.7452 15.6944 22.8117 14.7788 22.1909C13.8632 21.57 12.7526 21.3044 11.6552 21.4438C10.5578 21.5832 9.54892 22.118 8.81764 22.948C8.08636 23.7781 7.68291 24.8463 7.68291 25.9526C7.68291 27.0588 8.08636 28.127 8.81764 28.9571C9.54892 29.7871 10.5578 30.322 11.6552 30.4614C12.7526 30.6007 13.8632 30.3351 14.7788 29.7143C15.6944 29.0934 16.3521 28.1599 16.6286 27.0888H23.7688C24.016 28.064 24.5813 28.9289 25.3752 29.5467C26.1692 30.1646 27.1465 30.5 28.1525 30.5C29.1585 30.5 30.1358 30.1646 30.9298 29.5467C31.7237 28.9289 32.289 28.064 32.5362 27.0888H34.97C35.2714 27.0888 35.5604 26.9691 35.7735 26.756C35.9866 26.5429 36.1063 26.2539 36.1063 25.9526V17.9988C36.1063 17.8449 36.075 17.6925 36.0142 17.5511ZM12.245 28.2251C11.7955 28.2251 11.3561 28.0918 10.9824 27.8421C10.6087 27.5924 10.3174 27.2375 10.1454 26.8222C9.97343 26.407 9.92842 25.95 10.0161 25.5092C10.1038 25.0684 10.3202 24.6635 10.638 24.3457C10.9559 24.0278 11.3608 23.8114 11.8016 23.7237C12.2424 23.636 12.6994 23.681 13.1146 23.853C13.5298 24.025 13.8848 24.3163 14.1345 24.69C14.3842 25.0637 14.5175 25.5031 14.5175 25.9526C14.5169 26.5551 14.2772 27.1328 13.8512 27.5588C13.4251 27.9849 12.8475 28.2245 12.245 28.2251ZM28.1525 11.1813H30.8113L33.2475 16.8625H28.1525V11.1813ZM28.1525 28.2251C27.703 28.2251 27.2637 28.0918 26.89 27.8421C26.5163 27.5924 26.225 27.2375 26.053 26.8222C25.881 26.407 25.836 25.95 25.9237 25.5092C26.0113 25.0684 26.2278 24.6635 26.5456 24.3457C26.8634 24.0278 27.2683 23.8114 27.7092 23.7237C28.15 23.636 28.6069 23.681 29.0222 23.853C29.4374 24.025 29.7923 24.3163 30.042 24.69C30.2917 25.0637 30.425 25.5031 30.425 25.9526C30.4244 26.5551 30.1848 27.1328 29.7587 27.5588C29.3327 27.9849 28.755 28.2245 28.1525 28.2251ZM33.8338 24.8163H32.5362C32.2859 23.843 31.7197 22.9803 30.9264 22.3634C30.133 21.7465 29.1574 21.4103 28.1525 21.4076V19.135H33.8338V24.8163ZM4.9337 17.8723C4.9337 17.251 5.43738 16.7473 6.0587 16.7473H17.1687C17.7901 16.7473 18.2937 17.251 18.2937 17.8723C18.2937 18.4937 17.7901 18.9973 17.1687 18.9973H6.0587C5.43738 18.9973 4.9337 18.4937 4.9337 17.8723ZM2.01868 11.1291C1.39736 11.1291 0.893677 11.6328 0.893677 12.2541C0.893677 12.8754 1.39736 13.3791 2.01868 13.3791H14.1387C14.76 13.3791 15.2637 12.8754 15.2637 12.2541C15.2637 11.6328 14.76 11.1291 14.1387 11.1291H2.01868Z" fill="#262626"/>
</g>
<defs>
<clipPath id="clip0_553_35170">
<rect width="36" height="36" fill="white" transform="translate(0.5)"/>
</clipPath>
</defs>
</svg>
