<svg width="125" height="54" viewBox="0 0 125 54" fill="none" xmlns="http://www.w3.org/2000/svg">
<path d="M51.25 30.75V13.875L62.5 5.4375L73.75 13.875V30.75H65.3875V20.7H59.6125V30.75H51.25ZM53.5 28.5H57.3625V18.45H67.6375V28.5H71.5V15L62.5 8.25L53.5 15V28.5Z" fill="#AAB4BE"/>
<path d="M66.1035 46.832H58.8496V49.8672H66.1035V46.832ZM57.7012 46.1172H67.2754V45.2383H63.0449V44.5234C64.9082 44.4473 65.9336 43.9492 65.9277 43.0469C65.9336 42.0684 64.6973 41.5645 62.4824 41.5586C60.2793 41.5645 59.0312 42.0684 59.0371 43.0469C59.0312 43.9492 60.0742 44.4473 61.9316 44.5234V45.2383H57.7012V46.1172ZM58.1934 41.1836H66.7363V40.3281H63.0449V39.3555H61.9316V40.3281H58.1934V41.1836ZM59.9512 49.0117V47.6875H65.0254V49.0117H59.9512ZM60.2207 43.0469C60.2148 42.5664 61.0176 42.332 62.4824 42.3203C63.959 42.332 64.7441 42.5664 64.7441 43.0469C64.7441 43.5215 63.959 43.7734 62.4824 43.7734C61.0176 43.7734 60.2148 43.5215 60.2207 43.0469Z" fill="#AAB4BE"/>
</svg>
