<svg width="16" height="17" viewBox="0 0 16 17" fill="none" xmlns="http://www.w3.org/2000/svg">
<path d="M7.99996 4.4999V5.69323C7.99996 5.99323 8.35996 6.1399 8.56663 5.92656L10.4266 4.06656C10.56 3.93323 10.56 3.72656 10.4266 3.59323L8.56663 1.73323C8.51963 1.68716 8.46005 1.65604 8.39539 1.64378C8.33073 1.63151 8.26389 1.63867 8.20329 1.66433C8.14269 1.69 8.09104 1.73303 8.05486 1.788C8.01867 1.84297 7.99957 1.90742 7.99996 1.97323V3.16656C5.05329 3.16656 2.66663 5.55323 2.66663 8.4999C2.66663 9.19323 2.79996 9.8599 3.04663 10.4666C3.22663 10.9132 3.79996 11.0332 4.13996 10.6932C4.31996 10.5132 4.39329 10.2399 4.29329 9.9999C4.09996 9.5399 3.99996 9.02656 3.99996 8.4999C3.99996 6.29323 5.79329 4.4999 7.99996 4.4999ZM11.86 6.30656C11.68 6.48656 11.6066 6.76656 11.7066 6.9999C11.8933 7.46656 12 7.97323 12 8.4999C12 10.7066 10.2066 12.4999 7.99996 12.4999V11.3066C7.99996 11.0066 7.63996 10.8599 7.43329 11.0732L5.57329 12.9332C5.43996 13.0666 5.43996 13.2732 5.57329 13.4066L7.43329 15.2666C7.47988 15.3122 7.53886 15.3432 7.6029 15.3557C7.66694 15.3682 7.73324 15.3616 7.79357 15.3368C7.85391 15.3119 7.90563 15.2699 7.94231 15.216C7.979 15.162 7.99904 15.0985 7.99996 15.0332V13.8332C10.9466 13.8332 13.3333 11.4466 13.3333 8.4999C13.3333 7.80656 13.2 7.1399 12.9533 6.53323C12.7733 6.08656 12.2 5.96656 11.86 6.30656Z" fill="#262626"/>
</svg>
