<svg width="40" height="40" viewBox="0 0 40 40" fill="none" xmlns="http://www.w3.org/2000/svg">
<path d="M21.5529 4.20992C19.933 3.56186 18.1258 3.56186 16.5059 4.20992L5.33053 8.68433C4.79071 8.90022 4.32787 9.27277 4.00163 9.754C3.67539 10.2352 3.50068 10.8031 3.5 11.3845V26.2267C3.4999 26.8088 3.67425 27.3775 4.00054 27.8595C4.32683 28.3415 4.79009 28.7147 5.33053 28.9308L16.5059 33.4013C17.3545 33.7411 18.263 33.9062 19.1769 33.8866C18.7044 33.2485 18.3047 32.5597 17.9851 31.8329C17.7268 31.7761 17.4736 31.6981 17.228 31.5999L6.05071 27.1294C5.87048 27.0572 5.71605 26.9325 5.60739 26.7716C5.49873 26.6107 5.44083 26.4209 5.44118 26.2267V11.5049L18.0588 16.5519V23.0879C18.5453 22.031 19.201 21.0606 20 20.2149V16.55L32.6176 11.5029V18.0272C33.3126 18.3824 33.9629 18.8114 34.5588 19.3045V11.3845C34.5589 10.8025 34.3846 10.2337 34.0583 9.75173C33.732 9.26973 33.2687 8.89658 32.7283 8.68045L21.5529 4.20992ZM17.228 6.01521C18.385 5.55239 19.6757 5.55239 20.8328 6.01521L30.9754 10.0723L26.5515 11.8387L14.6055 7.06345L17.2261 6.01521H17.228ZM11.9926 8.10586L23.9386 12.8831L19.0294 14.8495L7.08341 10.0703L11.9926 8.1078V8.10586ZM27.7647 36.2762C30.0814 36.2762 32.3033 35.3559 33.9415 33.7177C35.5797 32.0795 36.5 29.8577 36.5 27.5409C36.5 25.2242 35.5797 23.0023 33.9415 21.3641C32.3033 19.7259 30.0814 18.8056 27.7647 18.8056C25.448 18.8056 23.2261 19.7259 21.5879 21.3641C19.9497 23.0023 19.0294 25.2242 19.0294 27.5409C19.0294 29.8577 19.9497 32.0795 21.5879 33.7177C23.2261 35.3559 25.448 36.2762 27.7647 36.2762ZM25.8235 29.0803L30.9599 23.9439C31.1419 23.7617 31.3888 23.6592 31.6464 23.659C31.7739 23.6589 31.9002 23.6839 32.0181 23.7327C32.1359 23.7814 32.243 23.8528 32.3333 23.9429C32.4235 24.0331 32.4951 24.1401 32.544 24.2579C32.5929 24.3756 32.6181 24.5019 32.6182 24.6294C32.6183 24.757 32.5932 24.8833 32.5445 25.0011C32.4958 25.119 32.4243 25.2261 32.3342 25.3163L26.5107 31.1399C26.4205 31.2302 26.3134 31.302 26.1955 31.3509C26.0776 31.3998 25.9512 31.425 25.8235 31.425C25.6959 31.425 25.5695 31.3998 25.4515 31.3509C25.3336 31.302 25.2265 31.2302 25.1364 31.1399L23.1952 29.1987C23.0132 29.0164 22.911 28.7693 22.9112 28.5118C22.9114 28.2542 23.0139 28.0073 23.1961 27.8253C23.3784 27.6433 23.6255 27.5412 23.883 27.5413C24.1406 27.5415 24.3875 27.644 24.5695 27.8263L25.8235 29.0803Z" fill="#262626"/>
</svg>
