<svg width="125" height="20" viewBox="0 0 125 20" fill="none" xmlns="http://www.w3.org/2000/svg">
<g clip-path="url(#clip0_121050_1393)">
<path d="M12.8181 16.4722V19.519H3.27384V16.4722H12.8181ZM4.53686 0.56071V19.519H0.630615V0.56071H4.53686ZM23.0265 3.8029L17.8702 19.519H13.7166L20.7608 0.56071H23.404L23.0265 3.8029ZM27.3103 19.519L22.141 3.8029L21.7244 0.56071H24.3937L31.477 19.519H27.3103ZM27.0759 12.4618V15.5217H17.0629V12.4618H27.0759ZM43.1046 14.5581C43.1046 14.2196 43.0525 13.9158 42.9483 13.6467C42.8528 13.3689 42.6706 13.1171 42.4015 12.8914C42.1324 12.657 41.7547 12.427 41.2687 12.2013C40.7825 11.9756 40.1532 11.7413 39.3806 11.4982C38.5212 11.2204 37.7053 10.908 36.9327 10.5607C36.1688 10.2135 35.4917 9.80986 34.9015 9.34976C34.3198 8.881 33.8598 8.33848 33.5212 7.72219C33.1914 7.10586 33.0265 6.38971 33.0265 5.57371C33.0265 4.78381 33.2001 4.06765 33.5473 3.4253C33.8945 2.77425 34.3806 2.2187 35.0056 1.75863C35.6306 1.28988 36.3685 0.929633 37.2192 0.677895C38.0785 0.426161 39.0204 0.300293 40.0447 0.300293C41.4422 0.300293 42.6618 0.552029 43.7035 1.0555C44.7452 1.55897 45.5525 2.24908 46.1254 3.12581C46.707 4.00255 46.9978 5.00514 46.9978 6.13362H43.1176C43.1176 5.57805 43.0004 5.09195 42.766 4.6753C42.5403 4.24995 42.1931 3.91574 41.7244 3.67269C41.2643 3.42963 40.6827 3.3081 39.9796 3.3081C39.3025 3.3081 38.7383 3.41227 38.2868 3.6206C37.8355 3.82026 37.4969 4.0937 37.2712 4.44092C37.0456 4.77948 36.9327 5.16138 36.9327 5.58676C36.9327 5.90795 37.0108 6.19871 37.1671 6.45914C37.332 6.71957 37.5751 6.96262 37.8962 7.18833C38.2174 7.414 38.6124 7.62667 39.0811 7.82633C39.5499 8.026 40.0924 8.22129 40.7087 8.41229C41.7417 8.72476 42.6488 9.07633 43.4301 9.46695C44.22 9.85757 44.8797 10.296 45.4093 10.782C45.9388 11.2682 46.3381 11.8194 46.6072 12.4357C46.8763 13.052 47.0108 13.7508 47.0108 14.532C47.0108 15.3567 46.8502 16.0946 46.529 16.7456C46.2079 17.3967 45.7435 17.9479 45.1358 18.3992C44.5282 18.8506 43.8034 19.1935 42.9614 19.4279C42.1193 19.6623 41.1775 19.7795 40.1358 19.7795C39.1983 19.7795 38.2738 19.658 37.3624 19.4149C36.4509 19.1631 35.6219 18.7855 34.8754 18.282C34.1376 17.7786 33.5473 17.1362 33.1046 16.355C32.6618 15.5737 32.4405 14.6492 32.4405 13.5815H36.3598C36.3598 14.1718 36.4509 14.671 36.6332 15.079C36.8155 15.4869 37.0716 15.8168 37.4015 16.0685C37.74 16.3202 38.1393 16.5026 38.5994 16.6154C39.0681 16.7282 39.5803 16.7847 40.1358 16.7847C40.8129 16.7847 41.3685 16.6892 41.8025 16.4982C42.2452 16.3072 42.5707 16.0425 42.779 15.704C42.9961 15.3654 43.1046 14.9835 43.1046 14.5581ZM58.1438 0.56071V19.519H54.2505V0.56071H58.1438ZM63.9772 0.56071V3.6206H48.5081V0.56071H63.9772Z" fill="#1FADFF"/>
<path d="M12.8181 16.4722V19.519H3.27384V16.4722H12.8181ZM4.53686 0.56071V19.519H0.630615V0.56071H4.53686ZM23.0265 3.8029L17.8702 19.519H13.7166L20.7608 0.56071H23.404L23.0265 3.8029ZM27.3103 19.519L22.141 3.8029L21.7244 0.56071H24.3937L31.477 19.519H27.3103ZM27.0759 12.4618V15.5217H17.0629V12.4618H27.0759ZM43.1046 14.5581C43.1046 14.2196 43.0525 13.9158 42.9483 13.6467C42.8528 13.3689 42.6706 13.1171 42.4015 12.8914C42.1324 12.657 41.7547 12.427 41.2687 12.2013C40.7825 11.9756 40.1532 11.7413 39.3806 11.4982C38.5212 11.2204 37.7053 10.908 36.9327 10.5607C36.1688 10.2135 35.4917 9.80986 34.9015 9.34976C34.3198 8.881 33.8598 8.33848 33.5212 7.72219C33.1914 7.10586 33.0265 6.38971 33.0265 5.57371C33.0265 4.78381 33.2001 4.06765 33.5473 3.4253C33.8945 2.77425 34.3806 2.2187 35.0056 1.75863C35.6306 1.28988 36.3685 0.929633 37.2192 0.677895C38.0785 0.426161 39.0204 0.300293 40.0447 0.300293C41.4422 0.300293 42.6618 0.552029 43.7035 1.0555C44.7452 1.55897 45.5525 2.24908 46.1254 3.12581C46.707 4.00255 46.9978 5.00514 46.9978 6.13362H43.1176C43.1176 5.57805 43.0004 5.09195 42.766 4.6753C42.5403 4.24995 42.1931 3.91574 41.7244 3.67269C41.2643 3.42963 40.6827 3.3081 39.9796 3.3081C39.3025 3.3081 38.7383 3.41227 38.2868 3.6206C37.8355 3.82026 37.4969 4.0937 37.2712 4.44092C37.0456 4.77948 36.9327 5.16138 36.9327 5.58676C36.9327 5.90795 37.0108 6.19871 37.1671 6.45914C37.332 6.71957 37.5751 6.96262 37.8962 7.18833C38.2174 7.414 38.6124 7.62667 39.0811 7.82633C39.5499 8.026 40.0924 8.22129 40.7087 8.41229C41.7417 8.72476 42.6488 9.07633 43.4301 9.46695C44.22 9.85757 44.8797 10.296 45.4093 10.782C45.9388 11.2682 46.3381 11.8194 46.6072 12.4357C46.8763 13.052 47.0108 13.7508 47.0108 14.532C47.0108 15.3567 46.8502 16.0946 46.529 16.7456C46.2079 17.3967 45.7435 17.9479 45.1358 18.3992C44.5282 18.8506 43.8034 19.1935 42.9614 19.4279C42.1193 19.6623 41.1775 19.7795 40.1358 19.7795C39.1983 19.7795 38.2738 19.658 37.3624 19.4149C36.4509 19.1631 35.6219 18.7855 34.8754 18.282C34.1376 17.7786 33.5473 17.1362 33.1046 16.355C32.6618 15.5737 32.4405 14.6492 32.4405 13.5815H36.3598C36.3598 14.1718 36.4509 14.671 36.6332 15.079C36.8155 15.4869 37.0716 15.8168 37.4015 16.0685C37.74 16.3202 38.1393 16.5026 38.5994 16.6154C39.0681 16.7282 39.5803 16.7847 40.1358 16.7847C40.8129 16.7847 41.3685 16.6892 41.8025 16.4982C42.2452 16.3072 42.5707 16.0425 42.779 15.704C42.9961 15.3654 43.1046 14.9835 43.1046 14.5581ZM58.1438 0.56071V19.519H54.2505V0.56071H58.1438ZM63.9772 0.56071V3.6206H48.5081V0.56071H63.9772Z" fill="url(#paint0_linear_121050_1393)"/>
<path d="M67.9872 0.560791H71.2948L76.1643 14.4801L81.0343 0.560791H84.3415L77.4924 19.5191H74.8362L67.9872 0.560791ZM66.2034 0.560791H69.4977L70.0967 14.1285V19.5191H66.2034V0.560791ZM82.831 0.560791H86.1386V19.5191H82.2324V14.1285L82.831 0.560791ZM93.7167 0.560791V19.5191H89.8234V0.560791H93.7167ZM109.563 16.4723V19.5191H100.019V16.4723H109.563ZM101.281 0.560791V19.5191H97.3753V0.560791H101.281ZM124.524 16.4723V19.5191H114.433V16.4723H124.524ZM115.709 0.560791V19.5191H111.802V0.560791H115.709ZM123.209 8.28213V11.2509H114.433V8.28213H123.209ZM124.511 0.560791V3.62069H114.433V0.560791H124.511Z" fill="#A0DA11"/>
</g>
<defs>
<linearGradient id="paint0_linear_121050_1393" x1="-1.07139" y1="10.4714" x2="63.64" y2="10.4714" gradientUnits="userSpaceOnUse">
<stop stop-color="#0096EB"/>
<stop offset="0.479167" stop-color="#0096EB" stop-opacity="0"/>
</linearGradient>
<clipPath id="clip0_121050_1393">
<rect width="124.286" height="20" fill="white" transform="translate(0.357178)"/>
</clipPath>
</defs>
</svg>
