<svg width="18" height="18" viewBox="0 0 18 18" fill="none" xmlns="http://www.w3.org/2000/svg">
<path d="M15.9675 4.41765L8.4675 11.9177C8.39812 11.9872 8.3157 12.0423 8.22497 12.08C8.13424 12.1176 8.03698 12.137 7.93875 12.137C7.84052 12.137 7.74326 12.1176 7.65253 12.08C7.5618 12.0423 7.47939 11.9872 7.41 11.9177L5.2875 9.79515C5.21806 9.72572 5.16298 9.64328 5.1254 9.55256C5.08783 9.46184 5.06848 9.3646 5.06848 9.2664C5.06848 9.1682 5.08783 9.07097 5.1254 8.98024C5.16298 8.88952 5.21806 8.80709 5.2875 8.73765C5.35694 8.66822 5.43937 8.61314 5.53009 8.57556C5.62082 8.53798 5.71805 8.51864 5.81625 8.51864C5.91445 8.51864 6.01168 8.53798 6.10241 8.57556C6.19313 8.61314 6.27556 8.66822 6.345 8.73765L7.935 10.3277L14.9025 3.36015C14.9719 3.29062 15.0543 3.23546 15.145 3.19783C15.2358 3.16019 15.333 3.14082 15.4312 3.14082C15.5295 3.14082 15.6267 3.16019 15.7175 3.19783C15.8082 3.23546 15.8906 3.29062 15.96 3.36015C16.26 3.65265 16.26 4.12515 15.9675 4.41765ZM11.8275 2.05515C10.56 1.53765 9.12 1.35765 7.62 1.62765C4.5675 2.17515 2.13 4.63515 1.6125 7.68765C1.40717 8.85064 1.47913 10.0457 1.82253 11.1756C2.16593 12.3056 2.77108 13.3385 3.58881 14.1906C4.40653 15.0427 5.41376 15.6898 6.52863 16.0794C7.6435 16.4689 8.83455 16.59 10.005 16.4327C12.975 16.0502 15.465 13.8377 16.245 10.9502C16.545 9.84765 16.575 8.78265 16.4025 7.78515C16.305 7.18515 15.5625 6.95265 15.1275 7.38015C14.955 7.55265 14.88 7.80765 14.925 8.04765C15.09 9.04515 15.015 10.1102 14.535 11.2427C13.665 13.2752 11.775 14.7677 9.5775 14.9702C5.7525 15.3227 2.58 12.0827 3.0525 8.23515C3.375 5.58015 5.5125 3.42015 8.16 3.05265C9.4575 2.87265 10.6875 3.12015 11.7375 3.66015C11.9145 3.75265 12.1211 3.77103 12.3116 3.71125C12.5022 3.65147 12.6613 3.51843 12.7537 3.3414C12.8462 3.16437 12.8646 2.95785 12.8048 2.76726C12.7451 2.57668 12.612 2.41765 12.435 2.32515C12.2325 2.23515 12.03 2.13765 11.8275 2.05515Z" fill="#262626"/>
</svg>
