<svg width="225" height="199" viewBox="0 0 225 199" fill="none" xmlns="http://www.w3.org/2000/svg">
<g clip-path="url(#clip0_553_34433)">
<path d="M175.765 144.12C175.765 143.88 175.765 143.56 175.195 143.56H168.085V146.97C168.085 147.61 168.225 147.96 168.445 148.15C168.985 148.61 170.195 148.58 171.595 148.59C173.535 148.59 174.855 148.44 175.195 148.37C175.815 148.27 175.745 147.69 175.745 147.69V144.12H175.765ZM174.275 147.37C174.275 147.37 173.015 147.49 171.705 147.49C170.825 147.49 170.155 147.52 169.805 147.25C169.665 147.14 169.575 146.94 169.575 146.57V144.66H174.265V147.38L174.275 147.37Z" fill="#231F20"/>
<path d="M179.875 139.8C180.415 140.26 181.815 140.23 183.205 140.23C185.145 140.23 186.725 140.07 187.095 140.02C187.715 139.92 187.645 139.33 187.645 139.33V136.2C187.645 135.96 187.645 135.64 187.075 135.64H179.495V138.62C179.495 139.26 179.635 139.61 179.855 139.8H179.875ZM180.995 136.74H186.165V138.98C186.165 138.98 184.705 139.1 183.405 139.1C182.525 139.1 181.575 139.12 181.225 138.85C181.085 138.74 180.995 138.54 180.995 138.17V136.74Z" fill="#231F20"/>
<path d="M139.405 143.17C139.405 143.17 139.345 143.89 139.515 144.09C139.645 144.24 139.945 144.27 140.185 144.27H144.545V148.38C144.545 148.38 144.575 148.66 144.785 148.72C145.225 148.85 145.915 148.46 146.045 148.38V144.27H150.345C150.735 144.27 150.895 144.23 151.015 144.04C151.235 143.65 151.205 143.17 151.205 143.17H139.395H139.405Z" fill="#231F20"/>
<path d="M141.565 141.1C142.105 141.56 143.505 141.52 144.895 141.53C146.835 141.53 148.435 141.36 148.815 141.32C149.435 141.22 149.375 140.63 149.375 140.63V136.5C149.375 136.26 149.375 135.94 148.805 135.94H141.205V139.91C141.205 140.55 141.345 140.9 141.565 141.09V141.1ZM142.715 137.04H147.865V140.28C147.865 140.28 146.405 140.4 145.095 140.4C144.215 140.4 143.285 140.43 142.935 140.16C142.795 140.05 142.705 139.85 142.705 139.47V137.04H142.715Z" fill="#231F20"/>
<path d="M128.985 140.33H136.605C136.995 140.33 137.145 140.29 137.255 140.1C137.475 139.72 137.445 139.26 137.445 139.26H135.355C135.425 138.96 135.675 137.83 135.765 136.69H136.425C136.805 136.69 136.965 136.65 137.075 136.46C137.295 136.08 137.265 135.61 137.265 135.61H128.455C128.455 135.61 128.405 136.31 128.565 136.51C128.705 136.67 128.955 136.68 129.185 136.69H129.865C130.055 137.93 130.095 138.96 130.105 139.26H128.205C128.205 139.26 128.145 139.96 128.315 140.16C128.455 140.33 128.735 140.34 128.975 140.34L128.985 140.33ZM134.235 136.68C134.215 137.47 133.985 139.05 133.935 139.25H131.525C131.525 138.95 131.535 137.93 131.395 136.68H134.235Z" fill="#231F20"/>
<path d="M161.095 143.23H158.325C158.325 143.23 158.265 143.94 158.435 144.14C158.565 144.29 158.865 144.32 159.105 144.32H161.085V145.51C161.085 145.51 161.085 145.78 161.325 145.85C161.755 145.98 162.435 145.59 162.565 145.51V136.47C162.565 136.16 162.585 135.72 162.325 135.47C162.205 135.36 161.955 135.34 161.745 135.36C161.745 135.36 161.345 135.41 160.975 135.57C161.075 135.93 161.085 136.49 161.085 136.94V143.23H161.095Z" fill="#231F20"/>
<path d="M158.095 147.5C158.095 147.5 157.595 147.5 157.395 147.36C157.215 147.24 157.115 147.04 157.115 146.68V145.67C157.115 145.35 157.135 144.92 156.875 144.66C156.755 144.55 156.505 144.53 156.285 144.55C156.285 144.55 155.885 144.6 155.505 144.76C155.605 145.12 155.615 145.68 155.615 146.13V146.99C155.615 147.26 155.645 147.49 155.705 147.68C155.765 147.87 155.875 148.03 156.025 148.16C156.175 148.29 156.375 148.38 156.635 148.44C156.885 148.5 157.335 148.56 157.735 148.56C160.765 148.68 162.465 148.38 162.465 148.38C162.855 148.3 162.855 148.05 162.865 147.84V147.27C162.865 147.27 160.735 147.63 158.105 147.49L158.095 147.5Z" fill="#231F20"/>
<path d="M126.675 141.36C126.675 141.36 126.615 142.07 126.785 142.28C126.915 142.43 127.215 142.46 127.455 142.46H132.045V143.52H128.735C128.735 143.52 128.685 144.21 128.845 144.42C128.985 144.58 129.265 144.6 129.505 144.6H135.345V145.55H128.785V147.24C128.785 147.51 128.795 147.71 128.875 147.93C128.935 148.12 129.045 148.28 129.195 148.41C129.345 148.54 129.585 148.63 129.845 148.68C130.615 148.82 133.615 148.77 133.615 148.77C135.815 148.77 136.705 148.57 136.705 148.57C137.095 148.49 137.095 148.24 137.105 148.03V147.46C137.105 147.46 135.785 147.75 131.865 147.71H131.315C131.025 147.71 130.685 147.68 130.505 147.54C130.355 147.43 130.305 147.21 130.305 146.93V146.63H136.405C136.805 146.57 136.865 146.26 136.865 146.05V144.17C136.865 143.93 136.815 143.55 136.245 143.55H133.575V142.49H138.135C138.525 142.49 138.685 142.45 138.805 142.25C139.025 141.86 138.995 141.39 138.995 141.39H126.685L126.675 141.36Z" fill="#231F20"/>
<path d="M189.735 141.36H177.425C177.425 141.36 177.365 142.07 177.545 142.28C177.675 142.43 177.975 142.46 178.215 142.46H182.805V143.52H179.495C179.495 143.52 179.445 144.21 179.605 144.42C179.745 144.58 180.025 144.6 180.265 144.6H186.105V145.55H179.545V147.24C179.545 147.51 179.555 147.71 179.635 147.93C179.695 148.12 179.805 148.28 179.955 148.41C180.105 148.54 180.355 148.63 180.605 148.68C181.375 148.82 184.375 148.77 184.375 148.77C186.575 148.77 187.465 148.57 187.465 148.57C187.855 148.49 187.855 148.24 187.865 148.03V147.46C187.865 147.46 186.535 147.75 182.615 147.71H182.065C181.775 147.71 181.435 147.68 181.255 147.54C181.105 147.43 181.055 147.21 181.055 146.93V146.63H187.155C187.555 146.57 187.615 146.26 187.615 146.05V144.17C187.615 143.93 187.565 143.55 186.995 143.55H184.315V142.49H188.875C189.265 142.49 189.425 142.45 189.545 142.25C189.775 141.86 189.735 141.39 189.735 141.39V141.36Z" fill="#231F20"/>
<path d="M156.085 142.11C156.915 142.1 158.565 142.02 159.565 141.69C159.705 141.64 159.845 141.62 159.875 141.36C159.905 141.07 159.875 140.66 159.875 140.66C159.875 140.66 157.895 141.01 155.535 141.01H152.205C152.205 141.01 152.145 141.72 152.315 141.93C152.445 142.08 152.745 142.11 152.985 142.11H154.565C154.245 144.04 153.035 145.35 153.035 145.35C153.415 145.72 153.725 145.75 153.725 145.75C154.035 145.79 154.265 145.56 154.265 145.56C154.265 145.56 155.405 144.55 155.915 142.86C155.985 142.62 156.055 142.37 156.095 142.11H156.085Z" fill="#231F20"/>
<path d="M155.925 140.28C157.705 140.26 158.985 139.32 158.985 137.83C158.985 136.33 157.695 135.39 155.925 135.37C154.145 135.39 152.855 136.33 152.855 137.82C152.855 139.32 154.145 140.26 155.925 140.28ZM154.315 137.82C154.315 137.16 154.805 136.47 155.925 136.47C157.045 136.47 157.525 137.16 157.525 137.82C157.525 138.49 157.035 139.18 155.925 139.18C154.815 139.18 154.315 138.49 154.315 137.83V137.82Z" fill="#231F20"/>
<path d="M169.875 142.12C170.555 142.54 171.045 141.3 171.045 141.3C171.045 141.3 170.635 141.14 169.875 140.28C169.635 140.01 169.325 139.59 169.055 139.26C169.055 139.26 168.795 138.92 168.385 138.43C168.595 137.76 168.755 137.02 168.805 136.2C168.805 136.2 168.805 135.92 168.645 135.82C168.305 135.6 167.495 135.78 167.355 135.82C167.245 139.84 164.555 141.88 164.555 141.88C164.555 141.88 164.815 142.26 165.255 142.41C165.505 142.5 165.765 142.46 166.135 142.13C166.135 142.13 167.085 141.29 167.845 139.76C168.045 140 168.195 140.22 168.415 140.53C169.375 141.92 169.865 142.13 169.865 142.13L169.875 142.12Z" fill="#231F20"/>
<path d="M171.785 142.28C171.785 142.28 171.805 142.55 172.005 142.61C172.405 142.74 173.035 142.36 173.165 142.28V139.23H174.375V142.46C174.375 142.46 174.395 142.73 174.595 142.79C174.995 142.92 175.635 142.54 175.755 142.46V136.47C175.755 136.16 175.775 135.72 175.535 135.47C175.425 135.36 175.185 135.34 174.995 135.36C174.995 135.36 174.625 135.41 174.275 135.56C174.365 135.92 174.385 136.48 174.385 136.93V138.15H173.175V136.67C173.175 136.36 173.195 135.92 172.955 135.67C172.855 135.56 172.615 135.54 172.415 135.56C172.415 135.56 172.045 135.61 171.695 135.76C171.785 136.12 171.795 136.68 171.795 137.13V142.28H171.785Z" fill="#231F20"/>
<path d="M92.485 140.1C91.735 140.1 91.155 140.2 90.615 140.41C88.555 141.23 87.525 143.77 87.615 145.74C87.695 147.75 88.975 148.96 91.045 148.99C92.325 149.01 93.475 148.53 94.315 147.66C95.345 146.59 95.945 144.94 95.875 143.36C95.795 141.32 94.515 140.1 92.485 140.1ZM89.625 145.9C89.495 144.39 90.275 141.6 92.275 141.42C92.315 141.42 92.355 141.42 92.395 141.42C93.565 141.46 93.835 142.53 93.885 143.17C94.005 144.65 93.215 147.5 91.255 147.67C91.215 147.67 91.185 147.67 91.145 147.67C89.915 147.63 89.675 146.42 89.635 145.9H89.625Z" fill="#231F20"/>
<path d="M113.405 140.51C113.025 140.28 112.525 140.13 111.995 140.1C111.885 140.1 111.775 140.1 111.665 140.1C111.055 140.09 110.425 140.21 109.795 140.46C107.945 141.21 106.665 143.08 106.555 145.23C106.495 146.32 106.795 147.26 107.405 147.96C107.965 148.6 108.775 148.9 109.635 148.96C109.635 148.96 109.795 148.98 110.055 148.97C110.605 148.97 111.855 148.91 112.755 148.2C113.215 147.84 113.355 147.01 112.985 146.54C112.985 146.54 111.825 147.48 110.505 147.54C110.345 147.54 110.185 147.53 110.015 147.5C108.615 147.25 108.505 145.91 108.505 145.54C108.595 145.54 108.685 145.54 108.775 145.54C110.655 145.54 112.345 145.04 113.285 144.2C113.885 143.66 114.245 143.16 114.305 142.23C114.385 141.06 113.405 140.52 113.405 140.52V140.51ZM108.635 144.35C108.925 143.07 109.745 142.24 110.065 142.02C110.545 141.68 111.635 141.17 112.305 141.68C112.465 141.81 112.565 142.07 112.555 142.33C112.515 142.82 112.095 143.33 111.415 143.71C110.465 144.25 109.475 144.35 108.885 144.35C108.795 144.35 108.705 144.35 108.645 144.35H108.635Z" fill="#231F20"/>
<path d="M45.335 135.11C45.215 135.11 45.095 135.11 44.975 135.11C43.225 135.11 42.145 135.34 42.145 135.34L39.795 148.7H40.965C41.525 148.7 41.915 148.43 42.035 147.77C42.125 147.25 42.805 143.38 42.845 143.13C43.325 143.16 43.755 143.17 44.265 143.17C47.435 143.17 49.335 141.18 49.705 139.21C50.225 136.41 47.945 135.13 45.335 135.11ZM43.115 141.61L43.995 136.62C43.995 136.62 44.345 136.53 44.985 136.52C45.085 136.52 45.195 136.52 45.315 136.52C46.595 136.59 47.965 137.17 47.555 139.14C47.385 139.96 46.785 140.77 46.085 141.18C45.065 141.77 43.505 141.65 43.125 141.6L43.115 141.61Z" fill="#231F20"/>
<path d="M74.835 140.2C73.215 140.07 72.295 141.11 71.695 142.06C71.635 141.46 71.435 140.99 71.115 140.67C70.795 140.35 70.355 140.2 69.845 140.19C68.435 140.16 67.535 141.06 66.845 142.3C66.845 142.25 66.855 142.2 66.865 142.16C66.985 141.28 66.935 140.96 66.675 140.61C66.675 140.61 66.435 140.27 65.755 140.29C65.505 140.29 65.195 140.32 64.805 140.46C65.025 140.71 65.025 141.2 64.815 142.66C64.805 142.76 63.835 148.3 63.835 148.3C63.835 148.3 63.775 148.68 64.165 148.68H65.675C65.675 148.68 65.875 147.52 65.905 147.33C66.075 146.56 66.205 145.75 66.685 144.63C67.675 142.32 69.215 141.36 69.675 141.89C69.835 142.07 69.855 142.52 69.755 143.14L68.845 148.31C68.845 148.31 68.785 148.69 69.175 148.69H70.685L70.885 147.56C71.205 145.63 71.665 144.53 71.665 144.53C72.535 142.44 73.705 141.56 74.205 141.73C74.325 141.77 74.545 141.89 74.625 142.28C74.675 142.52 74.685 142.92 74.605 143.36C74.525 143.97 74.135 145.66 73.965 146.93C73.845 147.8 73.895 148.13 74.155 148.48C74.155 148.48 74.395 148.82 75.075 148.79C75.325 148.8 75.635 148.76 76.025 148.62C75.805 148.37 75.775 147.83 76.005 146.41C76.145 145.54 76.345 144.61 76.345 144.61C76.625 143.24 76.725 142.06 76.425 141.34C76.065 140.46 75.205 140.24 74.815 140.2H74.835Z" fill="#231F20"/>
<path d="M103.325 140.2C101.725 140.07 100.705 141.08 99.995 142.32C99.995 142.27 100.015 142.21 100.015 142.16C100.135 141.28 100.065 140.89 99.825 140.61C99.355 140.09 98.345 140.33 97.955 140.46C98.175 140.71 98.175 141.2 97.965 142.66C97.935 142.86 97.905 143.07 97.865 143.27L96.985 148.3C96.985 148.3 96.925 148.68 97.315 148.68H98.825C98.825 148.68 99.025 147.52 99.065 147.33C99.235 146.56 99.425 145.73 99.895 144.6C100.865 142.26 102.305 141.54 102.745 141.74C102.925 141.82 103.055 142 103.115 142.28C103.165 142.52 103.165 142.92 103.095 143.36C103.015 143.97 102.625 145.66 102.455 146.93C102.335 147.8 102.385 148.13 102.645 148.48C102.645 148.48 102.885 148.82 103.565 148.79C103.815 148.8 104.125 148.76 104.515 148.62C104.295 148.37 104.265 147.83 104.495 146.41C104.635 145.54 104.835 144.61 104.835 144.61C105.115 143.24 105.215 142.06 104.915 141.34C104.545 140.46 103.655 140.23 103.305 140.2H103.325Z" fill="#231F20"/>
<path d="M57.045 140.53C56.475 140.57 55.775 140.63 55.775 140.63L55.605 141.62C55.545 141.93 55.485 142.26 55.415 142.59C55.275 143.14 55.085 143.75 54.775 144.49C53.795 146.8 52.465 147.48 51.975 147.37C51.815 147.33 51.635 147.19 51.545 146.81C51.495 146.57 51.495 146.17 51.565 145.73C51.645 145.12 52.035 143.43 52.205 142.16C52.325 141.29 52.275 140.96 52.015 140.61C52.015 140.61 51.775 140.27 51.095 140.29C50.845 140.29 50.535 140.32 50.145 140.46C50.365 140.71 50.395 141.25 50.165 142.67C50.025 143.54 49.955 143.72 49.825 144.47C49.675 145.31 49.515 146.22 49.575 147.05C49.655 148.08 50.365 148.78 51.345 148.88C52.895 149.04 53.965 147.99 54.665 146.79C54.665 146.83 54.655 146.88 54.645 146.92C54.525 147.79 54.575 148.12 54.835 148.47C54.835 148.47 55.075 148.81 55.755 148.79C56.005 148.79 56.315 148.76 56.705 148.62C56.485 148.37 56.485 147.89 56.695 146.42C56.725 146.22 56.755 146.01 56.795 145.81L57.345 142.61L57.595 141.2C57.665 140.84 57.535 140.51 57.025 140.54L57.045 140.53Z" fill="#231F20"/>
<path d="M85.925 140.53C85.365 140.57 84.655 140.63 84.655 140.63L84.485 141.62C84.425 141.93 84.365 142.26 84.295 142.59C84.155 143.14 83.965 143.75 83.655 144.49C82.665 146.8 81.345 147.48 80.855 147.37C80.685 147.33 80.515 147.19 80.425 146.81C80.375 146.57 80.375 146.17 80.445 145.73C80.525 145.12 80.915 143.43 81.085 142.16C81.205 141.29 81.155 140.96 80.895 140.61C80.895 140.61 80.655 140.27 79.975 140.29C79.725 140.29 79.415 140.32 79.025 140.46C79.255 140.71 79.275 141.25 79.045 142.67C78.905 143.54 78.835 143.72 78.705 144.47C78.555 145.31 78.395 146.22 78.455 147.05C78.535 148.08 79.245 148.78 80.225 148.88C81.775 149.04 82.845 147.99 83.555 146.79C83.555 146.83 83.545 146.88 83.535 146.92C83.415 147.79 83.465 148.12 83.725 148.47C83.725 148.47 83.965 148.81 84.645 148.79C84.895 148.79 85.205 148.76 85.595 148.62C85.375 148.37 85.375 147.89 85.585 146.42C85.615 146.22 85.645 146.01 85.685 145.81L86.235 142.61L86.485 141.2C86.555 140.84 86.425 140.51 85.915 140.54L85.925 140.53Z" fill="#231F20"/>
<path d="M62.985 134.99C62.935 134.99 62.885 134.99 62.815 135.01L61.295 135.32L59.225 147.07C59.125 147.74 59.155 148.01 59.295 148.27C59.425 148.5 59.625 148.63 59.835 148.7C60.065 148.77 60.315 148.79 60.525 148.78C60.925 148.79 61.255 148.7 61.255 148.7C61.255 148.7 61.045 148.06 61.215 147.04L63.225 135.62C63.285 135.29 63.315 134.98 62.985 134.98V134.99Z" fill="#231F20"/>
<path d="M78.045 131.21C61.045 131.21 45.855 127.05 35.585 120.67C35.505 120.62 35.435 120.57 35.365 120.52C35.265 120.43 35.245 120.3 35.285 120.19C35.335 120.06 35.455 119.98 35.595 120C35.685 120.02 35.785 120.05 35.865 120.08C47.245 123.95 61.995 126.13 78.045 126.13C94.095 126.13 108.855 123.95 120.235 120.08C120.305 120.05 120.415 120.02 120.505 120C120.635 119.97 120.745 120.06 120.805 120.18C120.845 120.29 120.825 120.43 120.725 120.51C120.665 120.57 120.585 120.62 120.515 120.66C110.245 127.05 95.055 131.2 78.045 131.2V131.21Z" fill="#8DC63F"/>
</g>
<g clip-path="url(#clip1_553_34433)">
<path d="M23.0726 192.64V198.124H5.89286V192.64H23.0726ZM8.16629 163.999V198.124H1.13505V163.999H8.16629ZM41.4476 169.835L32.1663 198.124H24.6897L37.3695 163.999H42.1272L41.4476 169.835ZM49.1585 198.124L39.8538 169.835L39.1038 163.999H43.9085L56.6585 198.124H49.1585ZM48.7366 185.421V190.929H30.7131V185.421H48.7366ZM77.5882 189.195C77.5882 188.585 77.4945 188.038 77.3069 187.554C77.1351 187.054 76.8069 186.601 76.3226 186.195C75.8382 185.773 75.1585 185.359 74.2835 184.952C73.4085 184.546 72.2757 184.124 70.885 183.687C69.3382 183.187 67.8694 182.624 66.4788 181.999C65.1038 181.374 63.8851 180.648 62.8226 179.82C61.7757 178.976 60.9476 177.999 60.3381 176.89C59.7444 175.781 59.4476 174.491 59.4476 173.023C59.4476 171.601 59.7601 170.312 60.385 169.156C61.0101 167.984 61.885 166.984 63.01 166.156C64.135 165.312 65.4632 164.663 66.9945 164.21C68.5413 163.757 70.2366 163.531 72.0804 163.531C74.5959 163.531 76.7913 163.984 78.6663 164.89C80.5413 165.796 81.9945 167.038 83.0257 168.616C84.0725 170.195 84.596 171.999 84.596 174.031H77.6116C77.6116 173.03 77.4007 172.156 76.9788 171.406C76.5725 170.64 75.9476 170.038 75.1038 169.601C74.2756 169.163 73.2288 168.945 71.9632 168.945C70.7445 168.945 69.7288 169.132 68.9163 169.507C68.1038 169.866 67.4944 170.359 67.0882 170.984C66.6819 171.593 66.4788 172.28 66.4788 173.046C66.4788 173.624 66.6195 174.148 66.9007 174.616C67.1975 175.085 67.6351 175.523 68.2132 175.929C68.7913 176.335 69.5022 176.718 70.346 177.077C71.1897 177.437 72.1663 177.788 73.2757 178.132C75.1351 178.695 76.7679 179.327 78.1741 180.031C79.596 180.734 80.7835 181.523 81.7366 182.398C82.6898 183.273 83.4085 184.265 83.8929 185.374C84.3772 186.484 84.6195 187.741 84.6195 189.148C84.6195 190.632 84.3303 191.96 83.7522 193.132C83.1741 194.304 82.3382 195.296 81.2445 196.109C80.1507 196.921 78.846 197.538 77.3304 197.96C75.8147 198.382 74.1195 198.593 72.2445 198.593C70.5569 198.593 68.8929 198.374 67.2522 197.937C65.6116 197.484 64.1194 196.804 62.7757 195.898C61.4475 194.991 60.385 193.835 59.5881 192.429C58.7913 191.023 58.3929 189.359 58.3929 187.437H65.4476C65.4476 188.499 65.6116 189.398 65.9398 190.132C66.2679 190.866 66.7288 191.46 67.3226 191.913C67.9319 192.366 68.6506 192.695 69.4788 192.898C70.3226 193.101 71.2444 193.202 72.2445 193.202C73.4632 193.202 74.4632 193.031 75.2445 192.687C76.0413 192.343 76.6272 191.866 77.0022 191.257C77.3929 190.648 77.5882 189.96 77.5882 189.195ZM104.659 163.999V198.124H97.6509V163.999H104.659ZM115.159 163.999V169.507H87.3146V163.999H115.159Z" fill="#1FADFF"/>
<path d="M23.0726 192.64V198.124H5.89286V192.64H23.0726ZM8.16629 163.999V198.124H1.13505V163.999H8.16629ZM41.4476 169.835L32.1663 198.124H24.6897L37.3695 163.999H42.1272L41.4476 169.835ZM49.1585 198.124L39.8538 169.835L39.1038 163.999H43.9085L56.6585 198.124H49.1585ZM48.7366 185.421V190.929H30.7131V185.421H48.7366ZM77.5882 189.195C77.5882 188.585 77.4945 188.038 77.3069 187.554C77.1351 187.054 76.8069 186.601 76.3226 186.195C75.8382 185.773 75.1585 185.359 74.2835 184.952C73.4085 184.546 72.2757 184.124 70.885 183.687C69.3382 183.187 67.8694 182.624 66.4788 181.999C65.1038 181.374 63.8851 180.648 62.8226 179.82C61.7757 178.976 60.9476 177.999 60.3381 176.89C59.7444 175.781 59.4476 174.491 59.4476 173.023C59.4476 171.601 59.7601 170.312 60.385 169.156C61.0101 167.984 61.885 166.984 63.01 166.156C64.135 165.312 65.4632 164.663 66.9945 164.21C68.5413 163.757 70.2366 163.531 72.0804 163.531C74.5959 163.531 76.7913 163.984 78.6663 164.89C80.5413 165.796 81.9945 167.038 83.0257 168.616C84.0725 170.195 84.596 171.999 84.596 174.031H77.6116C77.6116 173.03 77.4007 172.156 76.9788 171.406C76.5725 170.64 75.9476 170.038 75.1038 169.601C74.2756 169.163 73.2288 168.945 71.9632 168.945C70.7445 168.945 69.7288 169.132 68.9163 169.507C68.1038 169.866 67.4944 170.359 67.0882 170.984C66.6819 171.593 66.4788 172.28 66.4788 173.046C66.4788 173.624 66.6195 174.148 66.9007 174.616C67.1975 175.085 67.6351 175.523 68.2132 175.929C68.7913 176.335 69.5022 176.718 70.346 177.077C71.1897 177.437 72.1663 177.788 73.2757 178.132C75.1351 178.695 76.7679 179.327 78.1741 180.031C79.596 180.734 80.7835 181.523 81.7366 182.398C82.6898 183.273 83.4085 184.265 83.8929 185.374C84.3772 186.484 84.6195 187.741 84.6195 189.148C84.6195 190.632 84.3303 191.96 83.7522 193.132C83.1741 194.304 82.3382 195.296 81.2445 196.109C80.1507 196.921 78.846 197.538 77.3304 197.96C75.8147 198.382 74.1195 198.593 72.2445 198.593C70.5569 198.593 68.8929 198.374 67.2522 197.937C65.6116 197.484 64.1194 196.804 62.7757 195.898C61.4475 194.991 60.385 193.835 59.5881 192.429C58.7913 191.023 58.3929 189.359 58.3929 187.437H65.4476C65.4476 188.499 65.6116 189.398 65.9398 190.132C66.2679 190.866 66.7288 191.46 67.3226 191.913C67.9319 192.366 68.6506 192.695 69.4788 192.898C70.3226 193.101 71.2444 193.202 72.2445 193.202C73.4632 193.202 74.4632 193.031 75.2445 192.687C76.0413 192.343 76.6272 191.866 77.0022 191.257C77.3929 190.648 77.5882 189.96 77.5882 189.195ZM104.659 163.999V198.124H97.6509V163.999H104.659ZM115.159 163.999V169.507H87.3146V163.999H115.159Z" fill="url(#paint0_linear_553_34433)"/>
<path d="M122.377 163.999H128.331L137.096 189.054L145.862 163.999H151.815L139.486 198.124H134.705L122.377 163.999ZM119.166 163.999H125.096L126.174 188.421V198.124H119.166V163.999ZM149.096 163.999H155.049V198.124H148.018V188.421L149.096 163.999ZM168.69 163.999V198.124H161.682V163.999H168.69ZM197.213 192.64V198.124H180.033V192.64H197.213ZM182.307 163.999V198.124H175.275V163.999H182.307ZM224.143 192.64V198.124H205.979V192.64H224.143ZM208.275 163.999V198.124H201.244V163.999H208.275ZM221.775 177.898V183.241H205.979V177.898H221.775ZM224.12 163.999V169.507H205.979V163.999H224.12Z" fill="#A0D911"/>
</g>
<defs>
<linearGradient id="paint0_linear_553_34433" x1="-1.92857" y1="181.839" x2="114.552" y2="181.839" gradientUnits="userSpaceOnUse">
<stop stop-color="#0096EB"/>
<stop offset="0.479167" stop-color="#0096EB" stop-opacity="0"/>
</linearGradient>
<clipPath id="clip0_553_34433">
<rect width="154.47" height="28.99" fill="white" transform="translate(35.265 120)"/>
</clipPath>
<clipPath id="clip1_553_34433">
<rect width="223.714" height="36" fill="white" transform="translate(0.64286 162.99)"/>
</clipPath>
</defs>
</svg>
