<svg width="125" height="54" viewBox="0 0 125 54" fill="none" xmlns="http://www.w3.org/2000/svg">
<path fill-rule="evenodd" clip-rule="evenodd" d="M78.9138 17.5795L75.7192 10.1255C75.6372 9.93393 75.5008 9.77064 75.3268 9.65592C75.1528 9.5412 74.949 9.4801 74.7406 9.48021H71.546V7.3505C71.546 7.06808 71.4338 6.79723 71.2341 6.59753C71.0344 6.39783 70.7636 6.28564 70.4812 6.28564H53.4435V6.29607H47.0543C46.472 6.29607 46 6.7681 46 7.35038C46 7.93266 46.472 8.40469 47.0543 8.40469H53.4435V8.41536H69.4163V21.7857C68.9311 22.0675 68.5064 22.4425 68.1669 22.8892C67.8273 23.3358 67.5795 23.8453 67.4378 24.3882H60.7462C60.4871 23.3844 59.8707 22.5096 59.0126 21.9277C58.1546 21.3459 57.1138 21.097 56.0854 21.2276C55.0569 21.3582 54.1114 21.8595 53.4261 22.6373C52.7407 23.4152 52.3626 24.4163 52.3626 25.4531C52.3626 26.4898 52.7407 27.4909 53.4261 28.2688C54.1114 29.0467 55.0569 29.5479 56.0854 29.6785C57.1138 29.8092 58.1546 29.5602 59.0126 28.9784C59.8707 28.3965 60.4871 27.5217 60.7462 26.5179H67.4378C67.6694 27.4318 68.1992 28.2424 68.9433 28.8214C69.6873 29.4004 70.6032 29.7148 71.546 29.7148C72.4888 29.7148 73.4047 29.4004 74.1488 28.8214C74.8928 28.2424 75.4226 27.4318 75.6542 26.5179H77.9352C78.2176 26.5179 78.4884 26.4057 78.6881 26.206C78.8878 26.0063 79 25.7355 79 25.4531V17.9991C79.0001 17.8548 78.9707 17.7121 78.9138 17.5795ZM56.638 27.5828C56.2168 27.5828 55.805 27.4579 55.4548 27.2239C55.1046 26.9898 54.8316 26.6572 54.6704 26.2681C54.5092 25.8789 54.4671 25.4507 54.5492 25.0376C54.6314 24.6245 54.8342 24.245 55.1321 23.9471C55.4299 23.6493 55.8094 23.4464 56.2225 23.3643C56.6357 23.2821 57.0639 23.3243 57.453 23.4855C57.8422 23.6467 58.1748 23.9196 58.4088 24.2699C58.6428 24.6201 58.7677 25.0318 58.7677 25.4531C58.7672 26.0177 58.5426 26.5591 58.1433 26.9584C57.7441 27.3577 57.2027 27.5822 56.638 27.5828ZM71.546 11.6099H74.0378L76.3208 16.9342H71.546V11.6099ZM71.546 27.5828C71.1248 27.5828 70.713 27.4579 70.3628 27.2239C70.0126 26.9898 69.7396 26.6572 69.5784 26.2681C69.4172 25.8789 69.375 25.4507 69.4572 25.0376C69.5394 24.6245 69.7422 24.245 70.0401 23.9471C70.3379 23.6493 70.7174 23.4464 71.1305 23.3643C71.5437 23.2821 71.9719 23.3243 72.361 23.4855C72.7502 23.6467 73.0828 23.9196 73.3168 24.2699C73.5508 24.6201 73.6757 25.0318 73.6757 25.4531C73.6752 26.0177 73.4506 26.5591 73.0513 26.9584C72.6521 27.3577 72.1107 27.5822 71.546 27.5828ZM76.8703 24.3882H75.6542C75.4197 23.4761 74.8891 22.6676 74.1456 22.0895C73.4021 21.5113 72.4878 21.1963 71.546 21.1936V19.0639H76.8703V24.3882Z" fill="#AAB4BE"/>
<path d="M49.7862 17.8806C49.7862 17.2983 50.2582 16.8262 50.8405 16.8262H61.2524C61.8347 16.8262 62.3067 17.2983 62.3067 17.8806C62.3067 18.4628 61.8347 18.9349 61.2524 18.9349H50.8405C50.2582 18.9349 49.7862 18.4628 49.7862 17.8806Z" fill="#AAB4BE"/>
<path d="M47.0543 11.561C46.472 11.561 46 12.0331 46 12.6154C46 13.1976 46.472 13.6697 47.0543 13.6697H58.4128C58.9951 13.6697 59.4671 13.1976 59.4671 12.6154C59.4671 12.0331 58.9951 11.561 58.4128 11.561H47.0543Z" fill="#AAB4BE"/>
<path d="M43.9108 40.4688H42.8561V47.4062H46.9459V40.4688H45.9147V42.9766H43.9108V40.4688ZM43.9108 46.5039V43.8555H45.9147V46.5039H43.9108ZM48.1178 49.4805H49.1725V44.5234H50.4733V49.9961H51.5397V39.4961H50.4733V43.6094H49.1725V39.6953H48.1178V49.4805ZM57.9677 43.1758H56.8661V44.6406H52.6356V45.543H62.2098V44.6406H57.9677V43.1758ZM53.1864 42.8711L53.5966 43.75C55.2723 43.4805 56.743 42.6719 57.411 41.5117C58.079 42.6719 59.5497 43.4805 61.2138 43.75L61.6473 42.8711C59.62 42.6133 57.9735 41.4473 57.9794 40.1055V39.6602H56.8544V40.1055C56.8485 41.4297 55.1962 42.6133 53.1864 42.8711ZM53.7723 48.1562C53.7723 49.3281 55.1317 49.9785 57.4169 49.9727C59.6845 49.9785 61.0321 49.3281 61.038 48.1562C61.0321 46.9785 59.6845 46.3164 57.4169 46.3164C55.1317 46.3164 53.7723 46.9785 53.7723 48.1562ZM54.8973 48.1562C54.8915 47.5176 55.7938 47.1777 57.4169 47.1719C59.0165 47.1777 59.9247 47.5176 59.9247 48.1562C59.9247 48.7832 59.0165 49.1289 57.4169 49.1289C55.7938 49.1289 54.8915 48.7832 54.8973 48.1562ZM68.6144 40.293H63.3175V41.207H67.5187C67.507 41.8691 67.4718 42.7188 67.2433 43.8789L68.3448 43.9844C68.6027 42.625 68.6027 41.582 68.6144 40.8789V40.293ZM62.6847 44.8867L62.7902 45.7891C64.6417 45.7832 67.1495 45.7422 69.3409 45.3555L69.2706 44.5469C68.2159 44.6992 67.0558 44.7812 65.9308 44.8281V42.6484H64.8292V44.8633C64.0616 44.8809 63.3292 44.8867 62.6847 44.8867ZM64.2784 49.7734H71.4152V48.8711H65.3917V46.668H64.2784V49.7734ZM69.9386 47.3828H71.0753V43.7734H72.5167V42.8359H71.0753V39.4961H69.9386V47.3828ZM81.6166 39.4961H80.5033V50.0195H81.6166V39.4961ZM73.4838 41.3477H77.2689V43.3867H73.4955V47.5H74.3861C76.2435 47.4941 77.8255 47.4238 79.683 47.1133L79.5775 46.1992C77.8197 46.4863 76.3373 46.5684 74.6322 46.5742V44.2773H78.4056V40.4453H73.4838V41.3477Z" fill="#AAB4BE"/>
</svg>
