<svg width="125" height="54" viewBox="0 0 125 54" fill="none" xmlns="http://www.w3.org/2000/svg">
<path d="M56.575 25.1625C56.95 25.1625 57.269 25.031 57.532 24.768C57.794 24.506 57.925 24.1875 57.925 23.8125C57.925 23.4375 57.794 23.125 57.532 22.875C57.269 22.625 56.95 22.5 56.575 22.5C56.2 22.5 55.8875 22.625 55.6375 22.875C55.3875 23.125 55.2625 23.4375 55.2625 23.8125C55.2625 24.1875 55.3875 24.506 55.6375 24.768C55.8875 25.031 56.2 25.1625 56.575 25.1625ZM56.575 19.3125C56.95 19.3125 57.269 19.1875 57.532 18.9375C57.794 18.6875 57.925 18.375 57.925 18C57.925 17.625 57.794 17.3125 57.532 17.0625C57.269 16.8125 56.95 16.6875 56.575 16.6875C56.2 16.6875 55.8875 16.8125 55.6375 17.0625C55.3875 17.3125 55.2625 17.625 55.2625 18C55.2625 18.375 55.3875 18.6875 55.6375 18.9375C55.8875 19.1875 56.2 19.3125 56.575 19.3125ZM56.575 13.5C56.95 13.5 57.269 13.375 57.532 13.125C57.794 12.875 57.925 12.5625 57.925 12.1875C57.925 11.8125 57.794 11.4935 57.532 11.2305C57.269 10.9685 56.95 10.8375 56.575 10.8375C56.2 10.8375 55.8875 10.9685 55.6375 11.2305C55.3875 11.4935 55.2625 11.8125 55.2625 12.1875C55.2625 12.5625 55.3875 12.875 55.6375 13.125C55.8875 13.375 56.2 13.5 56.575 13.5ZM61.15 24.9375H69.7V22.6875H61.15V24.9375ZM61.15 19.125H69.7V16.875H61.15V19.125ZM61.15 13.3125H69.7V11.0625H61.15V13.3125ZM52.45 30.75C51.7 30.75 51.0625 30.4875 50.5375 29.9625C50.0125 29.4375 49.75 28.8 49.75 28.05V7.95C49.75 7.2 50.0125 6.5625 50.5375 6.0375C51.0625 5.5125 51.7 5.25 52.45 5.25H72.55C73.3 5.25 73.9375 5.5125 74.4625 6.0375C74.9875 6.5625 75.25 7.2 75.25 7.95V28.05C75.25 28.8 74.9875 29.4375 74.4625 29.9625C73.9375 30.4875 73.3 30.75 72.55 30.75H52.45ZM52.45 28.5H72.55C72.65 28.5 72.75 28.45 72.85 28.35C72.95 28.25 73 28.15 73 28.05V7.95C73 7.85 72.95 7.75 72.85 7.65C72.75 7.55 72.65 7.5 72.55 7.5H52.45C52.35 7.5 52.25 7.55 52.15 7.65C52.05 7.75 52 7.85 52 7.95V28.05C52 28.15 52.05 28.25 52.15 28.35C52.25 28.45 52.35 28.5 52.45 28.5ZM52 7.5V28.5V7.5Z" fill="#AAB4BE"/>
<path d="M33.7797 40.4688H32.725V47.4062H36.8148V40.4688H35.7836V42.9766H33.7797V40.4688ZM33.7797 46.5039V43.8555H35.7836V46.5039H33.7797ZM37.9867 49.4805H39.0414V44.5234H40.3422V49.9961H41.4086V39.4961H40.3422V43.6094H39.0414V39.6953H37.9867V49.4805ZM47.8366 43.1758H46.735V44.6406H42.5045V45.543H52.0788V44.6406H47.8366V43.1758ZM43.0553 42.8711L43.4655 43.75C45.1413 43.4805 46.612 42.6719 47.2799 41.5117C47.9479 42.6719 49.4186 43.4805 51.0827 43.75L51.5163 42.8711C49.4889 42.6133 47.8424 41.4473 47.8483 40.1055V39.6602H46.7233V40.1055C46.7174 41.4297 45.0651 42.6133 43.0553 42.8711ZM43.6413 48.1562C43.6413 49.3281 45.0006 49.9785 47.2858 49.9727C49.5534 49.9785 50.901 49.3281 50.9069 48.1562C50.901 46.9785 49.5534 46.3164 47.2858 46.3164C45.0006 46.3164 43.6413 46.9785 43.6413 48.1562ZM44.7663 48.1562C44.7604 47.5176 45.6627 47.1777 47.2858 47.1719C48.8854 47.1777 49.7936 47.5176 49.7936 48.1562C49.7936 48.7832 48.8854 49.1289 47.2858 49.1289C45.6627 49.1289 44.7604 48.7832 44.7663 48.1562ZM62.245 47.7578H59.9481V44.9922C60.7919 44.5176 61.2958 43.7734 61.2958 42.8477C61.2958 41.1953 59.6727 40.1113 57.4169 40.1055C55.1669 40.1113 53.5438 41.1953 53.5497 42.8477C53.5438 43.791 54.0712 44.541 54.9325 45.0156V47.7578H52.6356V48.6836H62.245V47.7578ZM54.6278 42.8477C54.6278 41.7168 55.7704 40.9961 57.4169 40.9961C59.0516 40.9961 60.2118 41.7168 60.2177 42.8477C60.2118 43.9727 59.0516 44.7051 57.4169 44.7109C55.7704 44.7051 54.6278 43.9727 54.6278 42.8477ZM56.0341 47.7578V45.4258C56.4559 45.5254 56.9247 45.5781 57.4169 45.5781C57.9208 45.5781 58.3954 45.5254 58.8231 45.4258V47.7578H56.0341ZM66.4464 41.7344V41.6055H68.7316V40.7148H66.4581V39.4492H65.3448V40.7148H63.0597V41.6055H65.3448V41.7344C65.3448 43.0879 64.3605 44.3418 62.7667 44.8516L63.2941 45.707C64.548 45.3145 65.462 44.4531 65.9191 43.3691C66.3995 44.3418 67.3136 45.0918 68.5323 45.4375L69.0597 44.5703C67.4601 44.125 66.4464 42.9707 66.4464 41.7344ZM64.4542 48.0273C64.4484 49.2637 65.8019 49.9785 68.005 49.9727C70.2023 49.9785 71.5499 49.2637 71.5558 48.0273C71.5499 46.7969 70.2023 46.0996 68.005 46.0938C65.8019 46.0996 64.4484 46.7969 64.4542 48.0273ZM65.5558 48.0273C65.5499 47.3477 66.464 46.9609 68.005 46.9609C69.546 46.9609 70.4484 47.3477 70.4542 48.0273C70.4484 48.707 69.546 49.1113 68.005 49.1172C66.464 49.1113 65.5499 48.707 65.5558 48.0273ZM68.4034 43.3516H70.4073V45.8594H71.5206V39.4961H70.4073V42.4375H68.4034V43.3516ZM78.7455 40.293H73.4486V41.207H77.6498C77.638 41.8691 77.6029 42.7188 77.3744 43.8789L78.4759 43.9844C78.7337 42.625 78.7337 41.582 78.7455 40.8789V40.293ZM72.8158 44.8867L72.9212 45.7891C74.7728 45.7832 77.2806 45.7422 79.472 45.3555L79.4017 44.5469C78.347 44.6992 77.1869 44.7812 76.0619 44.8281V42.6484H74.9603V44.8633C74.1927 44.8809 73.4603 44.8867 72.8158 44.8867ZM74.4095 49.7734H81.5462V48.8711H75.5228V46.668H74.4095V49.7734ZM80.0697 47.3828H81.2064V43.7734H82.6478V42.8359H81.2064V39.4961H80.0697V47.3828ZM91.7477 39.4961H90.6344V50.0195H91.7477V39.4961ZM83.6148 41.3477H87.4V43.3867H83.6266V47.5H84.5172C86.3746 47.4941 87.9566 47.4238 89.8141 47.1133L89.7086 46.1992C87.9508 46.4863 86.4684 46.5684 84.7633 46.5742V44.2773H88.5367V40.4453H83.6148V41.3477Z" fill="#AAB4BE"/>
</svg>
