<svg width="70" height="70" viewBox="0 0 70 70" fill="none" xmlns="http://www.w3.org/2000/svg">
<path d="M9.24606 45.088H10.2061V55.936H9.24606V45.088ZM7.42206 49.504H9.51006V50.32H7.42206V49.504ZM6.78606 45.328H7.72206V55.384H6.78606V45.328ZM1.53006 46.396H2.52606V52.66H1.53006V46.396ZM1.53006 52.264H2.22606C3.34206 52.264 4.59006 52.192 6.00606 51.916L6.11406 52.78C4.63806 53.068 3.39006 53.128 2.22606 53.128H1.53006V52.264ZM18.6804 55.1193C18.1179 55.1193 17.6165 55.0227 17.1761 54.8295C16.7386 54.6364 16.3906 54.3679 16.1321 54.0241C15.8764 53.6776 15.7372 53.2756 15.7145 52.8182H16.7884C16.8111 53.0994 16.9077 53.3423 17.0781 53.5469C17.2486 53.7486 17.4716 53.9048 17.7472 54.0156C18.0227 54.1264 18.3281 54.1818 18.6634 54.1818C19.0384 54.1818 19.3707 54.1165 19.6605 53.9858C19.9503 53.8551 20.1776 53.6733 20.3423 53.4403C20.5071 53.2074 20.5895 52.9375 20.5895 52.6307C20.5895 52.3097 20.5099 52.027 20.3509 51.7827C20.1918 51.5355 19.9588 51.3423 19.652 51.2031C19.3452 51.0639 18.9702 50.9943 18.527 50.9943H17.8281V50.0568H18.527C18.8736 50.0568 19.1776 49.9943 19.4389 49.8693C19.7031 49.7443 19.9091 49.5682 20.0568 49.3409C20.2074 49.1136 20.2827 48.8466 20.2827 48.5398C20.2827 48.2443 20.2173 47.9872 20.0866 47.7685C19.956 47.5497 19.7713 47.3793 19.5327 47.2571C19.2969 47.1349 19.0185 47.0739 18.6974 47.0739C18.3963 47.0739 18.1122 47.1293 17.8452 47.2401C17.581 47.348 17.3651 47.5057 17.1974 47.7131C17.0298 47.9176 16.9389 48.1648 16.9247 48.4545H15.902C15.919 47.9972 16.0568 47.5966 16.3153 47.2528C16.5739 46.9062 16.9119 46.6364 17.3295 46.4432C17.75 46.25 18.2116 46.1534 18.7145 46.1534C19.2543 46.1534 19.7173 46.2628 20.1037 46.4815C20.4901 46.6974 20.7869 46.983 20.9943 47.3381C21.2017 47.6932 21.3054 48.0767 21.3054 48.4886C21.3054 48.9801 21.1761 49.3991 20.9176 49.7457C20.6619 50.0923 20.3139 50.3324 19.8736 50.4659V50.5341C20.4247 50.625 20.8551 50.8594 21.1648 51.2372C21.4744 51.6122 21.6293 52.0767 21.6293 52.6307C21.6293 53.1051 21.5 53.5312 21.2415 53.9091C20.9858 54.2841 20.6364 54.5795 20.1932 54.7955C19.75 55.0114 19.2457 55.1193 18.6804 55.1193ZM26.2188 55H23.5256V46.2727H26.3381C27.1847 46.2727 27.9091 46.4474 28.5114 46.7969C29.1136 47.1435 29.5753 47.642 29.8963 48.2926C30.2173 48.9403 30.3778 49.7159 30.3778 50.6193C30.3778 51.5284 30.2159 52.3111 29.892 52.9673C29.5682 53.6207 29.0966 54.1236 28.4773 54.4759C27.858 54.8253 27.1051 55 26.2188 55ZM24.5824 54.0625H26.1506C26.8722 54.0625 27.4702 53.9233 27.9446 53.6449C28.419 53.3665 28.7727 52.9702 29.0057 52.456C29.2386 51.9418 29.3551 51.3295 29.3551 50.6193C29.3551 49.9148 29.2401 49.3082 29.0099 48.7997C28.7798 48.2884 28.4361 47.8963 27.9787 47.6236C27.5213 47.348 26.9517 47.2102 26.2699 47.2102H24.5824V54.0625ZM35.0688 53.728H44.8968V54.556H35.0688V53.728ZM39.4608 50.92H40.4568V53.956H39.4608V50.92ZM36.2088 45.988H43.6968V51.1H36.2088V45.988ZM42.7368 46.792H37.1808V50.296H42.7368V46.792ZM54.3278 45.088H55.2878V50.86H54.3278V45.088ZM50.0678 47.488H52.7198V48.268H50.0678V47.488ZM52.2518 45.304H53.1878V50.752H52.2518V45.304ZM46.6238 49.516H47.3078C48.9398 49.516 49.9718 49.48 51.2438 49.24L51.3158 50.044C50.0198 50.296 48.9638 50.32 47.3078 50.32H46.6238V49.516ZM46.6238 45.712H50.7278V46.516H47.6078V50.032H46.6238V45.712ZM48.0878 51.34H55.2878V53.872H49.0958V55.48H48.1118V53.128H54.3038V52.12H48.0878V51.34ZM48.1118 55H55.6838V55.792H48.1118V55ZM65.0309 45.1H66.0389V51.76H65.0309V45.1ZM57.6989 50.284H58.5749C60.5429 50.284 61.9949 50.224 63.7349 49.936L63.8429 50.752C62.0549 51.052 60.5909 51.1 58.5749 51.1H57.6989V50.284ZM57.6749 45.772H62.5949V48.772H58.6709V50.74H57.6989V47.992H61.6229V46.588H57.6749V45.772ZM62.4629 52C64.7189 52 66.1109 52.708 66.1109 53.956C66.1109 55.204 64.7189 55.924 62.4629 55.924C60.1949 55.924 58.8269 55.204 58.8269 53.956C58.8269 52.708 60.1949 52 62.4629 52ZM62.4629 52.792C60.8069 52.792 59.8109 53.212 59.8109 53.956C59.8109 54.7 60.8069 55.132 62.4629 55.132C64.1189 55.132 65.1149 54.7 65.1149 53.956C65.1149 53.212 64.1189 52.792 62.4629 52.792Z" fill="white"/>
<path d="M43.1569 18.3126V27.6875C43.1569 27.9073 43.0377 28.1097 42.8456 28.2166L34.3724 32.9238C34.1896 33.0254 33.9673 33.0254 33.7845 32.9238L25.3113 28.2166C25.1192 28.1097 25 27.9073 25 27.6875L25 18.3126C25 18.0928 25.1192 17.8902 25.3113 17.7835L33.7845 13.0762C33.9673 12.9746 34.1896 12.9746 34.3724 13.0762L42.8456 17.7835C43.0376 17.8902 43.1569 18.0928 43.1569 18.3126Z" stroke="#D3D3D3" stroke-linecap="round" stroke-linejoin="round"/>
<path d="M25.533 18.2526L33.7844 22.8368C33.9672 22.9383 34.1895 22.9383 34.3723 22.8368L42.6524 18.2367" stroke="#D3D3D3" stroke-linecap="round" stroke-linejoin="round"/>
<path d="M34.0784 32.0784V23" stroke="#D3D3D3" stroke-linecap="round" stroke-linejoin="round"/>
</svg>
