<svg width="27" height="15" viewBox="0 0 27 15" fill="none" xmlns="http://www.w3.org/2000/svg">
<path d="M9.83 11.16H4.01L3.01 14H0.63L5.61 0.0799992H8.25L13.23 14H10.83L9.83 11.16ZM9.19 9.3L6.93 2.84L4.65 9.3H9.19ZM15.2353 8.44C15.2353 7.33333 15.462 6.35333 15.9153 5.5C16.382 4.64667 17.0086 3.98667 17.7953 3.52C18.5953 3.04 19.4753 2.8 20.4353 2.8C21.302 2.8 22.0553 2.97333 22.6953 3.32C23.3486 3.65333 23.8686 4.07333 24.2553 4.58V2.98H26.5553V14H24.2553V12.36C23.8686 12.88 23.342 13.3133 22.6753 13.66C22.0086 14.0067 21.2486 14.18 20.3953 14.18C19.4486 14.18 18.582 13.94 17.7953 13.46C17.0086 12.9667 16.382 12.2867 15.9153 11.42C15.462 10.54 15.2353 9.54667 15.2353 8.44ZM24.2553 8.48C24.2553 7.72 24.0953 7.06 23.7753 6.5C23.4686 5.94 23.062 5.51333 22.5553 5.22C22.0486 4.92667 21.502 4.78 20.9153 4.78C20.3286 4.78 19.782 4.92667 19.2753 5.22C18.7686 5.5 18.3553 5.92 18.0353 6.48C17.7286 7.02667 17.5753 7.68 17.5753 8.44C17.5753 9.2 17.7286 9.86667 18.0353 10.44C18.3553 11.0133 18.7686 11.4533 19.2753 11.76C19.7953 12.0533 20.342 12.2 20.9153 12.2C21.502 12.2 22.0486 12.0533 22.5553 11.76C23.062 11.4667 23.4686 11.04 23.7753 10.48C24.0953 9.90667 24.2553 9.24 24.2553 8.48Z" fill="white"/>
</svg>
