<svg width="35" height="36" viewBox="0 0 35 36" fill="none" xmlns="http://www.w3.org/2000/svg">
<path d="M27.7084 16.5416H10.4125L15.7063 10.1833C15.9538 9.88547 16.0729 9.50152 16.0374 9.1159C16.0018 8.73028 15.8145 8.37457 15.5167 8.12704C15.2189 7.8795 14.8349 7.76041 14.4493 7.79597C14.0637 7.83152 13.708 8.01881 13.4605 8.31662L6.16879 17.0666C6.11973 17.1362 6.07586 17.2093 6.03754 17.2854C6.03754 17.3583 6.03754 17.402 5.93546 17.475C5.86936 17.6422 5.83475 17.8202 5.83337 18C5.83475 18.1798 5.86936 18.3577 5.93546 18.525C5.93546 18.5979 5.93546 18.6416 6.03754 18.7145C6.07586 18.7906 6.11973 18.8637 6.16879 18.9333L13.4605 27.6833C13.5976 27.8479 13.7693 27.9803 13.9634 28.071C14.1574 28.1618 14.3691 28.2086 14.5834 28.2083C14.9241 28.209 15.2543 28.0903 15.5167 27.8729C15.6644 27.7504 15.7864 27.6001 15.8759 27.4304C15.9654 27.2607 16.0205 27.0751 16.0381 26.8841C16.0557 26.6931 16.0355 26.5005 15.9785 26.3173C15.9216 26.1341 15.8291 25.964 15.7063 25.8166L10.4125 19.4583H27.7084C28.0951 19.4583 28.4661 19.3046 28.7396 19.0312C29.0131 18.7577 29.1667 18.3867 29.1667 18C29.1667 17.6132 29.0131 17.2422 28.7396 16.9688C28.4661 16.6953 28.0951 16.5416 27.7084 16.5416Z" fill="white"/>
</svg>
