<svg width="30" height="30" viewBox="0 0 30 30" fill="none" xmlns="http://www.w3.org/2000/svg">
<path d="M6.06046 18.277C5.35733 18.277 4.75364 18.0284 4.24938 17.5312C3.75222 17.027 3.50364 16.4233 3.50364 15.7202C3.50364 15.0241 3.75222 14.4276 4.24938 13.9304C4.75364 13.4332 5.35733 13.1847 6.06046 13.1847C6.74228 13.1847 7.33887 13.4332 7.85023 13.9304C8.36159 14.4276 8.61728 15.0241 8.61728 15.7202C8.61728 16.1889 8.49654 16.6186 8.25506 17.0092C8.02069 17.3928 7.71174 17.7017 7.32821 17.9361C6.94469 18.1634 6.52211 18.277 6.06046 18.277ZM14.996 18.277C14.2929 18.277 13.6892 18.0284 13.1849 17.5312C12.6878 17.027 12.4392 16.4233 12.4392 15.7202C12.4392 15.0241 12.6878 14.4276 13.1849 13.9304C13.6892 13.4332 14.2929 13.1847 14.996 13.1847C15.6778 13.1847 16.2744 13.4332 16.7858 13.9304C17.2971 14.4276 17.5528 15.0241 17.5528 15.7202C17.5528 16.1889 17.4321 16.6186 17.1906 17.0092C16.9562 17.3928 16.6473 17.7017 16.2638 17.9361C15.8802 18.1634 15.4577 18.277 14.996 18.277ZM23.9316 18.277C23.2284 18.277 22.6247 18.0284 22.1205 17.5312C21.6233 17.027 21.3747 16.4233 21.3747 15.7202C21.3747 15.0241 21.6233 14.4276 22.1205 13.9304C22.6247 13.4332 23.2284 13.1847 23.9316 13.1847C24.6134 13.1847 25.21 13.4332 25.7213 13.9304C26.2327 14.4276 26.4884 15.0241 26.4884 15.7202C26.4884 16.1889 26.3676 16.6186 26.1262 17.0092C25.8918 17.3928 25.5828 17.7017 25.1993 17.9361C24.8158 18.1634 24.3932 18.277 23.9316 18.277Z" fill="white"/>
</svg>
