<svg width="24" height="24" viewBox="0 0 24 24" fill="none" xmlns="http://www.w3.org/2000/svg">
<path fill-rule="evenodd" clip-rule="evenodd" d="M7.75841 9.87592C8.0513 10.1688 8.0513 10.6437 7.75841 10.9366L5.10529 13.5897C4.4018 14.2932 4.00659 15.2473 4.00659 16.2422C4.00659 17.2371 4.4018 18.1912 5.10529 18.8947C5.80877 19.5982 6.76289 19.9934 7.75777 19.9934C8.25038 19.9934 8.73817 19.8963 9.19328 19.7078C9.6484 19.5193 10.0619 19.243 10.4103 18.8947L13.0634 16.2415C13.3563 15.9487 13.8311 15.9487 14.124 16.2415C14.4169 16.5344 14.4169 17.0093 14.124 17.3022L11.4709 19.9553C10.9833 20.4429 10.4044 20.8297 9.76731 21.0936C9.1302 21.3575 8.44736 21.4934 7.75777 21.4934C6.36507 21.4934 5.02941 20.9401 4.04463 19.9553C3.05984 18.9705 2.50659 17.6349 2.50659 16.2422C2.50659 14.8495 3.05984 13.5138 4.04463 12.529L6.69775 9.87592C6.99064 9.58303 7.46552 9.58303 7.75841 9.87592Z" fill="white"/>
<path fill-rule="evenodd" clip-rule="evenodd" d="M12.529 4.04469C13.5138 3.0599 14.8495 2.50665 16.2422 2.50665C17.6349 2.50665 18.9705 3.0599 19.9553 4.04469C20.9401 5.02947 21.4934 6.36513 21.4934 7.75783C21.4934 9.15053 20.9401 10.4862 19.9553 11.471L17.3022 14.1241C17.0093 14.417 16.5344 14.417 16.2415 14.1241C15.9487 13.8312 15.9487 13.3563 16.2415 13.0634L18.8947 10.4103C19.5982 9.70683 19.9934 8.7527 19.9934 7.75783C19.9934 6.76296 19.5982 5.80883 18.8947 5.10535C18.1912 4.40186 17.2371 4.00665 16.2422 4.00665C15.2473 4.00665 14.2932 4.40186 13.5897 5.10535L10.9366 7.75847C10.6437 8.05136 10.1688 8.05136 9.87592 7.75847C9.58303 7.46558 9.58303 6.9907 9.87592 6.69781L12.529 4.04469Z" fill="white"/>
<path fill-rule="evenodd" clip-rule="evenodd" d="M7.75841 9.87592C8.0513 10.1688 8.0513 10.6437 7.75841 10.9366L5.10529 13.5897C4.4018 14.2932 4.00659 15.2473 4.00659 16.2422C4.00659 17.2371 4.4018 18.1912 5.10529 18.8947C5.80877 19.5982 6.76289 19.9934 7.75777 19.9934C8.25038 19.9934 8.73817 19.8963 9.19328 19.7078C9.6484 19.5193 10.0619 19.243 10.4103 18.8947L13.0634 16.2415C13.3563 15.9487 13.8311 15.9487 14.124 16.2415C14.4169 16.5344 14.4169 17.0093 14.124 17.3022L11.4709 19.9553C10.9833 20.4429 10.4044 20.8297 9.76731 21.0936C9.1302 21.3575 8.44736 21.4934 7.75777 21.4934C6.36507 21.4934 5.02941 20.9401 4.04463 19.9553C3.05984 18.9705 2.50659 17.6349 2.50659 16.2422C2.50659 14.8495 3.05984 13.5138 4.04463 12.529L6.69775 9.87592C6.99064 9.58303 7.46552 9.58303 7.75841 9.87592Z" fill="white"/>
<path fill-rule="evenodd" clip-rule="evenodd" d="M12.529 4.04469C13.5138 3.0599 14.8495 2.50665 16.2422 2.50665C17.6349 2.50665 18.9705 3.0599 19.9553 4.04469C20.9401 5.02947 21.4934 6.36513 21.4934 7.75783C21.4934 9.15053 20.9401 10.4862 19.9553 11.471L17.3022 14.1241C17.0093 14.417 16.5344 14.417 16.2415 14.1241C15.9487 13.8312 15.9487 13.3563 16.2415 13.0634L18.8947 10.4103C19.5982 9.70683 19.9934 8.7527 19.9934 7.75783C19.9934 6.76296 19.5982 5.80883 18.8947 5.10535C18.1912 4.40186 17.2371 4.00665 16.2422 4.00665C15.2473 4.00665 14.2932 4.40186 13.5897 5.10535L10.9366 7.75847C10.6437 8.05136 10.1688 8.05136 9.87592 7.75847C9.58303 7.46558 9.58303 6.9907 9.87592 6.69781L12.529 4.04469Z" fill="white"/>
</svg>
