<svg width="70" height="70" viewBox="0 0 70 70" fill="none" xmlns="http://www.w3.org/2000/svg">
<path d="M8.42234 47.168H13.4023V54.188H8.42234V47.168ZM12.4303 47.972H9.39434V53.384H12.4303V47.972ZM15.3343 46.088H16.3423V56.936H15.3343V46.088ZM16.1023 50.42H18.1183V51.26H16.1023V50.42ZM26.9134 46.076H27.9094V56.948H26.9134V46.076ZM22.1854 46.916C23.7934 46.916 24.9454 48.392 24.9454 50.696C24.9454 53.012 23.7934 54.488 22.1854 54.488C20.5894 54.488 19.4374 53.012 19.4374 50.696C19.4374 48.392 20.5894 46.916 22.1854 46.916ZM22.1854 47.816C21.1294 47.816 20.3854 48.944 20.3854 50.696C20.3854 52.46 21.1294 53.612 22.1854 53.612C23.2534 53.612 23.9854 52.46 23.9854 50.696C23.9854 48.944 23.2534 47.816 22.1854 47.816ZM38.3845 46.088H39.3445V56.936H38.3845V46.088ZM34.8085 50.216H36.6085V51.092H34.8085V50.216ZM36.2845 46.352H37.2325V56.372H36.2845V46.352ZM30.1765 47.456H35.1325V48.272H30.1765V47.456ZM30.0805 54.272L29.9605 53.432C31.3645 53.432 33.7165 53.384 35.3605 53.168L35.4325 53.9C33.7405 54.224 31.4725 54.272 30.0805 54.272ZM31.0645 47.984H31.9765V53.66H31.0645V47.984ZM33.3205 47.984H34.2325V53.66H33.3205V47.984ZM48.9915 46.076H49.9875V56.948H48.9915V46.076ZM44.2635 46.916C45.8715 46.916 47.0235 48.392 47.0235 50.696C47.0235 53.012 45.8715 54.488 44.2635 54.488C42.6675 54.488 41.5155 53.012 41.5155 50.696C41.5155 48.392 42.6675 46.916 44.2635 46.916ZM44.2635 47.816C43.2075 47.816 42.4635 48.944 42.4635 50.696C42.4635 52.46 43.2075 53.612 44.2635 53.612C45.3315 53.612 46.0635 52.46 46.0635 50.696C46.0635 48.944 45.3315 47.816 44.2635 47.816ZM55.0266 47.636H55.8306V49.4C55.8306 51.692 54.4506 53.996 52.7226 54.848L52.1466 54.056C53.7186 53.312 55.0266 51.272 55.0266 49.4V47.636ZM55.2186 47.636H56.0226V49.4C56.0226 51.236 57.3306 53.108 58.9266 53.792L58.3626 54.584C56.6106 53.768 55.2186 51.656 55.2186 49.4V47.636ZM52.5066 47.192H58.5666V48.032H52.5066V47.192ZM60.0306 46.088H61.0266V56.936H60.0306V46.088Z" fill="white"/>
<path d="M35 11C28.3726 11 23 16.3726 23 23C23 29.6274 28.3726 35 35 35C41.6274 35 47 29.6274 47 23C47 16.3726 41.6274 11 35 11Z" stroke="#EDEDFE" stroke-linecap="round" stroke-linejoin="round"/>
<path d="M25.7251 30.6148C25.7251 30.6148 28.3999 27.2 34.9999 27.2C41.5999 27.2 44.2748 30.6148 44.2748 30.6148" stroke="#EDEDFE" stroke-linecap="round" stroke-linejoin="round"/>
<path d="M34.9999 23C36.9882 23 38.5999 21.3883 38.5999 19.4C38.5999 17.4118 36.9882 15.8 34.9999 15.8C33.0116 15.8 31.3999 17.4118 31.3999 19.4C31.3999 21.3883 33.0116 23 34.9999 23Z" stroke="#EDEDFE" stroke-linecap="round" stroke-linejoin="round"/>
</svg>
