<svg width="31" height="29" viewBox="0 0 31 29" fill="none" xmlns="http://www.w3.org/2000/svg">
<g filter="url(#filter0_d_17_309)">
<path d="M24.2913 2.61183C23.7805 2.10083 23.1741 1.69547 22.5066 1.41891C21.8392 1.14235 21.1238 1 20.4013 1C19.6788 1 18.9634 1.14235 18.2959 1.41891C17.6285 1.69547 17.022 2.10083 16.5113 2.61183L15.4513 3.67183L14.3913 2.61183C13.3596 1.58013 11.9603 1.00053 10.5013 1.00053C9.04226 1.00053 7.64298 1.58013 6.61129 2.61183C5.5796 3.64352 5 5.04279 5 6.50183C5 7.96086 5.5796 9.36013 6.61129 10.3918L7.67129 11.4518L15.4513 19.2318L23.2313 11.4518L24.2913 10.3918C24.8023 9.88107 25.2076 9.27464 25.4842 8.60718C25.7608 7.93972 25.9031 7.22431 25.9031 6.50183C25.9031 5.77934 25.7608 5.06393 25.4842 4.39647C25.2076 3.72901 24.8023 3.12258 24.2913 2.61183Z" fill="#FD5D2B"/>
<path d="M24.2913 2.61183C23.7805 2.10083 23.1741 1.69547 22.5066 1.41891C21.8392 1.14235 21.1238 1 20.4013 1C19.6788 1 18.9634 1.14235 18.2959 1.41891C17.6285 1.69547 17.022 2.10083 16.5113 2.61183L15.4513 3.67183L14.3913 2.61183C13.3596 1.58013 11.9603 1.00053 10.5013 1.00053C9.04226 1.00053 7.64298 1.58013 6.61129 2.61183C5.5796 3.64352 5 5.04279 5 6.50183C5 7.96086 5.5796 9.36013 6.61129 10.3918L7.67129 11.4518L15.4513 19.2318L23.2313 11.4518L24.2913 10.3918C24.8023 9.88107 25.2076 9.27464 25.4842 8.60718C25.7608 7.93972 25.9031 7.22431 25.9031 6.50183C25.9031 5.77934 25.7608 5.06393 25.4842 4.39647C25.2076 3.72901 24.8023 3.12258 24.2913 2.61183Z" stroke="#FD5D2B" stroke-width="2" stroke-linecap="round" stroke-linejoin="round"/>
</g>
<defs>
<filter id="filter0_d_17_309" x="0" y="0" width="30.9031" height="28.2318" filterUnits="userSpaceOnUse" color-interpolation-filters="sRGB">
<feFlood flood-opacity="0" result="BackgroundImageFix"/>
<feColorMatrix in="SourceAlpha" type="matrix" values="0 0 0 0 0 0 0 0 0 0 0 0 0 0 0 0 0 0 127 0" result="hardAlpha"/>
<feOffset dy="4"/>
<feGaussianBlur stdDeviation="2"/>
<feComposite in2="hardAlpha" operator="out"/>
<feColorMatrix type="matrix" values="0 0 0 0 0 0 0 0 0 0 0 0 0 0 0 0 0 0 0.25 0"/>
<feBlend mode="normal" in2="BackgroundImageFix" result="effect1_dropShadow_17_309"/>
<feBlend mode="normal" in="SourceGraphic" in2="effect1_dropShadow_17_309" result="shape"/>
</filter>
</defs>
</svg>
