<svg xmlns="http://www.w3.org/2000/svg" width="24" height="23.996" viewBox="0 0 24 23.996">
    <path fill="#697584" d="M25.139 8.856A.857.857 0 0 0 26 8V4.571A2.571 2.571 0 0 0 23.425 2H4.571A2.571 2.571 0 0 0 2 4.571v18.854A2.571 2.571 0 0 0 4.571 26h18.854A2.571 2.571 0 0 0 26 23.425V10.57a.6.6 0 0 0 0-.12 1.226 1.226 0 0 0 0-.189 1.046 1.046 0 0 0-.1-.163.711.711 0 0 0-.06-.111 1.011 1.011 0 0 0-.154-.111.943.943 0 0 0-.12-.077h-.129l-.291-.086h-.309a1.046 1.046 0 0 0-.163.1l-.111.06-9.7 8.939-4.563-4.565a.857.857 0 0 0-1.174 0l-5.412 4.722V4.571a.857.857 0 0 1 .857-.857h18.854a.857.857 0 0 1 .857.857V8a.857.857 0 0 0 .857.856zM9.713 16.029L13.673 20a1.714 1.714 0 0 0 2.365.051l8.244-7.533v10.91a.857.857 0 0 1-.857.857H4.571a.857.857 0 0 1-.857-.857V21.24zm3.428-7.173a3.428 3.428 0 1 0 3.428-3.428 3.428 3.428 0 0 0-3.428 3.428zm5.142 0a1.714 1.714 0 1 1-1.714-1.714 1.714 1.714 0 0 1 1.714 1.714z" transform="translate(-2 -2)"/>
</svg>
