<svg xmlns="http://www.w3.org/2000/svg" width="42" height="42" viewBox="0 0 42 42">
    <defs>
        <style>
            .cls-1{fill:#7acc12}
        </style>
    </defs>
    <g id="check" transform="translate(-100.014 -100.332)">
        <g id="그룹_472" transform="translate(100.014 100.332)">
            <g id="그룹_469" transform="translate(0 0)">
                <g id="그룹_468">
                    <path id="패스_204" d="M134.419 107.914c.377.383.744.775 1.091 1.183.158.189.316.377.469.571l.112.143c-.163-.214-.01-.01.02.025.082.107.163.214.24.326a19.739 19.739 0 0 1 1.6 2.627c.107.214.214.428.311.643.051.107.1.214.148.326.02.046.041.087.056.133s.036.087.056.133c-.056-.133-.061-.148-.02-.046.189.459.362.923.515 1.4a20.537 20.537 0 0 1 .709 2.871c.02.117.036.229.056.347l.031.209c.01.087.061.122-.01-.061a3.487 3.487 0 0 1 .087.765c.046.49.071.979.082 1.469s0 .979-.031 1.474c-.015.235-.031.464-.051.7a2.937 2.937 0 0 1-.087.765c.092-.23.01-.092 0 .005-.005.046-.015.092-.02.138l-.061.383c-.046.255-.092.51-.143.76-.1.485-.219.964-.357 1.438-.143.49-.3.969-.479 1.443a6.159 6.159 0 0 1-.26.663c.01-.02.092-.214.02-.046-.031.066-.056.133-.087.194-.056.133-.117.26-.178.388a19.754 19.754 0 0 1-1.488 2.637c-.138.2-.275.4-.418.6-.071.1-.143.2-.219.3-.005.01-.153.2-.056.071s-.087.107-.1.127c-.321.408-.663.806-1.019 1.183a20.191 20.191 0 0 1-2.3 2.127c-.041.031-.224.2-.025.02-.036.031-.082.061-.117.087-.1.071-.194.148-.3.219q-.329.237-.658.459c-.423.281-.856.546-1.295.791s-.907.485-1.371.7c-.107.051-.214.1-.326.148l-.163.071c-.219.1.158-.061.015-.005-.24.1-.484.194-.729.286a19.516 19.516 0 0 1-2.88.821c-.229.046-.459.092-.693.128-.117.02-.229.036-.347.056-.046.005-.092.015-.138.02s-.092.015-.138.02c.153-.02.178-.025.061-.01-.489.061-.974.107-1.468.133a20.234 20.234 0 0 1-2.941-.061c-.234-.02-.464-.056-.7-.076.316.025-.071-.01-.148-.02-.138-.02-.275-.046-.418-.066-.484-.082-.968-.184-1.442-.306s-.953-.26-1.422-.413a8.816 8.816 0 0 1-1.4-.52c.25.138-.076-.036-.148-.066-.117-.051-.24-.107-.357-.163-.24-.112-.474-.224-.708-.347-.449-.23-.887-.479-1.32-.745s-.877-.566-1.3-.872l-.3-.219c-.041-.031-.153-.112.031.025-.061-.046-.117-.092-.173-.138q-.321-.252-.627-.52a20.389 20.389 0 0 1-2.217-2.234c-.158-.189-.316-.377-.469-.571-.01-.01-.153-.2-.056-.071s-.046-.061-.056-.071c-.087-.117-.173-.235-.26-.357-.3-.413-.576-.842-.841-1.275s-.51-.872-.734-1.321c-.107-.214-.214-.428-.311-.643-.051-.107-.1-.214-.148-.326-.031-.066-.056-.133-.087-.194-.1-.229.087.209-.005-.02a21.026 21.026 0 0 1-.923-2.825c-.122-.49-.224-.984-.306-1.479-.02-.117-.036-.23-.056-.347-.01-.056-.015-.117-.025-.173-.036-.235.02.184.005.026-.031-.255-.061-.51-.082-.765a20.743 20.743 0 0 1-.046-2.978c.015-.235.031-.464.056-.7.01-.117.025-.235.036-.347l.015-.138c.005-.061.056-.388.01-.077.076-.485.153-.974.255-1.454a19.766 19.766 0 0 1 .831-2.846c.082-.219.189-.439.26-.663-.087.275.036-.082.066-.148.056-.133.117-.26.178-.388.214-.454.443-.9.688-1.341s.515-.872.8-1.3c.138-.2.275-.4.418-.6.076-.107.158-.219.24-.326.036-.046.143-.189-.005 0 .046-.061.092-.117.138-.173a19.872 19.872 0 0 1 2.166-2.326c.392-.362.8-.7 1.218-1.035.041-.031.143-.127-.031.026.056-.046.117-.092.178-.133.1-.071.2-.148.3-.214.219-.158.438-.306.663-.454a20.238 20.238 0 0 1 2.64-1.469c.107-.051.214-.1.326-.148l.163-.071c.143-.061-.234.1-.015.005.24-.1.484-.194.729-.286.464-.168.938-.321 1.412-.459s.953-.25 1.437-.352c.229-.046.459-.092.693-.128.117-.02.229-.036.347-.056l.209-.031c.245-.036-.24.031.005 0a20.9 20.9 0 0 1 2.936-.153c.5.01 1 .041 1.5.087.117.01.234.025.347.036.056.005.117.015.173.02.02.005.255.026.071.01s.051.005.071.01l.209.031.382.061a20.3 20.3 0 0 1 2.9.734c.224.076.449.153.668.235.112.041.219.082.331.128.046.015.087.036.133.051s.352.158.087.036c.454.209.912.408 1.356.638a18.967 18.967 0 0 1 2.584 1.6l.3.219c.2.153-.173-.138.025.02l.117.092c.194.153.382.311.571.469.4.357.79.714 1.157 1.086a1.03 1.03 0 0 0 1.442 0 1.041 1.041 0 0 0 0-1.443 20.968 20.968 0 0 0-11.3-5.85A21.352 21.352 0 0 0 112.1 102.3a21.008 21.008 0 1 0 25.909 6.686 21.961 21.961 0 0 0-2.146-2.519 1.035 1.035 0 0 0-1.442 0 1.053 1.053 0 0 0-.002 1.447z" class="cls-1" transform="translate(-100.014 -100.332)"/>
                </g>
            </g>
            <g id="그룹_471" transform="translate(9.97 13.446)">
                <g id="그룹_470">
                    <path id="패스_205" d="M319.894 366.458l-1.345 1.345-3.208 3.208-3.88 3.88-3.368 3.368c-.543.543-1.117 1.066-1.635 1.635-.005.01-.016.016-.026.026h1.468c-.8-.8-1.6-1.609-2.406-2.411q-1.925-1.932-3.854-3.865c-.295-.295-.585-.59-.879-.885a1.035 1.035 0 0 0-1.464 1.464c.8.8 1.6 1.609 2.406 2.411q1.925 1.932 3.854 3.865c.295.295.585.59.88.885a1.056 1.056 0 0 0 1.464 0l1.345-1.345 3.208-3.208 3.88-3.88 3.368-3.368c.543-.543 1.107-1.076 1.635-1.635.005-.01.016-.016.026-.026a1.035 1.035 0 0 0-1.464-1.464z" class="cls-1" transform="translate(-298.998 -366.161)"/>
                </g>
            </g>
        </g>
    </g>
</svg>
