<svg width="54" height="16" viewBox="0 0 54 16" fill="none" xmlns="http://www.w3.org/2000/svg">
<path d="M48.181 4.10597C49.6499 5.57704 51.0588 7.04912 52.6028 8.51819V7.5836C51.1699 9.01456 49.731 10.4455 48.2972 11.8765C48.1752 12.0002 48.1068 12.1671 48.107 12.341C48.1073 12.5148 48.176 12.6816 48.2983 12.805C48.4206 12.9284 48.5866 12.9985 48.7602 13C48.9338 13.0015 49.1009 12.9343 49.2254 12.8131C50.6546 11.3818 52.0824 9.95083 53.509 8.5202C53.6314 8.39516 53.7 8.22702 53.7 8.0519C53.7 7.87678 53.6314 7.70864 53.509 7.5836L49.1032 3.17138C48.9774 3.05711 48.8125 2.99581 48.6427 3.00022C48.473 3.00463 48.3115 3.07442 48.1918 3.19506C48.0721 3.3157 48.0034 3.47791 48.0001 3.64795C47.9968 3.81798 48.0591 3.98275 48.174 4.10797L48.181 4.10597Z" fill="#697584"/>
<path d="M6.852 8.188C5.304 7.66 4.248 6.316 4.248 4.864V3.676H3.264V4.78C3.264 6.424 2.22 7.888 0.588 8.476L1.104 9.256C2.364 8.776 3.324 7.792 3.768 6.532C4.248 7.636 5.172 8.524 6.336 8.956L6.852 8.188ZM5.568 13.108C3.972 13.108 3 12.664 3 11.92C3 11.164 3.972 10.72 5.568 10.72C7.152 10.72 8.124 11.164 8.124 11.92C8.124 12.664 7.152 13.108 5.568 13.108ZM5.568 9.952C3.372 9.952 2.016 10.66 2.016 11.92C2.016 13.168 3.372 13.876 5.568 13.876C7.752 13.876 9.108 13.168 9.108 11.92C9.108 10.66 7.752 9.952 5.568 9.952ZM8.988 5.908V3.136H8.004V9.652H8.988V6.724H10.584V5.908H8.988ZM14.8671 4.144H13.9191V6.196C13.9191 8.044 13.0311 9.976 11.5551 10.84L12.1671 11.572C13.2351 10.912 14.0151 9.7 14.3991 8.272C14.7831 9.58 15.5031 10.72 16.5231 11.344L17.0871 10.576C15.6711 9.712 14.8671 7.888 14.8671 6.16V4.144ZM17.6991 6.988H15.9231V7.804H17.6991V13.36H18.6231V3.364H17.6991V6.988ZM19.8831 3.124V13.888H20.8191V3.124H19.8831ZM24.8381 6.616H30.3341V8.596H24.8381V6.616ZM28.0781 11.704V9.388H31.2941V3.892H30.3341V5.812H24.8381V3.892H23.8661V9.388H27.0821V11.704H22.7141V12.508H32.4701V11.704H28.0781ZM34.3892 4.288V5.08H38.4332C38.2292 7.636 36.7892 9.7 33.8972 11.08L34.4252 11.884C38.0012 10.132 39.4292 7.396 39.4292 4.288H34.3892ZM41.6012 3.124V13.888H42.5852V3.124H41.6012Z" fill="#697584"/>
</svg>
