<svg xmlns="http://www.w3.org/2000/svg" width="117" height="117" viewBox="0 0 117 117">
    <defs>
        <style>
            .cls-2{fill:#7acc12}
        </style>
    </defs>
    <g id="그룹_498" transform="translate(-122 -253)">
        <path id="사각형_500" fill="none" d="M0 0H117V117H0z" transform="translate(122 253)"/>
        <g id="noun_Face_ID_1900474" transform="translate(130 262)">
            <g id="그룹_464">
                <path id="패스_193" d="M33.182 34.772a2.5 2.5 0 0 0-2.5 2.5v7.273a2.5 2.5 0 0 0 5 0v-7.273a2.5 2.5 0 0 0-2.5-2.5z" class="cls-2"/>
                <path id="패스_194" d="M66.818 47.045a2.5 2.5 0 0 0 2.5-2.5v-7.273a2.5 2.5 0 0 0-5 0v7.273a2.5 2.5 0 0 0 2.5 2.5z" class="cls-2"/>
                <path id="패스_195" d="M66.768 65.5a2.5 2.5 0 0 0-3.535 0 18.715 18.715 0 0 1-26.464 0 2.5 2.5 0 0 0-3.535 3.535 23.715 23.715 0 0 0 33.536 0 2.5 2.5 0 0 0-.002-3.535z" class="cls-2"/>
                <path id="패스_196" d="M47.2 60.15a7.171 7.171 0 0 0 7.575-7.575v-15.3a2.5 2.5 0 0 0-5 0v15.3c0 2.282-1.376 2.575-2.575 2.575a2.5 2.5 0 0 0 0 5z" class="cls-2"/>
                <path id="패스_197" d="M7.5 39.772a2.5 2.5 0 0 0 2.5-2.5V24.5A14.516 14.516 0 0 1 24.5 10h8.228a2.5 2.5 0 1 0 0-5H24.5A19.523 19.523 0 0 0 5 24.5v12.773a2.5 2.5 0 0 0 2.5 2.499z" class="cls-2"/>
                <path id="패스_198" d="M32.727 90H24.5A14.516 14.516 0 0 1 10 75.5V62.728a2.5 2.5 0 0 0-5 0V75.5A19.522 19.522 0 0 0 24.5 95h8.228a2.5 2.5 0 1 0 0-5z" class="cls-2"/>
                <path id="패스_199" d="M75.5 5h-8.228a2.5 2.5 0 0 0 0 5H75.5A14.516 14.516 0 0 1 90 24.5v12.773a2.5 2.5 0 0 0 5 0V24.5A19.523 19.523 0 0 0 75.5 5z" class="cls-2"/>
                <path id="패스_200" d="M92.5 60.228a2.5 2.5 0 0 0-2.5 2.5V75.5A14.516 14.516 0 0 1 75.5 90h-8.228a2.5 2.5 0 0 0 0 5H75.5A19.522 19.522 0 0 0 95 75.5V62.728a2.5 2.5 0 0 0-2.5-2.5z" class="cls-2"/>
            </g>
        </g>
    </g>
</svg>
