<svg xmlns="http://www.w3.org/2000/svg" width="117" height="117" viewBox="0 0 117 117">
    <g>
        <path fill="none" d="M0 0H117V117H0z" transform="translate(-122 -253) translate(122 253)"/>
        <g>
            <g>
                <g>
                    <path fill="#d0d6de" d="M39.9 83.039a2.184 2.184 0 0 1-1.411-.523 2.25 2.25 0 0 1-.265-3.144c.483-.586.967-1.2 1.427-1.8S40.56 76.34 41 75.714s.865-1.275 1.271-1.916.811-1.315 1.193-1.98.756-1.346 1.107-2.035S45.27 68.4 45.6 67.7s.639-1.417.943-2.13.585-1.449.85-2.178.522-1.481.756-2.225.46-1.513.663-2.273.4-1.536.569-2.312.335-1.568.468-2.352.265-1.592.374-2.384.195-1.615.265-2.415.125-1.631.164-2.447.055-1.655.055-2.479v-.032c0-.238-.016-.475-.039-.713s-.055-.459-.1-.689-.1-.443-.164-.657a6.435 6.435 0 0 0-.515-1.235 5.238 5.238 0 0 0-.343-.57c-.125-.182-.257-.364-.39-.531s-.288-.333-.437-.491a6.3 6.3 0 0 0-.483-.443 6.061 6.061 0 0 0-.522-.4c-.179-.127-.366-.238-.561-.348s-.39-.206-.593-.293a5.9 5.9 0 0 0-.624-.23 5.67 5.67 0 0 0-.655-.166 6.368 6.368 0 0 0-.678-.1 6.852 6.852 0 0 0-1.4 0 6.685 6.685 0 0 0-.678.1c-.218.048-.437.1-.647.166a6.232 6.232 0 0 0-1.216.523 5.129 5.129 0 0 0-.561.348 6.5 6.5 0 0 0-.522.4c-.164.143-.327.293-.483.443a6.331 6.331 0 0 0-.437.491 6.141 6.141 0 0 0-.39.531c-.125.182-.234.372-.343.57s-.2.4-.288.6a6.114 6.114 0 0 0-.226.634 6.219 6.219 0 0 0-.164.657c-.047.23-.078.459-.1.689s-.039.475-.039.713v.032c0 .76-.023 1.52-.062 2.281-.039.744-.1 1.5-.187 2.241s-.187 1.481-.3 2.209-.265 1.449-.421 2.17-.343 1.425-.538 2.122-.413 1.394-.647 2.075-.483 1.362-.756 2.027-.554 1.322-.858 1.972-.624 1.291-.959 1.916-.686 1.243-1.053 1.853-.749 1.2-1.146 1.79-.811 1.156-1.24 1.718-.881 1.122-1.333 1.649-.928 1.061-1.4 1.568-.982 1.014-1.489 1.5-1.029.958-1.559 1.41a2.175 2.175 0 0 1-3.1-.269 2.257 2.257 0 0 1 .265-3.144c.468-.4.936-.824 1.388-1.251s.9-.879 1.318-1.33.85-.919 1.248-1.394.8-.966 1.177-1.465.749-1.014 1.1-1.528.694-1.053 1.021-1.584.639-1.093.936-1.647.585-1.124.85-1.695.522-1.164.764-1.75.46-1.2.671-1.8.4-1.227.577-1.845.335-1.251.476-1.885.265-1.283.374-1.924.2-1.307.273-1.964.133-1.33.164-2 .055-1.354.055-2.027v-.032a11.632 11.632 0 0 1 .055-1.164 11.012 11.012 0 0 1 .172-1.132 10.649 10.649 0 0 1 .273-1.093q.164-.535.374-1.045t.468-1c.172-.317.359-.634.561-.934s.413-.594.647-.879a10.056 10.056 0 0 1 .725-.808c.25-.253.522-.507.8-.736s.561-.451.858-.657.608-.4.92-.57.647-.333.982-.475.686-.269 1.029-.38a9.752 9.752 0 0 1 1.076-.277 10.535 10.535 0 0 1 1.115-.174 11.015 11.015 0 0 1 2.285 0 10.535 10.535 0 0 1 1.115.174c.359.079.725.166 1.076.277s.694.238 1.029.38a9.427 9.427 0 0 1 .982.483c.312.174.624.364.92.57a9.894 9.894 0 0 1 .858.657 10.016 10.016 0 0 1 .8.736c.25.253.5.531.725.808s.444.57.647.871.39.618.561.934.327.657.468 1 .265.7.374 1.045a10.158 10.158 0 0 1 .273 1.093 11.011 11.011 0 0 1 .172 1.132 11.521 11.521 0 0 1 .055 1.164v.032c0 .895-.023 1.79-.062 2.677s-.1 1.774-.179 2.653-.172 1.75-.288 2.613-.25 1.726-.4 2.582-.32 1.7-.507 2.542-.4 1.679-.616 2.5-.468 1.647-.717 2.455-.53 1.615-.819 2.407-.6 1.584-.92 2.36-.663 1.552-1.021 2.312-.725 1.513-1.115 2.257-.788 1.481-1.2 2.2-.85 1.441-1.294 2.138-.9 1.4-1.38 2.075-.959 1.354-1.458 2.011-1.014 1.315-1.544 1.948a2.152 2.152 0 0 1-1.693.806zm12.384-.847a2.361 2.361 0 0 1-1.226-.351 2.159 2.159 0 0 1-.673-3.034c.4-.608.8-1.232 1.186-1.856s.761-1.263 1.122-1.895.713-1.287 1.049-1.942.673-1.318.985-1.981.625-1.341.913-2.02.577-1.365.841-2.051.529-1.388.769-2.09.481-1.411.7-2.121.425-1.435.617-2.152.377-1.458.545-2.183a2.256 2.256 0 0 1 2.688-1.668 2.195 2.195 0 0 1 1.714 2.62c-.176.78-.369 1.567-.577 2.339s-.425 1.544-.665 2.308-.481 1.521-.745 2.269-.537 1.5-.825 2.238-.593 1.474-.905 2.2-.641 1.443-.977 2.16-.691 1.418-1.051 2.118-.737 1.4-1.13 2.074-.785 1.365-1.194 2.035-.833 1.333-1.266 1.989a2.3 2.3 0 0 1-1.898.994zM30.24 80.5a2.226 2.226 0 0 1-1.557-3.82c.522-.506 1.027-1.028 1.525-1.558s.98-1.084 1.446-1.637.925-1.123 1.367-1.7.869-1.17 1.28-1.772.814-1.218 1.2-1.835.759-1.257 1.106-1.9.7-1.3 1.019-1.953.632-1.337.925-2.009.569-1.368.822-2.056.5-1.4.727-2.112.435-1.431.624-2.151.363-1.463.514-2.2.292-1.495.4-2.238.213-1.518.292-2.278.142-1.542.182-2.309.063-1.566.063-2.341a2.228 2.228 0 1 1 4.457 0c0 .854-.024 1.724-.063 2.57s-.111 1.7-.2 2.539-.2 1.677-.324 2.5-.277 1.645-.443 2.46-.356 1.621-.569 2.42-.435 1.59-.68 2.373-.514 1.558-.8 2.317-.585 1.518-.909 2.262-.644 1.488-1.002 2.207-.727 1.447-1.122 2.151-.8 1.4-1.217 2.08-.861 1.36-1.32 2.017-.925 1.313-1.414 1.946-.988 1.265-1.5 1.874-1.051 1.21-1.588 1.8-1.106 1.163-1.675 1.716a2.212 2.212 0 0 1-1.566.637zm35.274-4.233a2.133 2.133 0 0 1-.87-.181 2.218 2.218 0 0 1-1.16-2.908c.235-.542.462-1.1.682-1.65s.439-1.116.643-1.674.408-1.132.6-1.69.384-1.139.564-1.713.353-1.155.517-1.729.329-1.163.478-1.745.3-1.179.431-1.768.266-1.194.392-1.784.243-1.2.345-1.8.212-1.21.306-1.815.18-1.218.259-1.831.149-1.234.212-1.847.118-1.242.165-1.855.086-1.249.118-1.87.055-1.257.071-1.886.023-1.265.023-1.894V44.6c0-.857-.047-1.713-.125-2.562-.086-.833-.212-1.666-.376-2.483-.165-.8-.368-1.611-.611-2.4s-.525-1.548-.839-2.295-.666-1.477-1.05-2.185-.8-1.4-1.246-2.059-.925-1.312-1.434-1.925-1.05-1.21-1.607-1.776-1.16-1.108-1.771-1.611-1.262-.99-1.92-1.438-1.356-.872-2.053-1.249-1.442-.739-2.179-1.053-1.52-.6-2.288-.841c-.784-.244-1.583-.448-2.39-.613s-1.646-.291-2.476-.377a2.216 2.216 0 0 1 .447-4.409c.98.1 1.959.251 2.915.448s1.9.44 2.813.723 1.818.621 2.7.99 1.732.786 2.57 1.242c.823.448 1.638.943 2.422 1.477s1.536 1.092 2.257 1.69 1.418 1.234 2.085 1.9 1.3 1.367 1.9 2.09a27.744 27.744 0 0 1 1.685 2.263c.525.786 1.019 1.6 1.473 2.428a27.8 27.8 0 0 1 1.238 2.578c.368.88.705 1.792.987 2.7a27.564 27.564 0 0 1 .721 2.821c.2.959.345 1.941.447 2.923a29.543 29.543 0 0 1 .149 3.01v.031c0 .668-.008 1.344-.024 2.012s-.039 1.336-.078 2-.078 1.328-.125 1.98-.11 1.32-.18 1.972-.141 1.3-.227 1.957-.172 1.3-.274 1.941-.2 1.289-.321 1.925-.235 1.281-.368 1.91-.266 1.265-.415 1.894-.3 1.257-.462 1.87-.329 1.242-.509 1.855-.36 1.234-.549 1.839-.392 1.218-.6 1.815-.415 1.2-.635 1.8-.447 1.187-.682 1.776-.478 1.179-.721 1.752a2.243 2.243 0 0 1-2.05 1.33zm-49.685-6.773a2.2 2.2 0 0 1-1.738-.859 2.271 2.271 0 0 1 .368-3.148c.376-.294.744-.612 1.1-.93s.7-.652 1.041-.986.673-.692.986-1.041.634-.723.932-1.1.6-.755.869-1.145.548-.795.806-1.2.509-.827.744-1.24.462-.851.673-1.288.415-.882.6-1.328.368-.906.532-1.367.321-.93.454-1.407.266-.954.376-1.439.211-.978.3-1.471.157-1 .219-1.5.1-1.017.133-1.526c.023-.413.039-.827.039-1.24a2.538 2.538 0 0 1-.023-.35 21.08 21.08 0 0 1 .1-2.107c.07-.684.172-1.375.305-2.043s.305-1.328.5-1.979c.2-.636.423-1.28.681-1.892s.54-1.216.853-1.8.65-1.153 1.018-1.7a19.035 19.035 0 0 1 1.167-1.582c.415-.509.853-1 1.307-1.463a2.178 2.178 0 0 1 3.116 0 2.25 2.25 0 0 1 0 3.164c-.36.366-.7.747-1.026 1.145s-.634.819-.916 1.24a15.151 15.151 0 0 0-.791 1.328 15.345 15.345 0 0 0-.665 1.407 14.466 14.466 0 0 0-.532 1.479 15.331 15.331 0 0 0-.391 1.542 15.733 15.733 0 0 0-.243 1.6c-.047.445-.07.9-.078 1.343a2.423 2.423 0 0 1 .023.342c0 .6-.016 1.216-.055 1.812s-.086 1.2-.157 1.789-.156 1.17-.256 1.746-.219 1.153-.352 1.725-.282 1.129-.446 1.685-.344 1.1-.532 1.645-.4 1.081-.626 1.606-.462 1.049-.712 1.558-.517 1.017-.791 1.51-.572.986-.869 1.455-.618.946-.947 1.4-.673.906-1.018 1.343-.712.866-1.088 1.28-.759.827-1.159 1.216-.806.787-1.221 1.153-.846.739-1.284 1.081a1.79 1.79 0 0 1-1.326.537zm-5.006-8.466a2.307 2.307 0 0 1-1.708-.744 2.16 2.16 0 0 1 .194-3.119c.219-.188.429-.384.639-.58s.413-.4.607-.611.389-.423.575-.643.364-.439.542-.666.348-.462.5-.7.316-.478.469-.721.291-.494.429-.744.267-.509.389-.768.243-.525.348-.791.21-.541.308-.815.186-.556.267-.831.154-.564.219-.846.121-.58.17-.87.089-.588.121-.886.057-.6.073-.9.024-.611.024-.909v-.031a28.559 28.559 0 0 1 .154-3 29.168 29.168 0 0 1 .461-2.915c.2-.948.453-1.9.745-2.813a27.182 27.182 0 0 1 1.02-2.7c.38-.87.809-1.732 1.279-2.57a2.318 2.318 0 0 1 3.092-.886 2.2 2.2 0 0 1 1.19 1.943 2.146 2.146 0 0 1-.275 1.05c-.4.705-.761 1.442-1.085 2.179s-.615 1.52-.866 2.288a24.191 24.191 0 0 0-.631 2.39c-.17.815-.3 1.646-.389 2.476a24.434 24.434 0 0 0-.13 2.555v.031c0 .384-.008.768-.032 1.152s-.057.76-.1 1.136-.1.752-.162 1.121-.138.737-.219 1.1-.178.729-.275 1.081-.21.705-.332 1.058-.251.69-.389 1.034-.291.674-.445 1-.324.658-.494.98-.356.635-.542.948-.389.619-.591.917-.421.6-.639.886-.453.572-.688.846-.478.549-.729.815-.51.525-.769.776-.534.5-.809.737a2.394 2.394 0 0 1-1.517.56zm51.284-9.312a1.115 1.115 0 0 1-.16-.008 2.152 2.152 0 0 1-1.98-2.321c.053-.753.1-1.522.122-2.282s.038-1.537.038-2.306v-.031c0-.53-.03-1.068-.076-1.6a15.124 15.124 0 0 0-.236-1.545 14.246 14.246 0 0 0-.381-1.491 2.111 2.111 0 0 1-.1-.646 2.145 2.145 0 0 1 4.2-.646c.19.623.358 1.268.487 1.914s.228 1.314.3 1.975a20.036 20.036 0 0 1 .1 2.037v.034c0 .815-.015 1.645-.046 2.467s-.076 1.637-.129 2.444a2.146 2.146 0 0 1-2.139 2.004zM8.229 47.483h-.048a2.345 2.345 0 0 1-.533-.079 2.319 2.319 0 0 1-1-.577 2.191 2.191 0 0 1-.478-.719 2.239 2.239 0 0 1-.17-.831v-.229a38.582 38.582 0 0 1 .2-3.96c.135-1.288.326-2.585.589-3.85a38.152 38.152 0 0 1 2.276-7.272c.486-1.146 1.043-2.292 1.64-3.383s1.25-2.166 1.95-3.194a37.007 37.007 0 0 1 2.245-2.98c.788-.949 1.64-1.873 2.515-2.751a2.25 2.25 0 0 1 3.168 0 2.212 2.212 0 0 1 0 3.146c-.78.775-1.528 1.589-2.229 2.435s-1.369 1.731-1.99 2.64-1.2 1.866-1.727 2.83a32.458 32.458 0 0 0-1.449 3c-.438 1.028-.828 2.087-1.162 3.146a29.977 29.977 0 0 0-.868 3.273c-.231 1.122-.406 2.261-.525 3.407-.111 1.083-.167 2.19-.175 3.288.008.087.016.166.016.253v.261a2.245 2.245 0 0 1-2.245 2.146zm72.582 0a2.242 2.242 0 0 1-2.245-2.244c0-1.178-.064-2.371-.175-3.533-.119-1.146-.295-2.3-.525-3.429a33.63 33.63 0 0 0-.852-3.31c-.334-1.066-.724-2.132-1.162-3.167s-.923-2.037-1.449-3.015-1.103-1.925-1.727-2.848a32.075 32.075 0 0 0-1.99-2.657c-.7-.851-1.449-1.671-2.229-2.451a2.24 2.24 0 0 1 3.168-3.167c.876.875 1.727 1.806 2.515 2.769s1.544 1.973 2.245 3 1.353 2.116 1.95 3.214 1.154 2.252 1.64 3.405c.493 1.17.931 2.371 1.313 3.58.382 1.225.7 2.482.963 3.74a37.3 37.3 0 0 1 .589 3.875 39.082 39.082 0 0 1 .2 3.986 2.22 2.22 0 0 1-2.23 2.252zm-22.88-13.546a2.2 2.2 0 0 1-1.582-.68c-.366-.377-.747-.737-1.145-1.073s-.811-.655-1.24-.958a16.035 16.035 0 0 0-2.735-1.526 14.059 14.059 0 0 0-1.479-.557 14.788 14.788 0 0 0-1.542-.409 15.094 15.094 0 0 0-1.6-.254 15.945 15.945 0 0 0-3.307 0 15.093 15.093 0 0 0-1.6.254 2.24 2.24 0 0 1-2.64-1.8 2.326 2.326 0 0 1-.048-.467 2.3 2.3 0 0 1 1.789-2.26 19.267 19.267 0 0 1 2.043-.319 20.056 20.056 0 0 1 4.206 0c.684.074 1.375.18 2.043.319s1.328.319 1.98.524a19.56 19.56 0 0 1 1.892.712c.612.27 1.216.565 1.8.893s1.153.68 1.7 1.065a19.112 19.112 0 0 1 1.582 1.22c.509.434 1 .893 1.463 1.368a2.342 2.342 0 0 1 0 3.259 2.229 2.229 0 0 1-1.58.689zM25.2 27.165a2.288 2.288 0 0 1-1.6-.652 2.166 2.166 0 0 1 0-3.129c.676-.66 1.4-1.3 2.14-1.9a28.371 28.371 0 0 1 2.317-1.69c.8-.527 1.633-1.022 2.486-1.478a28.718 28.718 0 0 1 2.639-1.242c.9-.369 1.834-.707 2.768-.99a28.7 28.7 0 0 1 2.888-.723 2.263 2.263 0 0 1 2.671 1.729 2.122 2.122 0 0 1 .048.448 2.236 2.236 0 0 1-1.81 2.17c-.821.165-1.649.369-2.454.613s-1.585.527-2.349.841-1.513.668-2.237 1.053-1.432.8-2.108 1.25-1.344.928-1.971 1.439-1.239 1.053-1.818 1.611a2.287 2.287 0 0 1-1.61.65zm39.59-10.159a2.073 2.073 0 0 1-1.2-.391 31.83 31.83 0 0 0-2.735-1.766 30.655 30.655 0 0 0-2.895-1.481 32.4 32.4 0 0 0-3.04-1.188 2.315 2.315 0 0 1-1.413-2.873 2.122 2.122 0 0 1 2.7-1.506 34.837 34.837 0 0 1 3.437 1.343c1.108.5 2.215 1.066 3.277 1.677s2.093 1.278 3.086 1.994A2.387 2.387 0 0 1 66.586 16a2.143 2.143 0 0 1-1.795 1.006zm-37.92-2.54a2.261 2.261 0 0 1-1.97-1.111 2.074 2.074 0 0 1 .9-2.887c1.1-.568 2.248-1.097 3.4-1.558 1.17-.469 2.371-.884 3.589-1.247S35.273 7 36.53 6.748c1.273-.249 2.578-.438 3.875-.559C41.718 6.06 43.063 6 44.392 6a2.187 2.187 0 0 1 2.244 2.132 2.181 2.181 0 0 1-2.244 2.124c-1.178 0-2.371.06-3.533.166-1.146.113-2.3.28-3.43.5-1.114.219-2.228.484-3.31.809-1.066.317-2.141.688-3.167 1.1s-2.037.877-3.016 1.376a2.353 2.353 0 0 1-1.066.259z" transform="translate(-122 -253) translate(135.98 266.98) translate(6 6) translate(-6 -6)"/>
                </g>
            </g>
        </g>
    </g>
</svg>
