<svg xmlns="http://www.w3.org/2000/svg" width="116" height="116" viewBox="0 0 116 116">
    <defs>
        <style>
            .cls-2{fill:#d0d6de}
        </style>
    </defs>
    <g id="그룹_645" transform="translate(-204 -257)">
        <path id="사각형_500" fill="none" d="M0 0H116V116H0z" transform="translate(204 257)"/>
        <g id="그룹_646">
            <g id="noun_Face_ID_1900474" transform="translate(212.549 267.468)">
                <g id="그룹_464" transform="translate(0 0)">
                    <path id="패스_193" d="M32.551 34.772a1.869 1.869 0 0 0-1.869 1.869v5.438a1.869 1.869 0 1 0 3.739 0v-5.438a1.869 1.869 0 0 0-1.87-1.869z" class="cls-2" transform="translate(-11.479 -12.511)"/>
                    <path id="패스_194" d="M66.187 43.949a1.869 1.869 0 0 0 1.869-1.869v-5.439a1.869 1.869 0 1 0-3.739 0v5.438a1.869 1.869 0 0 0 1.87 1.87z" class="cls-2" transform="translate(-19.966 -12.511)"/>
                    <path id="패스_195" d="M58.123 65.32a1.868 1.868 0 0 0-2.643 0 13.993 13.993 0 0 1-19.787 0 1.869 1.869 0 0 0-2.643 2.643 17.732 17.732 0 0 0 25.075 0 1.871 1.871 0 0 0-.002-2.643z" class="cls-2" transform="translate(-11.938 -20.08)"/>
                    <path id="패스_196" d="M46.566 53.747a5.362 5.362 0 0 0 5.664-5.664V36.641a1.869 1.869 0 1 0-3.739 0v11.442c0 1.706-1.029 1.925-1.925 1.925a1.869 1.869 0 0 0 0 3.739z" class="cls-2" transform="translate(-15.015 -12.511)"/>
                    <path id="패스_197" d="M6.869 31a1.869 1.869 0 0 0 1.87-1.87v-9.55A10.853 10.853 0 0 1 19.58 8.739h6.152a1.869 1.869 0 1 0 0-3.739H19.58A14.6 14.6 0 0 0 5 19.58v9.55A1.869 1.869 0 0 0 6.869 31z" class="cls-2" transform="translate(-5 -5)"/>
                    <path id="패스_198" d="M25.732 82.488H19.58A10.854 10.854 0 0 1 8.739 71.647V62.1A1.869 1.869 0 1 0 5 62.1v9.55a14.6 14.6 0 0 0 14.58 14.58h6.152a1.869 1.869 0 1 0 0-3.739z" class="cls-2" transform="translate(-5 -18.934)"/>
                    <path id="패스_199" d="M72.793 5h-6.152a1.869 1.869 0 0 0 0 3.739h6.152A10.854 10.854 0 0 1 83.635 19.58v9.55a1.869 1.869 0 1 0 3.739 0v-9.55A14.6 14.6 0 0 0 72.793 5z" class="cls-2" transform="translate(-20.08 -5)"/>
                </g>
            </g>
            <g id="noun_Fingerprint_1226181" transform="translate(256.63 307.458)">
                <g id="그룹_463" transform="translate(0 0)">
                    <g id="그룹_462">
                        <path id="패스_192" d="M31.345 63.6a1.633 1.633 0 0 1-1.055-.391 1.682 1.682 0 0 1-.2-2.351c.361-.438.723-.894 1.067-1.344s.682-.924 1.009-1.391.647-.953.95-1.433.606-.983.892-1.48.566-1.007.828-1.522.525-1.036.77-1.557.478-1.06.705-1.593.437-1.084.635-1.628.391-1.107.566-1.664.344-1.131.5-1.7.3-1.149.426-1.729.251-1.172.35-1.759.2-1.19.28-1.782.146-1.208.2-1.806.093-1.22.122-1.83.041-1.237.041-1.853v-.024c0-.178-.012-.355-.029-.533s-.041-.343-.076-.515-.076-.332-.122-.491a4.811 4.811 0 0 0-.385-.924 3.917 3.917 0 0 0-.257-.426c-.093-.136-.192-.272-.292-.4s-.216-.249-.326-.367a4.711 4.711 0 0 0-.361-.332 4.532 4.532 0 0 0-.391-.3c-.134-.095-.274-.178-.42-.261s-.291-.154-.443-.219a4.412 4.412 0 0 0-.466-.172 4.24 4.24 0 0 0-.49-.124 4.762 4.762 0 0 0-.507-.077 5.123 5.123 0 0 0-1.044 0 5 5 0 0 0-.507.077c-.163.036-.326.077-.484.124a4.66 4.66 0 0 0-.909.391 3.835 3.835 0 0 0-.42.261 4.861 4.861 0 0 0-.391.3c-.122.107-.245.219-.361.332a4.734 4.734 0 0 0-.326.367 4.592 4.592 0 0 0-.292.4c-.093.136-.175.278-.257.426s-.152.3-.216.45a4.572 4.572 0 0 0-.169.474 4.65 4.65 0 0 0-.122.491c-.035.172-.058.343-.076.515s-.029.355-.029.533v.024c0 .568-.017 1.137-.047 1.705s-.076 1.125-.14 1.676-.14 1.107-.227 1.652-.2 1.084-.315 1.622-.257 1.066-.4 1.587-.309 1.042-.484 1.551-.361 1.018-.566 1.516-.414.989-.641 1.474-.466.965-.717 1.433-.513.93-.787 1.386-.56.9-.857 1.338-.606.864-.927 1.285-.653.835-.991 1.232-.694.793-1.049 1.172-.735.758-1.114 1.119-.77.716-1.166 1.054a1.627 1.627 0 0 1-2.315-.2 1.688 1.688 0 0 1 .2-2.351c.35-.3.7-.616 1.038-.936s.67-.657.985-.995.635-.687.933-1.042.595-.722.88-1.1.56-.758.822-1.143.519-.787.764-1.184.478-.817.7-1.232.437-.841.635-1.267.391-.87.571-1.309.344-.894.5-1.344.3-.918.431-1.38.251-.936.356-1.409.2-.959.28-1.439.152-.977.2-1.468.1-.995.122-1.492.041-1.012.041-1.516v-.024a8.7 8.7 0 0 1 .041-.87 8.235 8.235 0 0 1 .128-.847 7.962 7.962 0 0 1 .2-.817q.122-.4.28-.782t.35-.746c.128-.237.268-.474.42-.7s.309-.444.484-.657a7.519 7.519 0 0 1 .542-.6c.187-.189.391-.379.595-.551s.42-.337.641-.491.455-.3.688-.426.484-.249.735-.355.513-.2.77-.284a7.292 7.292 0 0 1 .8-.207 7.877 7.877 0 0 1 .834-.13 8.236 8.236 0 0 1 1.708 0 7.877 7.877 0 0 1 .834.13c.268.059.542.124.8.207s.519.178.77.284a7.048 7.048 0 0 1 .735.361c.233.13.466.272.688.426a7.4 7.4 0 0 1 .641.491 7.489 7.489 0 0 1 .595.551c.187.189.373.4.542.6s.332.426.484.651.292.462.42.7.245.491.35.746.2.521.28.782a7.594 7.594 0 0 1 .2.817 8.233 8.233 0 0 1 .128.847 8.614 8.614 0 0 1 .041.87v.024c0 .669-.017 1.338-.047 2s-.076 1.326-.134 1.984-.128 1.309-.216 1.954-.187 1.291-.3 1.93-.239 1.273-.379 1.9-.3 1.255-.461 1.871-.35 1.232-.536 1.836-.4 1.208-.612 1.8-.449 1.184-.688 1.764-.5 1.161-.764 1.729-.542 1.131-.834 1.687-.589 1.107-.9 1.646-.635 1.078-.968 1.6-.676 1.048-1.032 1.551-.717 1.012-1.09 1.5S33 62.531 32.6 63a1.609 1.609 0 0 1-1.255.6zm9.255-.63a1.765 1.765 0 0 1-.916-.262 1.614 1.614 0 0 1-.5-2.268c.3-.455.6-.921.887-1.388s.569-.945.839-1.417.533-.962.785-1.452.5-.985.737-1.481.467-1 .683-1.51.431-1.02.629-1.533.4-1.038.575-1.563.359-1.055.521-1.586.317-1.073.461-1.609.282-1.09.407-1.633a1.687 1.687 0 0 1 2.013-1.248A1.641 1.641 0 0 1 49 45.979c-.132.583-.276 1.172-.431 1.749s-.317 1.154-.5 1.726-.359 1.137-.557 1.7-.4 1.12-.617 1.673-.443 1.1-.677 1.644-.479 1.079-.731 1.615-.515 1.061-.785 1.586-.551 1.044-.845 1.551-.587 1.02-.893 1.522-.623 1-.946 1.487a1.721 1.721 0 0 1-1.418.738zM24.124 61.7a1.665 1.665 0 0 1-1.164-2.856c.39-.378.768-.769 1.14-1.165s.733-.81 1.081-1.224.691-.84 1.022-1.271.65-.875.957-1.325.609-.911.9-1.372.567-.94.827-1.419.52-.97.762-1.461.473-1 .691-1.5.425-1.023.614-1.537.372-1.047.544-1.579.325-1.07.467-1.608.272-1.094.384-1.644.219-1.118.3-1.673.16-1.135.219-1.7.106-1.153.136-1.727.047-1.171.047-1.75a1.666 1.666 0 1 1 3.332 0c0 .639-.018 1.289-.047 1.922s-.083 1.271-.148 1.9-.148 1.254-.242 1.869-.207 1.23-.331 1.839-.266 1.212-.425 1.81-.325 1.189-.508 1.774-.384 1.165-.6 1.733-.437 1.135-.679 1.691-.49 1.112-.756 1.65-.544 1.082-.839 1.608-.6 1.047-.91 1.555-.644 1.017-.987 1.508-.691.982-1.058 1.455-.739.946-1.123 1.4-.786.9-1.188 1.342-.827.869-1.253 1.283a1.654 1.654 0 0 1-1.165.472zM50.5 58.539a1.6 1.6 0 0 1-.65-.135 1.659 1.659 0 0 1-.867-2.174c.176-.405.346-.823.51-1.234s.328-.834.48-1.252.3-.846.451-1.263.287-.852.422-1.281.264-.864.387-1.293.246-.87.357-1.3.223-.881.322-1.322.2-.893.293-1.334.182-.9.258-1.346.158-.9.229-1.357.135-.911.193-1.369.111-.923.158-1.381.088-.928.123-1.387.064-.934.088-1.4.041-.94.053-1.41.018-.946.018-1.416v-.023c0-.64-.035-1.281-.094-1.916s-.158-1.246-.281-1.857-.275-1.2-.457-1.792-.393-1.158-.627-1.716-.5-1.1-.785-1.633-.6-1.046-.932-1.539-.691-.981-1.072-1.44-.785-.9-1.2-1.328-.867-.828-1.324-1.2-.943-.74-1.436-1.075-1.014-.652-1.535-.934-1.078-.552-1.629-.787-1.137-.447-1.711-.629-1.184-.335-1.787-.458-1.23-.217-1.852-.282a1.657 1.657 0 0 1 .334-3.3c.732.076 1.465.188 2.18.335s1.418.329 2.1.541 1.359.464 2.016.74 1.295.588 1.922.928 1.225.705 1.811 1.1 1.148.817 1.688 1.263 1.061.923 1.559 1.422.973 1.022 1.418 1.563a20.742 20.742 0 0 1 1.26 1.692c.393.588.762 1.193 1.1 1.816a20.785 20.785 0 0 1 .926 1.927c.275.658.527 1.34.738 2.021a20.611 20.611 0 0 1 .539 2.109c.146.717.258 1.451.334 2.186a22.088 22.088 0 0 1 .111 2.25v.024c0 .5-.006 1-.018 1.5s-.029 1-.059 1.492-.059.993-.094 1.481-.082.987-.135 1.475-.105.975-.17 1.463-.129.97-.205 1.451-.152.964-.24 1.44-.176.958-.275 1.428-.2.946-.311 1.416-.223.94-.346 1.4-.246.928-.381 1.387-.27.923-.41 1.375-.293.911-.445 1.357-.311.9-.475 1.346-.334.887-.51 1.328-.357.881-.539 1.31a1.677 1.677 0 0 1-1.526.997zm-37.15-5.064a1.645 1.645 0 0 1-1.3-.642 1.7 1.7 0 0 1 .275-2.354c.281-.22.556-.458.82-.7s.527-.487.779-.737.5-.517.738-.779.474-.541.7-.82.445-.565.65-.856.41-.594.6-.9.38-.618.556-.927.345-.636.5-.963.31-.66.451-.993.275-.678.4-1.022.24-.7.34-1.052.2-.713.281-1.076.158-.731.222-1.1.117-.749.164-1.123.076-.761.1-1.141c.018-.309.029-.618.029-.927a1.9 1.9 0 0 1-.018-.262 15.761 15.761 0 0 1 .076-1.575c.053-.511.129-1.028.228-1.528s.228-.993.375-1.48.316-.957.509-1.415.4-.909.638-1.349.486-.862.761-1.272a14.233 14.233 0 0 1 .872-1.183c.31-.38.638-.749.978-1.094a1.629 1.629 0 0 1 2.33 0 1.683 1.683 0 0 1 0 2.366c-.269.273-.527.559-.767.856s-.474.612-.685.927a11.329 11.329 0 0 0-.591.993 11.473 11.473 0 0 0-.5 1.052 10.816 10.816 0 0 0-.4 1.106 11.463 11.463 0 0 0-.293 1.153 11.763 11.763 0 0 0-.181 1.195c-.035.333-.053.672-.059 1a1.812 1.812 0 0 1 .018.256c0 .452-.012.909-.041 1.355s-.064.9-.117 1.337-.117.88-.193 1.314-.164.862-.263 1.29-.211.844-.334 1.26-.258.826-.4 1.23-.3.808-.468 1.2-.345.785-.533 1.165-.386.761-.591 1.129-.427.737-.65 1.088-.462.707-.708 1.046-.5.678-.761 1-.533.648-.814.957-.568.618-.866.909-.6.588-.913.862-.632.553-.96.808a1.339 1.339 0 0 1-.985.416zm-3.743-6.33a1.725 1.725 0 0 1-1.277-.557 1.615 1.615 0 0 1 .145-2.332c.163-.141.321-.287.478-.434s.309-.3.454-.457.291-.316.43-.48.272-.328.406-.5.26-.346.375-.521.236-.357.351-.539.218-.369.321-.557.2-.381.291-.574.182-.393.26-.592.157-.4.23-.609.139-.416.2-.621.115-.422.163-.633.091-.434.127-.65.067-.439.091-.662.042-.445.054-.674.018-.457.018-.68v-.023a21.353 21.353 0 0 1 .115-2.244 21.809 21.809 0 0 1 .345-2.18c.151-.709.339-1.418.557-2.1a20.324 20.324 0 0 1 .763-2.016c.284-.65.605-1.295.956-1.922a1.733 1.733 0 0 1 2.312-.662 1.642 1.642 0 0 1 .89 1.453 1.6 1.6 0 0 1-.206.785c-.3.527-.569 1.078-.811 1.629S17.183 28.928 17 29.5a18.087 18.087 0 0 0-.472 1.787c-.127.609-.224 1.23-.291 1.852a18.27 18.27 0 0 0-.1 1.91v.023c0 .287-.006.574-.024.861s-.042.568-.073.85-.073.562-.121.838-.1.551-.163.82-.133.545-.206.809-.157.527-.248.791-.188.516-.291.773-.218.5-.333.75-.242.492-.369.732-.266.475-.406.709-.291.463-.442.686-.315.445-.478.662-.339.428-.514.633-.357.41-.545.609-.381.393-.575.58-.4.375-.605.551a1.79 1.79 0 0 1-1.138.419zm38.346-6.963a.834.834 0 0 1-.12-.006 1.609 1.609 0 0 1-1.48-1.735c.04-.563.074-1.138.091-1.707s.028-1.149.028-1.724v-.023c0-.4-.023-.8-.057-1.2a11.307 11.307 0 0 0-.177-1.155 10.652 10.652 0 0 0-.285-1.115 1.578 1.578 0 0 1-.074-.483 1.6 1.6 0 0 1 3.137-.483c.142.465.268.948.364 1.431s.171.983.222 1.477a14.981 14.981 0 0 1 .074 1.523v.023c0 .609-.011 1.23-.034 1.845s-.057 1.224-.1 1.827a1.6 1.6 0 0 1-1.591 1.505zM7.666 37.017h-.035a1.754 1.754 0 0 1-.4-.059 1.734 1.734 0 0 1-.75-.431 1.638 1.638 0 0 1-.357-.538A1.674 1.674 0 0 1 6 35.368V35.2a28.848 28.848 0 0 1 .149-2.961c.1-.963.244-1.933.44-2.878a28.527 28.527 0 0 1 1.7-5.438c.363-.857.78-1.714 1.226-2.53s.937-1.623 1.46-2.393a27.67 27.67 0 0 1 1.678-2.228c.589-.709 1.226-1.4 1.881-2.057a1.682 1.682 0 0 1 2.369 0 1.654 1.654 0 0 1 0 2.352c-.583.579-1.143 1.188-1.666 1.82s-1.024 1.294-1.488 1.974-.9 1.395-1.291 2.116a24.269 24.269 0 0 0-1.083 2.24c-.327.768-.619 1.56-.869 2.352a22.414 22.414 0 0 0-.649 2.447c-.173.839-.3 1.69-.393 2.547-.083.81-.125 1.637-.131 2.459.006.065.012.124.012.189v.195a1.679 1.679 0 0 1-1.679 1.611zm54.27 0a1.676 1.676 0 0 1-1.678-1.678c0-.88-.048-1.773-.131-2.641s-.22-1.719-.393-2.564a25.145 25.145 0 0 0-.637-2.475c-.25-.8-.542-1.594-.869-2.368s-.69-1.523-1.083-2.255-.827-1.44-1.291-2.13a23.983 23.983 0 0 0-1.488-1.987c-.524-.637-1.083-1.249-1.666-1.832a1.675 1.675 0 0 1 2.369-2.368c.655.654 1.291 1.35 1.881 2.07s1.155 1.475 1.678 2.243 1.012 1.582 1.458 2.4.863 1.684 1.226 2.546.7 1.773.982 2.677.524 1.856.72 2.8a27.887 27.887 0 0 1 .44 2.9 29.222 29.222 0 0 1 .149 2.98 1.66 1.66 0 0 1-1.667 1.682zM44.829 26.889a1.647 1.647 0 0 1-1.183-.508c-.273-.282-.559-.551-.856-.8s-.606-.49-.927-.716a11.99 11.99 0 0 0-2.045-1.139 10.512 10.512 0 0 0-1.106-.416 11.057 11.057 0 0 0-1.153-.31 11.286 11.286 0 0 0-1.195-.19 11.922 11.922 0 0 0-2.473 0A11.285 11.285 0 0 0 32.7 23a1.675 1.675 0 0 1-1.974-1.347 1.739 1.739 0 0 1-.036-.349 1.721 1.721 0 0 1 1.338-1.69 14.405 14.405 0 0 1 1.528-.239 15 15 0 0 1 3.145 0c.511.055 1.028.135 1.528.239s.993.239 1.48.392a14.625 14.625 0 0 1 1.415.533c.458.2.91.423 1.349.667s.862.508 1.272.8a14.291 14.291 0 0 1 1.183.912c.38.325.749.667 1.094 1.023a1.751 1.751 0 0 1 0 2.437 1.666 1.666 0 0 1-1.193.511zm-24.473-5.064a1.711 1.711 0 0 1-1.2-.488 1.62 1.62 0 0 1 0-2.339c.505-.494 1.047-.976 1.6-1.422a21.214 21.214 0 0 1 1.732-1.264c.6-.394 1.221-.764 1.859-1.105a21.473 21.473 0 0 1 1.973-.929c.68-.278 1.38-.529 2.073-.741a21.458 21.458 0 0 1 2.16-.537 1.692 1.692 0 0 1 2 1.293 1.586 1.586 0 0 1 .036.335 1.672 1.672 0 0 1-1.353 1.622c-.614.123-1.233.276-1.835.458s-1.185.394-1.757.629-1.131.5-1.672.788-1.071.6-1.576.935-1 .694-1.474 1.076-.926.788-1.36 1.2a1.71 1.71 0 0 1-1.206.489zm29.6-7.6a1.55 1.55 0 0 1-.9-.292 23.8 23.8 0 0 0-2.045-1.321 22.921 22.921 0 0 0-2.165-1.108 24.228 24.228 0 0 0-2.273-.889 1.731 1.731 0 0 1-1.057-2.148 1.587 1.587 0 0 1 2.016-1.126 26.048 26.048 0 0 1 2.57 1c.828.371 1.656.8 2.45 1.254s1.565.955 2.307 1.491a1.784 1.784 0 0 1 .434 2.38 1.6 1.6 0 0 1-1.335.763zM21.6 12.33a1.691 1.691 0 0 1-1.476-.831A1.551 1.551 0 0 1 20.8 9.34c.827-.424 1.684-.82 2.546-1.164s1.773-.661 2.683-.933 1.856-.5 2.8-.684 1.928-.328 2.9-.418S33.712 6 34.706 6a1.636 1.636 0 0 1 1.678 1.594 1.631 1.631 0 0 1-1.678 1.588c-.881 0-1.773.045-2.642.124s-1.719.209-2.564.373-1.666.362-2.475.6-1.6.514-2.368.825-1.523.656-2.255 1.029a1.759 1.759 0 0 1-.802.197z" class="cls-2" transform="translate(-6 -6)"/>
                    </g>
                </g>
            </g>
        </g>
    </g>
</svg>
