<svg xmlns="http://www.w3.org/2000/svg" width="16" height="16.002" viewBox="0 0 16 16.002">
    <g>
        <g>
            <path fill="#7acc12" d="M88.746 82.148a4.738 4.738 0 0 0 1.367-3.718 4.7 4.7 0 0 0-2.078-3.549 4.746 4.746 0 0 0-3.883-.633 4.805 4.805 0 0 0-1.854 1c-.123.105-.236.219-.35.333l-1.031 1.031L79.23 78.3l-1.807 1.8-1.412 1.412c-.254.254-.524.5-.754.778a4.8 4.8 0 0 0-.976 1.862 4.885 4.885 0 0 0-.072 2.073 4.72 4.72 0 0 0 6.221 3.585 4.85 4.85 0 0 0 1.764-1.11l.276-.276 1.556-1.556 1.624-1.624.35-.353a2.723 2.723 0 0 0 .781-1.726A2.653 2.653 0 0 0 84 80.351a2.718 2.718 0 0 0-1.75.782l-.354.354-1.627 1.623-1.541 1.541-.251.251a.639.639 0 0 0 .9.9l1.323-1.318 2.056-2.056a6.745 6.745 0 0 1 .6-.574l-.129.1a2.112 2.112 0 0 1 .444-.258l-.153.064a2.107 2.107 0 0 1 .508-.139l-.17.023a2.119 2.119 0 0 1 .548 0l-.17-.023a2.107 2.107 0 0 1 .508.139l-.153-.064a2.1 2.1 0 0 1 .444.258l-.129-.1a2.134 2.134 0 0 1 .375.375l-.1-.129a2.113 2.113 0 0 1 .258.444l-.064-.153a2.106 2.106 0 0 1 .139.508l-.023-.17a2.119 2.119 0 0 1 0 .548l.023-.17a2.105 2.105 0 0 1-.139.508l.064-.153a2.1 2.1 0 0 1-.258.444l.1-.129a6.169 6.169 0 0 1-.526.55l-.961.961-2.148 2.148a8.252 8.252 0 0 1-.759.711l.129-.1a4.159 4.159 0 0 1-.892.521l.153-.064a4.172 4.172 0 0 1-1.046.287l.17-.023a4.2 4.2 0 0 1-1.1 0l.17.023a4.175 4.175 0 0 1-1.046-.287l.153.064a4.159 4.159 0 0 1-.892-.521l.129.1a4.231 4.231 0 0 1-.753-.753l.1.129a4.161 4.161 0 0 1-.521-.892l.064.153a4.173 4.173 0 0 1-.287-1.046l.023.17a4.2 4.2 0 0 1 0-1.1l-.023.17a4.175 4.175 0 0 1 .287-1.046l-.064.153a4.159 4.159 0 0 1 .521-.892l-.1.129a10.541 10.541 0 0 1 .909-.958l1.609-1.609 1.985-1.985 1.692-1.692c.243-.243.484-.487.728-.728a4.244 4.244 0 0 1 .382-.333l-.129.1a4.162 4.162 0 0 1 .892-.521l-.153.065a4.173 4.173 0 0 1 1.046-.287l-.17.023a4.2 4.2 0 0 1 1.1 0l-.17-.023a4.175 4.175 0 0 1 1.046.287l-.153-.065a4.16 4.16 0 0 1 .892.521l-.129-.1a4.232 4.232 0 0 1 .753.753l-.1-.129a4.161 4.161 0 0 1 .521.892l-.064-.153a4.172 4.172 0 0 1 .287 1.046l-.023-.17a4.2 4.2 0 0 1 0 1.1l.023-.17a4.174 4.174 0 0 1-.287 1.046l.064-.153a4.16 4.16 0 0 1-.521.892l.1-.129a4.348 4.348 0 0 1-.352.4.639.639 0 1 0 .9.9z" transform="translate(0 0) translate(-74.131 -74.082)"/>
        </g>
    </g>
</svg>
