<svg xmlns="http://www.w3.org/2000/svg" width="14" height="17.818" viewBox="0 0 14 17.818">
    <g>
        <g>
            <path fill="#697584" d="M17.091 3.909h-2.546A1.909 1.909 0 0 0 12.636 2h-1.272a1.909 1.909 0 0 0-1.909 1.909H6.909A1.909 1.909 0 0 0 5 5.818v1.273a.636.636 0 0 0 .636.636v10.182a1.909 1.909 0 0 0 1.909 1.909h8.909a1.909 1.909 0 0 0 1.909-1.909V9a.636.636 0 0 0-1.273 0v8.909a.636.636 0 0 1-.636.636H7.545a.636.636 0 0 1-.636-.636V7.727a.636.636 0 0 0 0-1.273h-.636v-.636a.636.636 0 0 1 .636-.636h10.182a.636.636 0 0 1 .636.636v.636H8.818a.636.636 0 1 0 0 1.273h9.545A.636.636 0 0 0 19 7.091V5.818a1.909 1.909 0 0 0-1.909-1.909zm-6.364 0a.636.636 0 0 1 .636-.636h1.273a.636.636 0 0 1 .636.636zM8.818 9a.636.636 0 0 1 .636.636v7a.636.636 0 1 1-1.273 0v-7A.636.636 0 0 1 8.818 9zm6.364 0a.636.636 0 0 1 .636.636v7a.636.636 0 0 1-1.273 0v-7A.636.636 0 0 1 15.182 9zM12 9a.636.636 0 0 1 .636.636v7a.636.636 0 1 1-1.273 0v-7A.636.636 0 0 1 12 9z" transform="translate(-5 -2) translate(5 2) translate(-5 -2)"/>
        </g>
    </g>
</svg>
