<svg xmlns="http://www.w3.org/2000/svg" width="20.616" height="20.616" viewBox="0 0 20.616 20.616">
    <g>
        <path fill="#7acc12" d="M11.572 17.462v-4.418H7.154a.736.736 0 1 1 0-1.473h4.418V7.154a.736.736 0 0 1 1.473 0v4.418h4.418a.736.736 0 1 1 0 1.473h-4.419v4.418a.736.736 0 0 1-1.473 0zm10.308-4.418a.736.736 0 0 0 .736-.736v-8.1A2.209 2.209 0 0 0 20.407 2H4.209A2.209 2.209 0 0 0 2 4.209v16.2a2.209 2.209 0 0 0 2.209 2.209h16.2a2.209 2.209 0 0 0 2.209-2.209v-5.156a.736.736 0 0 0-1.473 0v5.154a.736.736 0 0 1-.736.736h-16.2a.736.736 0 0 1-.736-.736V4.209a.736.736 0 0 1 .736-.736h16.2a.736.736 0 0 1 .736.736v8.1a.736.736 0 0 0 .735.735z" transform="translate(0 0) translate(-2 -2)"/>
    </g>
</svg>
