<svg width="20" height="18" viewBox="0 0 20 18" fill="none" xmlns="http://www.w3.org/2000/svg">
    <path d="M18.985 0H0.999C0.447268 0 0 0.447268 0 0.999C0 1.55073 0.447268 1.998 0.999 1.998H18.985C19.5367 1.998 19.984 1.55073 19.984 0.999C19.984 0.447268 19.5367 0 18.985 0Z" fill="#697584"/>
    <path d="M18.985 7.77197H0.999C0.447268 7.77197 0 8.21924 0 8.77097C0 9.32271 0.447268 9.76997 0.999 9.76997H18.985C19.5367 9.76997 19.984 9.32271 19.984 8.77097C19.984 8.21924 19.5367 7.77197 18.985 7.77197Z" fill="#697584"/>
    <path d="M18.985 15.543H0.999C0.447268 15.543 0 15.9902 0 16.542C0 17.0937 0.447268 17.541 0.999 17.541H18.985C19.5367 17.541 19.984 17.0937 19.984 16.542C19.984 15.9902 19.5367 15.543 18.985 15.543Z" fill="#697584"/>
</svg>
