<svg xmlns="http://www.w3.org/2000/svg" width="21.861" height="22.454" viewBox="0 0 21.861 22.454">
    <g>
        <path fill="#7acc12" d="M24.294 13.225a1.625 1.625 0 0 1-1.511 1.032H21.6v1.625a.813.813 0 0 1-1.625 0v-2.437a.813.813 0 0 1 .813-.813h1.991l-9.3-8.646-9.3 8.646h1.986a.813.813 0 0 1 .813.813v8.938a.813.813 0 0 0 .813.813h2.438V18.32a2.438 2.438 0 0 1 2.438-2.438h1.625a2.438 2.438 0 0 1 2.438 2.438v4.88h2.438a.813.813 0 0 0 .813-.813v-3.25a.813.813 0 0 1 1.625 0v3.25a2.438 2.438 0 0 1-2.438 2.438h-3.25a.813.813 0 0 1-.813-.813V18.32a.813.813 0 0 0-.813-.813h-1.626a.813.813 0 0 0-.813.813v5.688a.813.813 0 0 1-.813.813H7.79a2.438 2.438 0 0 1-2.438-2.438v-8.126H4.174a1.625 1.625 0 0 1-1.105-2.82l9.3-8.638a1.625 1.625 0 0 1 2.21 0l9.3 8.638a1.625 1.625 0 0 1 .406 1.788z" transform="translate(0 0) translate(-2.546 -2.366)"/>
    </g>
</svg>
