<svg xmlns="http://www.w3.org/2000/svg" width="22.292" height="22.302" viewBox="0 0 22.292 22.302">
    <g>
        <g>
            <path fill="#697584" d="M24.062 24.059a.8.8 0 0 1-1.131 0l-5.891-5.891a9.155 9.155 0 1 1 3.185-8.32 8.925 8.925 0 0 1 .088 1.306.8.8 0 0 1-1.592 0 7.006 7.006 0 0 0-.08-1.083 7.555 7.555 0 1 0-.135 2.882.8.8 0 1 1 1.545.382 9.124 9.124 0 0 1-1.879 3.7l5.891 5.891a.8.8 0 0 1 0 1.131z" transform="translate(0.677 0.677) translate(-0.677 -0.677) translate(-2.006 -1.993)"/>
        </g>
    </g>
</svg>
