<svg width="18" height="15" viewBox="0 0 18 15" fill="none" xmlns="http://www.w3.org/2000/svg">
<path d="M7.73299 12.4449C5.67599 10.3879 3.70699 8.32795 1.54299 6.27495V7.58395C3.54899 5.58395 5.56399 3.58395 7.56399 1.58395C7.73153 1.41028 7.8244 1.1779 7.8227 0.936591C7.821 0.695283 7.72486 0.464239 7.55488 0.292952C7.3849 0.121664 7.1546 0.0237576 6.91331 0.0202055C6.67202 0.0166534 6.43894 0.107738 6.26399 0.273948L0.263989 6.27395C0.0923715 6.44877 -0.0037775 6.68397 -0.0037775 6.92895C-0.0037775 7.17393 0.0923715 7.40912 0.263989 7.58395C2.32466 9.64061 4.38066 11.6976 6.43199 13.7549C6.60694 13.9212 6.84002 14.0122 7.08131 14.0087C7.3226 14.0051 7.5529 13.9072 7.72288 13.7359C7.89286 13.5647 7.989 13.3336 7.9907 13.0923C7.9924 12.851 7.89953 12.6186 7.73199 12.4449H7.73299Z" fill="#7ACC12"/>
<path d="M1.75513 7.01465H16.4991" stroke="#7ACC12" stroke-width="2" stroke-linecap="round"/>
</svg>
