<svg xmlns="http://www.w3.org/2000/svg" width="17.499" height="14.028" viewBox="0 0 17.499 14.028">
    <g>
        <g>
            <g>
                <g>
                    <path fill="#697584" d="M.274 1.583C2.331 3.64 4.3 5.7 6.464 7.753V6.444c-2.006 2-4.021 4-6.021 6a.923.923 0 0 0 1.3 1.31l6-6a.935.935 0 0 0 0-1.31Q4.652 3.359 1.575.273a.923.923 0 0 0-1.3 1.31z" transform="translate(-279.501 -696.996) translate(287.508 711.024) rotate(180) translate(0 0) translate(0)"/>
                </g>
            </g>
        </g>
        <path fill="none" stroke="#697584" stroke-linecap="round" stroke-width="2px" d="M0 0L14.744 0" transform="translate(-279.501 -696.996) translate(281.256 704.01)"/>
    </g>
</svg>
