<svg xmlns="http://www.w3.org/2000/svg" width="8.893" height="11.414" viewBox="0 0 8.893 11.414">
    <defs>
        <style>
            .cls-1{fill:#fff}
        </style>
    </defs>
    <g id="noun_Rotate_1921302_1_" transform="translate(54.862 21.986)">
        <g id="그룹_467" transform="translate(-54.862 -21.986)">
            <path id="패스_202" d="M15.155 38.225a3.2 3.2 0 0 0 2.9.865l-.168-.168a.629.629 0 0 1 .889-.889l1.286 1.3a.638.638 0 0 1 0 .889l-1.286 1.286a.629.629 0 0 1-.889-.889l.24-.24a4.457 4.457 0 0 1-4.9-5.9.627.627 0 0 1 1.033-.228.637.637 0 0 1 .144.661 3.226 3.226 0 0 0 .751 3.313z" class="cls-1" transform="translate(-12.964 -30.272)"/>
            <path id="패스_203" d="M33.5 9.721a.627.627 0 0 1-1.033.228.642.642 0 0 1-.144-.661A3.182 3.182 0 0 0 28.687 5.1l.168.168a.638.638 0 0 1 0 .889.638.638 0 0 1-.889 0l-1.286-1.3a.638.638 0 0 1 0-.889l1.286-1.288a.629.629 0 0 1 .889.889l-.24.24A4.45 4.45 0 0 1 33.5 9.721z" class="cls-1" transform="translate(-24.874 -2.5)"/>
        </g>
    </g>
</svg>
